<?xml version="1.0" encoding="utf-8" standalone="no"?>
<!DOCTYPE svg PUBLIC "-//W3C//DTD SVG 1.1//EN"
  "http://www.w3.org/Graphics/SVG/1.1/DTD/svg11.dtd">
<svg xmlns:xlink="http://www.w3.org/1999/xlink" width="411.285625pt" height="364.058937pt" viewBox="0 0 411.285625 364.058937" xmlns="http://www.w3.org/2000/svg" version="1.1">
 <metadata>
  <rdf:RDF xmlns:dc="http://purl.org/dc/elements/1.1/" xmlns:cc="http://creativecommons.org/ns#" xmlns:rdf="http://www.w3.org/1999/02/22-rdf-syntax-ns#">
   <cc:Work>
    <dc:type rdf:resource="http://purl.org/dc/dcmitype/StillImage"/>
    <dc:date>2025-06-19T17:26:15.620266</dc:date>
    <dc:format>image/svg+xml</dc:format>
    <dc:creator>
     <cc:Agent>
      <dc:title>Matplotlib v3.10.3, https://matplotlib.org/</dc:title>
     </cc:Agent>
    </dc:creator>
   </cc:Work>
  </rdf:RDF>
 </metadata>
 <defs>
  <style type="text/css">*{stroke-linejoin: round; stroke-linecap: butt}</style>
 </defs>
 <g id="figure_1">
  <g id="patch_1">
   <path d="M 0 364.058937 
L 411.285625 364.058937 
L 411.285625 0 
L 0 0 
z
" style="fill: #ffffff"/>
  </g>
  <g id="axes_1">
   <g id="patch_2">
    <path d="M 40.603125 315.304875 
L 397.723125 315.304875 
L 397.723125 49.192875 
L 40.603125 49.192875 
z
" style="fill: #ffffff"/>
   </g>
   <g id="matplotlib.axis_1">
    <g id="xtick_1">
     <g id="line2d_1">
      <defs>
       <path id="m105d31be37" d="M 0 0 
L 0 3.5 
" style="stroke: #000000; stroke-width: 0.8"/>
      </defs>
      <g>
       <use xlink:href="#m105d31be37" x="40.603125" y="315.304875" style="stroke: #000000; stroke-width: 0.8"/>
      </g>
     </g>
     <g id="text_1">
      <!-- 0 -->
      <g transform="translate(37.421875 329.903312) scale(0.1 -0.1)">
       <defs>
        <path id="DejaVuSans-30" d="M 2034 4250 
Q 1547 4250 1301 3770 
Q 1056 3291 1056 2328 
Q 1056 1369 1301 889 
Q 1547 409 2034 409 
Q 2525 409 2770 889 
Q 3016 1369 3016 2328 
Q 3016 3291 2770 3770 
Q 2525 4250 2034 4250 
z
M 2034 4750 
Q 2819 4750 3233 4129 
Q 3647 3509 3647 2328 
Q 3647 1150 3233 529 
Q 2819 -91 2034 -91 
Q 1250 -91 836 529 
Q 422 1150 422 2328 
Q 422 3509 836 4129 
Q 1250 4750 2034 4750 
z
" transform="scale(0.015625)"/>
       </defs>
       <use xlink:href="#DejaVuSans-30"/>
      </g>
     </g>
    </g>
    <g id="xtick_2">
     <g id="line2d_2">
      <g>
       <use xlink:href="#m105d31be37" x="112.027125" y="315.304875" style="stroke: #000000; stroke-width: 0.8"/>
      </g>
     </g>
     <g id="text_2">
      <!-- 10 -->
      <g transform="translate(105.664625 329.903312) scale(0.1 -0.1)">
       <defs>
        <path id="DejaVuSans-31" d="M 794 531 
L 1825 531 
L 1825 4091 
L 703 3866 
L 703 4441 
L 1819 4666 
L 2450 4666 
L 2450 531 
L 3481 531 
L 3481 0 
L 794 0 
L 794 531 
z
" transform="scale(0.015625)"/>
       </defs>
       <use xlink:href="#DejaVuSans-31"/>
       <use xlink:href="#DejaVuSans-30" transform="translate(63.623047 0)"/>
      </g>
     </g>
    </g>
    <g id="xtick_3">
     <g id="line2d_3">
      <g>
       <use xlink:href="#m105d31be37" x="183.451125" y="315.304875" style="stroke: #000000; stroke-width: 0.8"/>
      </g>
     </g>
     <g id="text_3">
      <!-- 20 -->
      <g transform="translate(177.088625 329.903312) scale(0.1 -0.1)">
       <defs>
        <path id="DejaVuSans-32" d="M 1228 531 
L 3431 531 
L 3431 0 
L 469 0 
L 469 531 
Q 828 903 1448 1529 
Q 2069 2156 2228 2338 
Q 2531 2678 2651 2914 
Q 2772 3150 2772 3378 
Q 2772 3750 2511 3984 
Q 2250 4219 1831 4219 
Q 1534 4219 1204 4116 
Q 875 4013 500 3803 
L 500 4441 
Q 881 4594 1212 4672 
Q 1544 4750 1819 4750 
Q 2544 4750 2975 4387 
Q 3406 4025 3406 3419 
Q 3406 3131 3298 2873 
Q 3191 2616 2906 2266 
Q 2828 2175 2409 1742 
Q 1991 1309 1228 531 
z
" transform="scale(0.015625)"/>
       </defs>
       <use xlink:href="#DejaVuSans-32"/>
       <use xlink:href="#DejaVuSans-30" transform="translate(63.623047 0)"/>
      </g>
     </g>
    </g>
    <g id="xtick_4">
     <g id="line2d_4">
      <g>
       <use xlink:href="#m105d31be37" x="254.875125" y="315.304875" style="stroke: #000000; stroke-width: 0.8"/>
      </g>
     </g>
     <g id="text_4">
      <!-- 30 -->
      <g transform="translate(248.512625 329.903312) scale(0.1 -0.1)">
       <defs>
        <path id="DejaVuSans-33" d="M 2597 2516 
Q 3050 2419 3304 2112 
Q 3559 1806 3559 1356 
Q 3559 666 3084 287 
Q 2609 -91 1734 -91 
Q 1441 -91 1130 -33 
Q 819 25 488 141 
L 488 750 
Q 750 597 1062 519 
Q 1375 441 1716 441 
Q 2309 441 2620 675 
Q 2931 909 2931 1356 
Q 2931 1769 2642 2001 
Q 2353 2234 1838 2234 
L 1294 2234 
L 1294 2753 
L 1863 2753 
Q 2328 2753 2575 2939 
Q 2822 3125 2822 3475 
Q 2822 3834 2567 4026 
Q 2313 4219 1838 4219 
Q 1578 4219 1281 4162 
Q 984 4106 628 3988 
L 628 4550 
Q 988 4650 1302 4700 
Q 1616 4750 1894 4750 
Q 2613 4750 3031 4423 
Q 3450 4097 3450 3541 
Q 3450 3153 3228 2886 
Q 3006 2619 2597 2516 
z
" transform="scale(0.015625)"/>
       </defs>
       <use xlink:href="#DejaVuSans-33"/>
       <use xlink:href="#DejaVuSans-30" transform="translate(63.623047 0)"/>
      </g>
     </g>
    </g>
    <g id="xtick_5">
     <g id="line2d_5">
      <g>
       <use xlink:href="#m105d31be37" x="326.299125" y="315.304875" style="stroke: #000000; stroke-width: 0.8"/>
      </g>
     </g>
     <g id="text_5">
      <!-- 40 -->
      <g transform="translate(319.936625 329.903312) scale(0.1 -0.1)">
       <defs>
        <path id="DejaVuSans-34" d="M 2419 4116 
L 825 1625 
L 2419 1625 
L 2419 4116 
z
M 2253 4666 
L 3047 4666 
L 3047 1625 
L 3713 1625 
L 3713 1100 
L 3047 1100 
L 3047 0 
L 2419 0 
L 2419 1100 
L 313 1100 
L 313 1709 
L 2253 4666 
z
" transform="scale(0.015625)"/>
       </defs>
       <use xlink:href="#DejaVuSans-34"/>
       <use xlink:href="#DejaVuSans-30" transform="translate(63.623047 0)"/>
      </g>
     </g>
    </g>
    <g id="xtick_6">
     <g id="line2d_6">
      <g>
       <use xlink:href="#m105d31be37" x="397.723125" y="315.304875" style="stroke: #000000; stroke-width: 0.8"/>
      </g>
     </g>
     <g id="text_6">
      <!-- 50 -->
      <g transform="translate(391.360625 329.903312) scale(0.1 -0.1)">
       <defs>
        <path id="DejaVuSans-35" d="M 691 4666 
L 3169 4666 
L 3169 4134 
L 1269 4134 
L 1269 2991 
Q 1406 3038 1543 3061 
Q 1681 3084 1819 3084 
Q 2600 3084 3056 2656 
Q 3513 2228 3513 1497 
Q 3513 744 3044 326 
Q 2575 -91 1722 -91 
Q 1428 -91 1123 -41 
Q 819 9 494 109 
L 494 744 
Q 775 591 1075 516 
Q 1375 441 1709 441 
Q 2250 441 2565 725 
Q 2881 1009 2881 1497 
Q 2881 1984 2565 2268 
Q 2250 2553 1709 2553 
Q 1456 2553 1204 2497 
Q 953 2441 691 2322 
L 691 4666 
z
" transform="scale(0.015625)"/>
       </defs>
       <use xlink:href="#DejaVuSans-35"/>
       <use xlink:href="#DejaVuSans-30" transform="translate(63.623047 0)"/>
      </g>
     </g>
    </g>
    <g id="text_7">
     <!-- ligand center of mass distance -->
     <g transform="translate(142.210781 343.581437) scale(0.1 -0.1)">
      <defs>
       <path id="DejaVuSans-6c" d="M 603 4863 
L 1178 4863 
L 1178 0 
L 603 0 
L 603 4863 
z
" transform="scale(0.015625)"/>
       <path id="DejaVuSans-69" d="M 603 3500 
L 1178 3500 
L 1178 0 
L 603 0 
L 603 3500 
z
M 603 4863 
L 1178 4863 
L 1178 4134 
L 603 4134 
L 603 4863 
z
" transform="scale(0.015625)"/>
       <path id="DejaVuSans-67" d="M 2906 1791 
Q 2906 2416 2648 2759 
Q 2391 3103 1925 3103 
Q 1463 3103 1205 2759 
Q 947 2416 947 1791 
Q 947 1169 1205 825 
Q 1463 481 1925 481 
Q 2391 481 2648 825 
Q 2906 1169 2906 1791 
z
M 3481 434 
Q 3481 -459 3084 -895 
Q 2688 -1331 1869 -1331 
Q 1566 -1331 1297 -1286 
Q 1028 -1241 775 -1147 
L 775 -588 
Q 1028 -725 1275 -790 
Q 1522 -856 1778 -856 
Q 2344 -856 2625 -561 
Q 2906 -266 2906 331 
L 2906 616 
Q 2728 306 2450 153 
Q 2172 0 1784 0 
Q 1141 0 747 490 
Q 353 981 353 1791 
Q 353 2603 747 3093 
Q 1141 3584 1784 3584 
Q 2172 3584 2450 3431 
Q 2728 3278 2906 2969 
L 2906 3500 
L 3481 3500 
L 3481 434 
z
" transform="scale(0.015625)"/>
       <path id="DejaVuSans-61" d="M 2194 1759 
Q 1497 1759 1228 1600 
Q 959 1441 959 1056 
Q 959 750 1161 570 
Q 1363 391 1709 391 
Q 2188 391 2477 730 
Q 2766 1069 2766 1631 
L 2766 1759 
L 2194 1759 
z
M 3341 1997 
L 3341 0 
L 2766 0 
L 2766 531 
Q 2569 213 2275 61 
Q 1981 -91 1556 -91 
Q 1019 -91 701 211 
Q 384 513 384 1019 
Q 384 1609 779 1909 
Q 1175 2209 1959 2209 
L 2766 2209 
L 2766 2266 
Q 2766 2663 2505 2880 
Q 2244 3097 1772 3097 
Q 1472 3097 1187 3025 
Q 903 2953 641 2809 
L 641 3341 
Q 956 3463 1253 3523 
Q 1550 3584 1831 3584 
Q 2591 3584 2966 3190 
Q 3341 2797 3341 1997 
z
" transform="scale(0.015625)"/>
       <path id="DejaVuSans-6e" d="M 3513 2113 
L 3513 0 
L 2938 0 
L 2938 2094 
Q 2938 2591 2744 2837 
Q 2550 3084 2163 3084 
Q 1697 3084 1428 2787 
Q 1159 2491 1159 1978 
L 1159 0 
L 581 0 
L 581 3500 
L 1159 3500 
L 1159 2956 
Q 1366 3272 1645 3428 
Q 1925 3584 2291 3584 
Q 2894 3584 3203 3211 
Q 3513 2838 3513 2113 
z
" transform="scale(0.015625)"/>
       <path id="DejaVuSans-64" d="M 2906 2969 
L 2906 4863 
L 3481 4863 
L 3481 0 
L 2906 0 
L 2906 525 
Q 2725 213 2448 61 
Q 2172 -91 1784 -91 
Q 1150 -91 751 415 
Q 353 922 353 1747 
Q 353 2572 751 3078 
Q 1150 3584 1784 3584 
Q 2172 3584 2448 3432 
Q 2725 3281 2906 2969 
z
M 947 1747 
Q 947 1113 1208 752 
Q 1469 391 1925 391 
Q 2381 391 2643 752 
Q 2906 1113 2906 1747 
Q 2906 2381 2643 2742 
Q 2381 3103 1925 3103 
Q 1469 3103 1208 2742 
Q 947 2381 947 1747 
z
" transform="scale(0.015625)"/>
       <path id="DejaVuSans-20" transform="scale(0.015625)"/>
       <path id="DejaVuSans-63" d="M 3122 3366 
L 3122 2828 
Q 2878 2963 2633 3030 
Q 2388 3097 2138 3097 
Q 1578 3097 1268 2742 
Q 959 2388 959 1747 
Q 959 1106 1268 751 
Q 1578 397 2138 397 
Q 2388 397 2633 464 
Q 2878 531 3122 666 
L 3122 134 
Q 2881 22 2623 -34 
Q 2366 -91 2075 -91 
Q 1284 -91 818 406 
Q 353 903 353 1747 
Q 353 2603 823 3093 
Q 1294 3584 2113 3584 
Q 2378 3584 2631 3529 
Q 2884 3475 3122 3366 
z
" transform="scale(0.015625)"/>
       <path id="DejaVuSans-65" d="M 3597 1894 
L 3597 1613 
L 953 1613 
Q 991 1019 1311 708 
Q 1631 397 2203 397 
Q 2534 397 2845 478 
Q 3156 559 3463 722 
L 3463 178 
Q 3153 47 2828 -22 
Q 2503 -91 2169 -91 
Q 1331 -91 842 396 
Q 353 884 353 1716 
Q 353 2575 817 3079 
Q 1281 3584 2069 3584 
Q 2775 3584 3186 3129 
Q 3597 2675 3597 1894 
z
M 3022 2063 
Q 3016 2534 2758 2815 
Q 2500 3097 2075 3097 
Q 1594 3097 1305 2825 
Q 1016 2553 972 2059 
L 3022 2063 
z
" transform="scale(0.015625)"/>
       <path id="DejaVuSans-74" d="M 1172 4494 
L 1172 3500 
L 2356 3500 
L 2356 3053 
L 1172 3053 
L 1172 1153 
Q 1172 725 1289 603 
Q 1406 481 1766 481 
L 2356 481 
L 2356 0 
L 1766 0 
Q 1100 0 847 248 
Q 594 497 594 1153 
L 594 3053 
L 172 3053 
L 172 3500 
L 594 3500 
L 594 4494 
L 1172 4494 
z
" transform="scale(0.015625)"/>
       <path id="DejaVuSans-72" d="M 2631 2963 
Q 2534 3019 2420 3045 
Q 2306 3072 2169 3072 
Q 1681 3072 1420 2755 
Q 1159 2438 1159 1844 
L 1159 0 
L 581 0 
L 581 3500 
L 1159 3500 
L 1159 2956 
Q 1341 3275 1631 3429 
Q 1922 3584 2338 3584 
Q 2397 3584 2469 3576 
Q 2541 3569 2628 3553 
L 2631 2963 
z
" transform="scale(0.015625)"/>
       <path id="DejaVuSans-6f" d="M 1959 3097 
Q 1497 3097 1228 2736 
Q 959 2375 959 1747 
Q 959 1119 1226 758 
Q 1494 397 1959 397 
Q 2419 397 2687 759 
Q 2956 1122 2956 1747 
Q 2956 2369 2687 2733 
Q 2419 3097 1959 3097 
z
M 1959 3584 
Q 2709 3584 3137 3096 
Q 3566 2609 3566 1747 
Q 3566 888 3137 398 
Q 2709 -91 1959 -91 
Q 1206 -91 779 398 
Q 353 888 353 1747 
Q 353 2609 779 3096 
Q 1206 3584 1959 3584 
z
" transform="scale(0.015625)"/>
       <path id="DejaVuSans-66" d="M 2375 4863 
L 2375 4384 
L 1825 4384 
Q 1516 4384 1395 4259 
Q 1275 4134 1275 3809 
L 1275 3500 
L 2222 3500 
L 2222 3053 
L 1275 3053 
L 1275 0 
L 697 0 
L 697 3053 
L 147 3053 
L 147 3500 
L 697 3500 
L 697 3744 
Q 697 4328 969 4595 
Q 1241 4863 1831 4863 
L 2375 4863 
z
" transform="scale(0.015625)"/>
       <path id="DejaVuSans-6d" d="M 3328 2828 
Q 3544 3216 3844 3400 
Q 4144 3584 4550 3584 
Q 5097 3584 5394 3201 
Q 5691 2819 5691 2113 
L 5691 0 
L 5113 0 
L 5113 2094 
Q 5113 2597 4934 2840 
Q 4756 3084 4391 3084 
Q 3944 3084 3684 2787 
Q 3425 2491 3425 1978 
L 3425 0 
L 2847 0 
L 2847 2094 
Q 2847 2600 2669 2842 
Q 2491 3084 2119 3084 
Q 1678 3084 1418 2786 
Q 1159 2488 1159 1978 
L 1159 0 
L 581 0 
L 581 3500 
L 1159 3500 
L 1159 2956 
Q 1356 3278 1631 3431 
Q 1906 3584 2284 3584 
Q 2666 3584 2933 3390 
Q 3200 3197 3328 2828 
z
" transform="scale(0.015625)"/>
       <path id="DejaVuSans-73" d="M 2834 3397 
L 2834 2853 
Q 2591 2978 2328 3040 
Q 2066 3103 1784 3103 
Q 1356 3103 1142 2972 
Q 928 2841 928 2578 
Q 928 2378 1081 2264 
Q 1234 2150 1697 2047 
L 1894 2003 
Q 2506 1872 2764 1633 
Q 3022 1394 3022 966 
Q 3022 478 2636 193 
Q 2250 -91 1575 -91 
Q 1294 -91 989 -36 
Q 684 19 347 128 
L 347 722 
Q 666 556 975 473 
Q 1284 391 1588 391 
Q 1994 391 2212 530 
Q 2431 669 2431 922 
Q 2431 1156 2273 1281 
Q 2116 1406 1581 1522 
L 1381 1569 
Q 847 1681 609 1914 
Q 372 2147 372 2553 
Q 372 3047 722 3315 
Q 1072 3584 1716 3584 
Q 2034 3584 2315 3537 
Q 2597 3491 2834 3397 
z
" transform="scale(0.015625)"/>
      </defs>
      <use xlink:href="#DejaVuSans-6c"/>
      <use xlink:href="#DejaVuSans-69" transform="translate(27.783203 0)"/>
      <use xlink:href="#DejaVuSans-67" transform="translate(55.566406 0)"/>
      <use xlink:href="#DejaVuSans-61" transform="translate(119.042969 0)"/>
      <use xlink:href="#DejaVuSans-6e" transform="translate(180.322266 0)"/>
      <use xlink:href="#DejaVuSans-64" transform="translate(243.701172 0)"/>
      <use xlink:href="#DejaVuSans-20" transform="translate(307.177734 0)"/>
      <use xlink:href="#DejaVuSans-63" transform="translate(338.964844 0)"/>
      <use xlink:href="#DejaVuSans-65" transform="translate(393.945312 0)"/>
      <use xlink:href="#DejaVuSans-6e" transform="translate(455.46875 0)"/>
      <use xlink:href="#DejaVuSans-74" transform="translate(518.847656 0)"/>
      <use xlink:href="#DejaVuSans-65" transform="translate(558.056641 0)"/>
      <use xlink:href="#DejaVuSans-72" transform="translate(619.580078 0)"/>
      <use xlink:href="#DejaVuSans-20" transform="translate(660.693359 0)"/>
      <use xlink:href="#DejaVuSans-6f" transform="translate(692.480469 0)"/>
      <use xlink:href="#DejaVuSans-66" transform="translate(753.662109 0)"/>
      <use xlink:href="#DejaVuSans-20" transform="translate(788.867188 0)"/>
      <use xlink:href="#DejaVuSans-6d" transform="translate(820.654297 0)"/>
      <use xlink:href="#DejaVuSans-61" transform="translate(918.066406 0)"/>
      <use xlink:href="#DejaVuSans-73" transform="translate(979.345703 0)"/>
      <use xlink:href="#DejaVuSans-73" transform="translate(1031.445312 0)"/>
      <use xlink:href="#DejaVuSans-20" transform="translate(1083.544922 0)"/>
      <use xlink:href="#DejaVuSans-64" transform="translate(1115.332031 0)"/>
      <use xlink:href="#DejaVuSans-69" transform="translate(1178.808594 0)"/>
      <use xlink:href="#DejaVuSans-73" transform="translate(1206.591797 0)"/>
      <use xlink:href="#DejaVuSans-74" transform="translate(1258.691406 0)"/>
      <use xlink:href="#DejaVuSans-61" transform="translate(1297.900391 0)"/>
      <use xlink:href="#DejaVuSans-6e" transform="translate(1359.179688 0)"/>
      <use xlink:href="#DejaVuSans-63" transform="translate(1422.558594 0)"/>
      <use xlink:href="#DejaVuSans-65" transform="translate(1477.539062 0)"/>
     </g>
     <!-- from bound state (Angstroms) -->
     <g transform="translate(143.645156 354.77925) scale(0.1 -0.1)">
      <defs>
       <path id="DejaVuSans-62" d="M 3116 1747 
Q 3116 2381 2855 2742 
Q 2594 3103 2138 3103 
Q 1681 3103 1420 2742 
Q 1159 2381 1159 1747 
Q 1159 1113 1420 752 
Q 1681 391 2138 391 
Q 2594 391 2855 752 
Q 3116 1113 3116 1747 
z
M 1159 2969 
Q 1341 3281 1617 3432 
Q 1894 3584 2278 3584 
Q 2916 3584 3314 3078 
Q 3713 2572 3713 1747 
Q 3713 922 3314 415 
Q 2916 -91 2278 -91 
Q 1894 -91 1617 61 
Q 1341 213 1159 525 
L 1159 0 
L 581 0 
L 581 4863 
L 1159 4863 
L 1159 2969 
z
" transform="scale(0.015625)"/>
       <path id="DejaVuSans-75" d="M 544 1381 
L 544 3500 
L 1119 3500 
L 1119 1403 
Q 1119 906 1312 657 
Q 1506 409 1894 409 
Q 2359 409 2629 706 
Q 2900 1003 2900 1516 
L 2900 3500 
L 3475 3500 
L 3475 0 
L 2900 0 
L 2900 538 
Q 2691 219 2414 64 
Q 2138 -91 1772 -91 
Q 1169 -91 856 284 
Q 544 659 544 1381 
z
M 1991 3584 
L 1991 3584 
z
" transform="scale(0.015625)"/>
       <path id="DejaVuSans-28" d="M 1984 4856 
Q 1566 4138 1362 3434 
Q 1159 2731 1159 2009 
Q 1159 1288 1364 580 
Q 1569 -128 1984 -844 
L 1484 -844 
Q 1016 -109 783 600 
Q 550 1309 550 2009 
Q 550 2706 781 3412 
Q 1013 4119 1484 4856 
L 1984 4856 
z
" transform="scale(0.015625)"/>
       <path id="DejaVuSans-41" d="M 2188 4044 
L 1331 1722 
L 3047 1722 
L 2188 4044 
z
M 1831 4666 
L 2547 4666 
L 4325 0 
L 3669 0 
L 3244 1197 
L 1141 1197 
L 716 0 
L 50 0 
L 1831 4666 
z
" transform="scale(0.015625)"/>
       <path id="DejaVuSans-29" d="M 513 4856 
L 1013 4856 
Q 1481 4119 1714 3412 
Q 1947 2706 1947 2009 
Q 1947 1309 1714 600 
Q 1481 -109 1013 -844 
L 513 -844 
Q 928 -128 1133 580 
Q 1338 1288 1338 2009 
Q 1338 2731 1133 3434 
Q 928 4138 513 4856 
z
" transform="scale(0.015625)"/>
      </defs>
      <use xlink:href="#DejaVuSans-66"/>
      <use xlink:href="#DejaVuSans-72" transform="translate(35.205078 0)"/>
      <use xlink:href="#DejaVuSans-6f" transform="translate(74.068359 0)"/>
      <use xlink:href="#DejaVuSans-6d" transform="translate(135.25 0)"/>
      <use xlink:href="#DejaVuSans-20" transform="translate(232.662109 0)"/>
      <use xlink:href="#DejaVuSans-62" transform="translate(264.449219 0)"/>
      <use xlink:href="#DejaVuSans-6f" transform="translate(327.925781 0)"/>
      <use xlink:href="#DejaVuSans-75" transform="translate(389.107422 0)"/>
      <use xlink:href="#DejaVuSans-6e" transform="translate(452.486328 0)"/>
      <use xlink:href="#DejaVuSans-64" transform="translate(515.865234 0)"/>
      <use xlink:href="#DejaVuSans-20" transform="translate(579.341797 0)"/>
      <use xlink:href="#DejaVuSans-73" transform="translate(611.128906 0)"/>
      <use xlink:href="#DejaVuSans-74" transform="translate(663.228516 0)"/>
      <use xlink:href="#DejaVuSans-61" transform="translate(702.4375 0)"/>
      <use xlink:href="#DejaVuSans-74" transform="translate(763.716797 0)"/>
      <use xlink:href="#DejaVuSans-65" transform="translate(802.925781 0)"/>
      <use xlink:href="#DejaVuSans-20" transform="translate(864.449219 0)"/>
      <use xlink:href="#DejaVuSans-28" transform="translate(896.236328 0)"/>
      <use xlink:href="#DejaVuSans-41" transform="translate(935.25 0)"/>
      <use xlink:href="#DejaVuSans-6e" transform="translate(1003.658203 0)"/>
      <use xlink:href="#DejaVuSans-67" transform="translate(1067.037109 0)"/>
      <use xlink:href="#DejaVuSans-73" transform="translate(1130.513672 0)"/>
      <use xlink:href="#DejaVuSans-74" transform="translate(1182.613281 0)"/>
      <use xlink:href="#DejaVuSans-72" transform="translate(1221.822266 0)"/>
      <use xlink:href="#DejaVuSans-6f" transform="translate(1260.685547 0)"/>
      <use xlink:href="#DejaVuSans-6d" transform="translate(1321.867188 0)"/>
      <use xlink:href="#DejaVuSans-73" transform="translate(1419.279297 0)"/>
      <use xlink:href="#DejaVuSans-29" transform="translate(1471.378906 0)"/>
     </g>
    </g>
   </g>
   <g id="matplotlib.axis_2">
    <g id="ytick_1">
     <g id="line2d_7">
      <defs>
       <path id="mfb44183838" d="M 0 0 
L -3.5 0 
" style="stroke: #000000; stroke-width: 0.8"/>
      </defs>
      <g>
       <use xlink:href="#mfb44183838" x="40.603125" y="271.433978" style="stroke: #000000; stroke-width: 0.8"/>
      </g>
     </g>
     <g id="text_8">
      <!-- 5 -->
      <g transform="translate(27.240625 275.233197) scale(0.1 -0.1)">
       <use xlink:href="#DejaVuSans-35"/>
      </g>
     </g>
    </g>
    <g id="ytick_2">
     <g id="line2d_8">
      <g>
       <use xlink:href="#mfb44183838" x="40.603125" y="221.3828" style="stroke: #000000; stroke-width: 0.8"/>
      </g>
     </g>
     <g id="text_9">
      <!-- 10 -->
      <g transform="translate(20.878125 225.182019) scale(0.1 -0.1)">
       <use xlink:href="#DejaVuSans-31"/>
       <use xlink:href="#DejaVuSans-30" transform="translate(63.623047 0)"/>
      </g>
     </g>
    </g>
    <g id="ytick_3">
     <g id="line2d_9">
      <g>
       <use xlink:href="#mfb44183838" x="40.603125" y="171.331621" style="stroke: #000000; stroke-width: 0.8"/>
      </g>
     </g>
     <g id="text_10">
      <!-- 15 -->
      <g transform="translate(20.878125 175.13084) scale(0.1 -0.1)">
       <use xlink:href="#DejaVuSans-31"/>
       <use xlink:href="#DejaVuSans-35" transform="translate(63.623047 0)"/>
      </g>
     </g>
    </g>
    <g id="ytick_4">
     <g id="line2d_10">
      <g>
       <use xlink:href="#mfb44183838" x="40.603125" y="121.280443" style="stroke: #000000; stroke-width: 0.8"/>
      </g>
     </g>
     <g id="text_11">
      <!-- 20 -->
      <g transform="translate(20.878125 125.079662) scale(0.1 -0.1)">
       <use xlink:href="#DejaVuSans-32"/>
       <use xlink:href="#DejaVuSans-30" transform="translate(63.623047 0)"/>
      </g>
     </g>
    </g>
    <g id="ytick_5">
     <g id="line2d_11">
      <g>
       <use xlink:href="#mfb44183838" x="40.603125" y="71.229264" style="stroke: #000000; stroke-width: 0.8"/>
      </g>
     </g>
     <g id="text_12">
      <!-- 25 -->
      <g transform="translate(20.878125 75.028483) scale(0.1 -0.1)">
       <use xlink:href="#DejaVuSans-32"/>
       <use xlink:href="#DejaVuSans-35" transform="translate(63.623047 0)"/>
      </g>
     </g>
    </g>
    <g id="text_13">
     <!-- free energy (kT) -->
     <g transform="translate(14.798438 222.557469) rotate(-90) scale(0.1 -0.1)">
      <defs>
       <path id="DejaVuSans-79" d="M 2059 -325 
Q 1816 -950 1584 -1140 
Q 1353 -1331 966 -1331 
L 506 -1331 
L 506 -850 
L 844 -850 
Q 1081 -850 1212 -737 
Q 1344 -625 1503 -206 
L 1606 56 
L 191 3500 
L 800 3500 
L 1894 763 
L 2988 3500 
L 3597 3500 
L 2059 -325 
z
" transform="scale(0.015625)"/>
       <path id="DejaVuSans-6b" d="M 581 4863 
L 1159 4863 
L 1159 1991 
L 2875 3500 
L 3609 3500 
L 1753 1863 
L 3688 0 
L 2938 0 
L 1159 1709 
L 1159 0 
L 581 0 
L 581 4863 
z
" transform="scale(0.015625)"/>
       <path id="DejaVuSans-54" d="M -19 4666 
L 3928 4666 
L 3928 4134 
L 2272 4134 
L 2272 0 
L 1638 0 
L 1638 4134 
L -19 4134 
L -19 4666 
z
" transform="scale(0.015625)"/>
      </defs>
      <use xlink:href="#DejaVuSans-66"/>
      <use xlink:href="#DejaVuSans-72" transform="translate(35.205078 0)"/>
      <use xlink:href="#DejaVuSans-65" transform="translate(74.068359 0)"/>
      <use xlink:href="#DejaVuSans-65" transform="translate(135.591797 0)"/>
      <use xlink:href="#DejaVuSans-20" transform="translate(197.115234 0)"/>
      <use xlink:href="#DejaVuSans-65" transform="translate(228.902344 0)"/>
      <use xlink:href="#DejaVuSans-6e" transform="translate(290.425781 0)"/>
      <use xlink:href="#DejaVuSans-65" transform="translate(353.804688 0)"/>
      <use xlink:href="#DejaVuSans-72" transform="translate(415.328125 0)"/>
      <use xlink:href="#DejaVuSans-67" transform="translate(454.691406 0)"/>
      <use xlink:href="#DejaVuSans-79" transform="translate(518.167969 0)"/>
      <use xlink:href="#DejaVuSans-20" transform="translate(577.347656 0)"/>
      <use xlink:href="#DejaVuSans-28" transform="translate(609.134766 0)"/>
      <use xlink:href="#DejaVuSans-6b" transform="translate(648.148438 0)"/>
      <use xlink:href="#DejaVuSans-54" transform="translate(706.058594 0)"/>
      <use xlink:href="#DejaVuSans-29" transform="translate(767.142578 0)"/>
     </g>
    </g>
   </g>
   <g id="line2d_12">
    <path d="M 40.603125 272.918573 
L 42.031605 290.132561 
L 43.460085 297.526333 
L 44.888565 300.753069 
L 46.317045 300.975983 
L 47.745525 300.038918 
L 49.174005 297.713404 
L 54.887925 285.413791 
L 56.316405 283.932598 
L 57.744885 283.358414 
L 59.173365 282.909769 
L 60.601845 281.890917 
L 62.030325 279.67522 
L 63.458805 276.457244 
L 64.887285 273.887796 
L 66.315765 272.446349 
L 67.744245 272.269628 
L 69.172725 272.659521 
L 70.601205 272.290008 
L 72.029685 272.229422 
L 73.458165 270.758761 
L 74.886645 268.989744 
L 77.743605 263.515271 
L 79.172085 260.117127 
L 80.600565 257.790198 
L 82.029045 256.278568 
L 83.457525 255.865683 
L 84.886005 255.153969 
L 86.314485 254.695789 
L 87.742965 255.183965 
L 89.171445 254.860782 
L 90.599925 255.22325 
L 92.028405 254.438986 
L 93.456885 253.801381 
L 94.885365 253.317939 
L 97.742325 251.684274 
L 99.170805 251.029304 
L 100.599285 250.064207 
L 102.027765 249.873303 
L 103.456245 249.348221 
L 104.884725 249.249097 
L 106.313205 247.793243 
L 107.741685 247.484427 
L 109.170165 246.830031 
L 110.598645 246.479441 
L 112.027125 245.858331 
L 113.455605 245.974576 
L 114.884085 245.062215 
L 116.312565 244.870037 
L 117.741045 244.228657 
L 119.169525 243.407401 
L 120.598005 243.050311 
L 122.026485 241.862004 
L 123.454965 241.419784 
L 124.883445 240.253033 
L 126.311925 238.803205 
L 129.168885 237.516508 
L 130.597365 235.692383 
L 132.025845 235.264122 
L 133.454325 233.651308 
L 134.882805 230.869197 
L 136.311285 228.499969 
L 137.739765 226.534849 
L 139.168245 226.045253 
L 140.596725 224.373014 
L 142.025205 223.836994 
L 143.453685 222.063493 
L 144.882165 221.740866 
L 146.310645 221.860393 
L 147.739125 221.081629 
L 149.167605 221.795466 
L 150.596085 222.979507 
L 152.024565 222.812821 
L 153.453045 223.590062 
L 154.881525 223.554378 
L 156.310005 222.907346 
L 157.738485 222.106659 
L 159.166965 221.683897 
L 162.023925 218.491571 
L 163.452405 216.608178 
L 164.880885 215.439036 
L 166.309365 214.441353 
L 167.737845 213.014705 
L 169.166325 212.336692 
L 170.594805 210.988888 
L 172.023285 210.959325 
L 173.451765 209.507806 
L 174.880245 208.805576 
L 176.308725 206.32884 
L 177.737205 205.88088 
L 179.165685 202.643946 
L 180.594165 201.499493 
L 182.022645 198.763386 
L 184.879605 195.255977 
L 187.736565 190.364452 
L 189.165045 187.302615 
L 190.593525 186.400833 
L 192.022005 184.725001 
L 193.450485 182.123363 
L 194.878965 181.055063 
L 196.307445 180.804341 
L 197.735925 180.756015 
L 200.592885 179.404121 
L 202.021365 179.017864 
L 204.878325 180.171895 
L 206.306805 180.550382 
L 207.735285 180.369074 
L 209.163765 180.92343 
L 210.592245 180.423237 
L 212.020725 179.257176 
L 213.449205 180.12635 
L 214.877685 179.656037 
L 216.306165 178.251072 
L 217.734645 178.372822 
L 219.163125 177.212801 
L 220.591605 175.762587 
L 222.020085 173.941143 
L 223.448565 172.313441 
L 224.877045 170.110721 
L 226.305525 168.343229 
L 227.734005 167.484231 
L 230.590965 162.479146 
L 233.447925 157.943114 
L 234.876405 156.854223 
L 236.304885 155.38828 
L 237.733365 152.953612 
L 239.161845 152.007618 
L 240.590325 152.395119 
L 242.018805 151.768752 
L 243.447285 150.97858 
L 244.875765 151.100159 
L 246.304245 149.787045 
L 247.732725 149.223087 
L 249.161205 146.546625 
L 250.589685 146.462196 
L 252.018165 144.004281 
L 253.446645 142.897735 
L 254.875125 139.990201 
L 256.303605 138.175052 
L 257.732085 138.509656 
L 259.160565 136.665147 
L 260.589045 136.371685 
L 262.017525 132.87823 
L 263.446005 133.850261 
L 266.302965 133.673573 
L 267.731445 133.721255 
L 269.159925 130.966244 
L 270.588405 133.282593 
L 272.016885 128.134732 
L 273.445365 130.709641 
L 274.873845 129.050879 
L 276.302325 129.32669 
L 277.730805 129.407831 
L 279.159285 128.2024 
L 280.587765 129.334319 
L 282.016245 128.701513 
L 283.444725 129.795685 
L 284.873205 127.260896 
L 286.301685 131.982494 
L 287.730165 131.989733 
L 289.158645 134.117442 
L 290.587125 131.960862 
L 292.015605 134.033568 
L 294.872565 131.34597 
L 296.301045 132.787333 
L 297.729525 132.068765 
L 299.158005 132.276317 
L 300.586485 130.624838 
L 302.014965 133.044485 
L 303.443445 132.400705 
L 304.871925 133.780571 
L 306.300405 131.996188 
L 307.728885 128.900506 
L 309.157365 128.632186 
L 310.585845 129.142526 
L 312.014325 129.305161 
L 313.442805 128.498769 
L 314.871285 124.076187 
L 316.299765 125.019905 
L 317.728245 122.189292 
L 319.156725 121.254335 
L 320.585205 118.297229 
L 322.013685 120.106888 
L 323.442165 115.760543 
L 324.870645 110.406598 
L 326.299125 110.06879 
L 327.727605 112.043202 
L 329.156085 113.073126 
L 332.013045 111.007786 
L 333.441525 104.831563 
L 334.870005 111.699235 
L 336.298485 108.464106 
L 337.726965 107.572436 
L 339.155445 105.430948 
L 340.583925 99.83101 
L 342.012405 106.474651 
L 343.440885 105.492787 
L 344.869365 101.609746 
L 346.297845 94.800967 
L 347.726325 82.600569 
L 349.154805 86.530278 
L 350.583285 85.949211 
L 352.011765 79.777053 
L 353.440245 71.632184 
L 356.297205 69.21958 
L 356.297205 69.21958 
" clip-path="url(#p696c18912a)" style="fill: none; stroke: #0000ff; stroke-width: 1.5; stroke-linecap: square"/>
   </g>
   <g id="line2d_13">
    <path d="M 40.603125 268.551969 
L 42.031605 287.894407 
L 43.460085 296.744417 
L 44.888565 300.71987 
L 46.317045 301.756148 
L 47.745525 299.760144 
L 49.174005 295.643377 
L 52.030965 284.943561 
L 53.459445 281.388668 
L 54.887925 279.933073 
L 56.316405 280.455687 
L 57.744885 281.670863 
L 59.173365 281.675878 
L 60.601845 281.261739 
L 63.458805 278.560108 
L 64.887285 277.286127 
L 66.315765 276.781418 
L 67.744245 277.476205 
L 69.172725 277.955709 
L 70.601205 278.001609 
L 72.029685 278.234518 
L 73.458165 277.700389 
L 74.886645 276.151426 
L 76.315125 274.134041 
L 77.743605 271.620617 
L 80.600565 266.037351 
L 82.029045 262.267151 
L 83.457525 260.202153 
L 84.886005 257.778441 
L 86.314485 258.687592 
L 87.742965 258.141471 
L 89.171445 258.42342 
L 90.599925 259.277639 
L 92.028405 260.302966 
L 93.456885 260.786601 
L 96.313845 262.057427 
L 97.742325 262.164873 
L 99.170805 261.750181 
L 100.599285 261.089291 
L 102.027765 260.824836 
L 103.456245 260.103382 
L 104.884725 259.775174 
L 106.313205 260.291884 
L 107.741685 259.21788 
L 109.170165 259.731147 
L 110.598645 260.405935 
L 112.027125 260.541022 
L 113.455605 260.150778 
L 114.884085 261.735829 
L 116.312565 261.913953 
L 117.741045 262.230464 
L 119.169525 261.187645 
L 120.598005 260.850866 
L 122.026485 259.548191 
L 123.454965 260.062183 
L 124.883445 259.024794 
L 126.311925 258.374625 
L 127.740405 258.770807 
L 129.168885 258.739939 
L 130.597365 259.159828 
L 132.025845 258.394591 
L 134.882805 256.403617 
L 136.311285 255.281247 
L 137.739765 252.685914 
L 139.168245 250.494346 
L 140.596725 248.835886 
L 142.025205 244.562838 
L 143.453685 240.907943 
L 144.882165 234.964661 
L 146.310645 233.758072 
L 147.739125 233.055157 
L 149.167605 234.069065 
L 150.596085 232.846543 
L 152.024565 234.007145 
L 153.453045 235.61257 
L 154.881525 235.472864 
L 156.310005 234.382977 
L 157.738485 237.534239 
L 159.166965 237.658699 
L 160.595445 238.648333 
L 163.452405 239.795303 
L 164.880885 239.514663 
L 166.309365 239.700273 
L 167.737845 239.664077 
L 169.166325 238.932535 
L 170.594805 237.691929 
L 172.023285 235.981443 
L 173.451765 235.318414 
L 174.880245 234.343913 
L 176.308725 232.354327 
L 177.737205 229.618619 
L 179.165685 228.639798 
L 180.594165 226.252266 
L 182.022645 223.575198 
L 183.451125 222.184151 
L 184.879605 220.113764 
L 186.308085 218.841126 
L 187.736565 216.44877 
L 189.165045 214.724989 
L 190.593525 214.515975 
L 192.022005 211.67169 
L 194.878965 211.702836 
L 196.307445 209.79864 
L 197.735925 209.355148 
L 199.164405 206.51222 
L 200.592885 206.218986 
L 202.021365 204.929764 
L 203.449845 204.411649 
L 204.878325 203.079054 
L 206.306805 203.115069 
L 207.735285 202.602002 
L 209.163765 201.047712 
L 210.592245 199.751688 
L 212.020725 199.867811 
L 213.449205 198.949726 
L 214.877685 198.583059 
L 216.306165 199.782691 
L 217.734645 200.100468 
L 220.591605 199.92453 
L 222.020085 199.13021 
L 223.448565 199.589663 
L 224.877045 197.756649 
L 226.305525 197.753054 
L 227.734005 196.075986 
L 229.162485 194.857669 
L 230.590965 194.471874 
L 232.019445 192.936676 
L 233.447925 192.018384 
L 234.876405 190.15351 
L 236.304885 190.537951 
L 237.733365 187.762317 
L 239.161845 187.609491 
L 240.590325 188.390322 
L 242.018805 187.137949 
L 243.447285 186.339777 
L 244.875765 187.45986 
L 246.304245 187.505352 
L 247.732725 187.090249 
L 249.161205 187.190207 
L 250.589685 187.140364 
L 253.446645 183.423665 
L 254.875125 183.058184 
L 256.303605 180.831808 
L 257.732085 181.212509 
L 259.160565 178.082117 
L 260.589045 177.474027 
L 262.017525 176.530952 
L 263.446005 174.672458 
L 264.874485 175.437872 
L 266.302965 174.696041 
L 267.731445 172.649202 
L 269.159925 176.443724 
L 270.588405 173.561612 
L 272.016885 174.860567 
L 273.445365 175.869883 
L 274.873845 174.837125 
L 276.302325 174.269437 
L 277.730805 174.303881 
L 279.159285 173.581941 
L 280.587765 172.292358 
L 282.016245 173.483498 
L 283.444725 170.23696 
L 284.873205 171.262765 
L 286.301685 170.603629 
L 287.730165 169.407603 
L 289.158645 168.805999 
L 290.587125 169.225438 
L 292.015605 168.19791 
L 293.444085 166.408532 
L 294.872565 165.990582 
L 296.301045 166.278621 
L 297.729525 164.414128 
L 299.158005 166.102773 
L 300.586485 166.125083 
L 302.014965 164.38795 
L 303.443445 163.74791 
L 306.300405 163.216088 
L 307.728885 160.993543 
L 309.157365 163.807007 
L 310.585845 162.629981 
L 312.014325 162.380036 
L 313.442805 161.539951 
L 314.871285 161.338843 
L 316.299765 158.826632 
L 317.728245 158.980389 
L 319.156725 158.797272 
L 320.585205 156.771898 
L 322.013685 156.84114 
L 323.442165 155.707605 
L 324.870645 155.269757 
L 326.299125 153.785483 
L 327.727605 152.733225 
L 329.156085 150.283833 
L 330.584565 151.601439 
L 333.441525 148.457851 
L 334.870005 145.996268 
L 336.298485 144.599229 
L 337.726965 141.109574 
L 339.155445 139.504378 
L 340.583925 136.515818 
L 342.012405 131.804255 
L 343.440885 130.973291 
L 344.869365 127.593106 
L 346.297845 125.795007 
L 347.726325 112.401661 
L 349.154805 114.501323 
L 350.583285 99.181683 
L 353.440245 103.800272 
L 354.868725 105.532921 
L 354.868725 105.532921 
" clip-path="url(#p696c18912a)" style="fill: none; stroke: #00ffff; stroke-width: 1.5; stroke-linecap: square"/>
   </g>
   <g id="line2d_14">
    <path d="M 40.603125 271.663373 
L 42.031605 290.545032 
L 43.460085 298.876014 
L 44.888565 302.210952 
L 46.317045 303.208875 
L 47.745525 301.862831 
L 49.174005 299.666649 
L 50.602485 296.154949 
L 52.030965 291.943007 
L 53.459445 287.369689 
L 54.887925 282.129279 
L 57.744885 274.957536 
L 59.173365 271.033688 
L 60.601845 265.554131 
L 62.030325 260.756717 
L 63.458805 256.434789 
L 64.887285 254.33026 
L 66.315765 252.896298 
L 67.744245 252.432801 
L 69.172725 252.63127 
L 70.601205 253.95007 
L 72.029685 253.379241 
L 73.458165 253.718509 
L 74.886645 252.891241 
L 76.315125 253.065215 
L 77.743605 251.186201 
L 80.600565 251.752017 
L 82.029045 252.914864 
L 83.457525 253.267999 
L 84.886005 254.251391 
L 86.314485 254.862669 
L 87.742965 255.685367 
L 89.171445 255.209861 
L 90.599925 254.269691 
L 93.456885 252.17118 
L 94.885365 251.764271 
L 96.313845 250.577094 
L 97.742325 249.916946 
L 99.170805 248.73371 
L 100.599285 250.083988 
L 102.027765 248.937307 
L 103.456245 248.511779 
L 104.884725 250.113604 
L 106.313205 248.957542 
L 107.741685 249.726301 
L 109.170165 250.331957 
L 110.598645 251.143231 
L 112.027125 250.402296 
L 113.455605 250.449062 
L 114.884085 249.811738 
L 116.312565 248.999349 
L 117.741045 249.107449 
L 119.169525 248.280909 
L 120.598005 248.649766 
L 122.026485 249.527355 
L 123.454965 249.373765 
L 124.883445 248.86498 
L 127.740405 248.203424 
L 129.168885 247.242645 
L 130.597365 247.275273 
L 133.454325 244.58722 
L 134.882805 242.573033 
L 136.311285 245.679597 
L 137.739765 242.30307 
L 139.168245 244.189969 
L 140.596725 243.904222 
L 142.025205 245.012692 
L 143.453685 247.307382 
L 146.310645 250.277739 
L 149.167605 255.506309 
L 150.596085 255.831318 
L 152.024565 255.506904 
L 153.453045 255.067231 
L 154.881525 252.941208 
L 156.310005 252.363233 
L 157.738485 249.039435 
L 159.166965 244.829394 
L 162.023925 237.733305 
L 163.452405 236.733456 
L 164.880885 234.837895 
L 166.309365 232.417966 
L 167.737845 232.067479 
L 169.166325 231.54521 
L 170.594805 230.404374 
L 172.023285 229.923803 
L 173.451765 226.811021 
L 174.880245 226.274556 
L 176.308725 221.993764 
L 177.737205 220.662245 
L 179.165685 218.885753 
L 180.594165 218.118979 
L 183.451125 215.141321 
L 184.879605 215.35236 
L 186.308085 213.389516 
L 187.736565 213.575335 
L 189.165045 212.979337 
L 190.593525 211.035038 
L 192.022005 209.820396 
L 193.450485 209.276132 
L 194.878965 207.00503 
L 199.164405 199.076804 
L 200.592885 196.251937 
L 202.021365 193.055705 
L 203.449845 188.513008 
L 206.306805 180.832019 
L 207.735285 178.795675 
L 209.163765 172.607894 
L 210.592245 169.477535 
L 212.020725 169.960903 
L 213.449205 165.330729 
L 214.877685 164.214375 
L 216.306165 165.344868 
L 217.734645 161.146479 
L 219.163125 160.593925 
L 222.020085 157.62783 
L 223.448565 155.926483 
L 224.877045 153.798418 
L 226.305525 153.754477 
L 227.734005 151.225923 
L 229.162485 149.218327 
L 232.019445 141.742211 
L 233.447925 140.437527 
L 234.876405 141.403779 
L 236.304885 135.788433 
L 237.733365 132.193284 
L 239.161845 134.050569 
L 240.590325 133.273117 
L 242.018805 130.172573 
L 244.875765 129.450779 
L 246.304245 128.91066 
L 247.732725 126.190004 
L 249.161205 127.626365 
L 250.589685 127.329342 
L 252.018165 123.51198 
L 253.446645 125.319941 
L 254.875125 124.609979 
L 256.303605 123.213748 
L 257.732085 120.426393 
L 259.160565 123.297557 
L 260.589045 119.924174 
L 262.017525 122.185887 
L 263.446005 119.076535 
L 264.874485 121.457226 
L 266.302965 116.32506 
L 267.731445 116.231204 
L 269.159925 114.004605 
L 270.588405 112.287256 
L 272.016885 116.976571 
L 273.445365 110.9412 
L 274.873845 115.352654 
L 276.302325 117.094923 
L 277.730805 112.054977 
L 279.159285 113.010488 
L 280.587765 115.495551 
L 282.016245 117.192547 
L 283.444725 118.205184 
L 284.873205 113.745573 
L 286.301685 113.769646 
L 287.730165 109.64048 
L 289.158645 111.956712 
L 290.587125 111.667133 
L 292.015605 111.262787 
L 293.444085 111.012459 
L 294.872565 102.554969 
L 296.301045 109.523246 
L 297.729525 107.357634 
L 299.158005 105.699989 
L 300.586485 106.154287 
L 302.014965 105.853976 
L 303.443445 103.541239 
L 304.871925 104.469697 
L 306.300405 101.563765 
L 307.728885 105.871758 
L 309.157365 103.567935 
L 310.585845 104.458472 
L 312.014325 102.837146 
L 313.442805 99.508574 
L 314.871285 98.515788 
L 316.299765 102.014254 
L 317.728245 93.961752 
L 319.156725 97.463742 
L 320.585205 92.884395 
L 322.013685 96.389825 
L 323.442165 97.557017 
L 324.870645 93.150668 
L 326.299125 92.654227 
L 327.727605 91.031772 
L 329.156085 92.130317 
L 330.584565 91.074238 
L 332.013045 90.463464 
L 333.441525 78.815894 
L 334.870005 90.857071 
L 336.298485 80.161703 
L 337.726965 85.191634 
L 339.155445 86.00242 
L 340.583925 78.873087 
L 342.012405 76.076909 
L 343.440885 68.27502 
L 344.869365 81.394526 
L 346.297845 79.672439 
L 347.726325 62.048697 
L 349.154805 61.288875 
L 350.583285 78.224066 
L 352.011765 66.670797 
L 353.440245 71.184428 
L 354.868725 84.74758 
L 356.297205 65.037963 
L 357.725685 82.160911 
L 359.154165 67.547711 
L 360.582645 74.693804 
L 360.582645 74.693804 
" clip-path="url(#p696c18912a)" style="fill: none; stroke: #ff0000; stroke-width: 1.5; stroke-linecap: square"/>
   </g>
   <g id="line2d_15">
    <path d="M 40.603125 252.288452 
L 42.031605 273.45847 
L 43.460085 282.328383 
L 44.888565 286.821049 
L 47.745525 293.108251 
L 50.602485 297.181702 
L 52.030965 298.497296 
L 53.459445 298.937217 
L 54.887925 298.597039 
L 56.316405 296.977775 
L 57.744885 294.178481 
L 59.173365 290.387448 
L 63.458805 275.820875 
L 64.887285 273.193026 
L 67.744245 272.500824 
L 69.172725 272.667708 
L 70.601205 272.102615 
L 72.029685 270.625753 
L 73.458165 268.964635 
L 76.315125 265.046752 
L 79.172085 261.623108 
L 80.600565 260.598796 
L 82.029045 260.09052 
L 83.457525 258.836292 
L 84.886005 258.483252 
L 86.314485 257.886986 
L 87.742965 257.879658 
L 89.171445 256.761483 
L 90.599925 256.45245 
L 92.028405 257.168073 
L 93.456885 257.746582 
L 94.885365 257.747799 
L 96.313845 258.746213 
L 97.742325 257.895016 
L 99.170805 258.041182 
L 100.599285 259.124033 
L 102.027765 259.521079 
L 103.456245 258.494852 
L 104.884725 258.970326 
L 106.313205 258.405122 
L 107.741685 258.6827 
L 109.170165 258.159879 
L 110.598645 257.957825 
L 112.027125 257.926577 
L 113.455605 257.363107 
L 114.884085 256.163974 
L 116.312565 255.269081 
L 117.741045 253.671469 
L 119.169525 252.452406 
L 120.598005 251.559296 
L 122.026485 249.744827 
L 124.883445 245.386921 
L 127.740405 242.439217 
L 129.168885 239.60282 
L 130.597365 237.429729 
L 132.025845 235.773761 
L 133.454325 234.29339 
L 134.882805 231.083643 
L 136.311285 230.146164 
L 137.739765 227.450224 
L 139.168245 225.671145 
L 140.596725 224.159785 
L 142.025205 222.371982 
L 143.453685 220.996716 
L 146.310645 218.905458 
L 147.739125 218.891511 
L 149.167605 216.846645 
L 150.596085 216.26876 
L 152.024565 214.937352 
L 153.453045 213.309399 
L 154.881525 213.450105 
L 156.310005 213.013617 
L 159.166965 210.805803 
L 160.595445 211.890571 
L 162.023925 212.228234 
L 163.452405 210.916705 
L 164.880885 211.326981 
L 166.309365 211.174403 
L 167.737845 210.822098 
L 169.166325 209.420811 
L 170.594805 209.742239 
L 172.023285 207.690081 
L 173.451765 205.96148 
L 176.308725 201.398835 
L 177.737205 199.965973 
L 179.165685 198.236267 
L 180.594165 196.940975 
L 182.022645 195.081837 
L 183.451125 196.491037 
L 184.879605 194.27076 
L 186.308085 194.830758 
L 187.736565 194.386385 
L 189.165045 193.362873 
L 190.593525 193.190847 
L 192.022005 191.741738 
L 193.450485 191.097485 
L 194.878965 189.204565 
L 196.307445 189.280384 
L 197.735925 188.660258 
L 199.164405 187.247626 
L 200.592885 188.549527 
L 202.021365 187.275925 
L 204.878325 187.583043 
L 206.306805 187.115939 
L 207.735285 189.421487 
L 210.592245 187.831062 
L 212.020725 188.747634 
L 213.449205 188.779191 
L 216.306165 186.804925 
L 217.734645 186.928886 
L 219.163125 185.647003 
L 220.591605 185.344443 
L 223.448565 183.154572 
L 224.877045 183.7753 
L 226.305525 182.778431 
L 229.162485 181.721693 
L 230.590965 181.765532 
L 232.019445 180.522398 
L 233.447925 179.461062 
L 234.876405 180.106999 
L 236.304885 176.997078 
L 237.733365 177.357495 
L 239.161845 175.585183 
L 240.590325 175.546191 
L 242.018805 174.072807 
L 243.447285 173.862052 
L 246.304245 172.860245 
L 247.732725 171.162732 
L 249.161205 170.968381 
L 250.589685 168.773513 
L 252.018165 168.511836 
L 253.446645 169.28638 
L 254.875125 167.817389 
L 256.303605 166.867944 
L 257.732085 165.682437 
L 259.160565 163.645965 
L 260.589045 163.57299 
L 262.017525 162.352562 
L 263.446005 163.275277 
L 264.874485 161.076278 
L 266.302965 161.469694 
L 267.731445 160.374338 
L 269.159925 159.639569 
L 270.588405 159.988611 
L 272.016885 158.807207 
L 273.445365 156.748884 
L 274.873845 156.192406 
L 276.302325 154.579143 
L 277.730805 156.234914 
L 279.159285 152.495024 
L 280.587765 153.365122 
L 282.016245 153.488598 
L 283.444725 155.99161 
L 284.873205 155.589824 
L 286.301685 154.282649 
L 287.730165 152.347571 
L 289.158645 152.992815 
L 290.587125 153.075125 
L 292.015605 151.657643 
L 293.444085 152.1822 
L 294.872565 150.957401 
L 296.301045 150.977925 
L 297.729525 148.786009 
L 299.158005 149.269884 
L 300.586485 148.76605 
L 302.014965 146.43266 
L 303.443445 146.861674 
L 304.871925 148.286729 
L 306.300405 146.881976 
L 307.728885 147.002953 
L 309.157365 144.037252 
L 310.585845 144.926139 
L 312.014325 141.576829 
L 314.871285 140.751224 
L 316.299765 138.882657 
L 317.728245 141.180872 
L 319.156725 140.051479 
L 320.585205 139.413698 
L 322.013685 140.207692 
L 323.442165 139.50823 
L 324.870645 137.439873 
L 326.299125 138.077249 
L 327.727605 137.301066 
L 329.156085 137.957923 
L 330.584565 135.073957 
L 332.013045 134.616406 
L 333.441525 135.754505 
L 334.870005 135.279042 
L 336.298485 132.704477 
L 337.726965 132.666589 
L 339.155445 130.69 
L 340.583925 130.416563 
L 342.012405 130.023071 
L 343.440885 129.118924 
L 344.869365 127.679681 
L 346.297845 130.430412 
L 347.726325 126.052459 
L 349.154805 125.100069 
L 350.583285 126.980368 
L 352.011765 126.150099 
L 353.440245 122.211057 
L 354.868725 122.55435 
L 356.297205 123.834298 
L 357.725685 121.415276 
L 359.154165 125.694321 
L 360.582645 119.821465 
L 362.011125 119.258616 
L 363.439605 126.297431 
L 364.868085 123.915945 
L 366.296565 123.11411 
L 367.725045 123.754298 
L 369.153525 122.541949 
L 370.582005 122.329095 
L 373.438965 116.15887 
L 374.867445 102.087526 
L 376.295925 112.449743 
L 377.724405 109.960749 
L 379.152885 113.293027 
L 380.581365 98.819415 
L 382.009845 110.587964 
L 383.438325 105.381611 
L 384.866805 105.064528 
L 387.723765 98.275629 
L 390.580725 105.118247 
L 390.580725 105.118247 
" clip-path="url(#p696c18912a)" style="fill: none; stroke: #ffa500; stroke-width: 1.5; stroke-linecap: square"/>
   </g>
   <g id="patch_3">
    <path d="M 40.603125 315.304875 
L 40.603125 49.192875 
" style="fill: none; stroke: #000000; stroke-width: 0.8; stroke-linejoin: miter; stroke-linecap: square"/>
   </g>
   <g id="patch_4">
    <path d="M 397.723125 315.304875 
L 397.723125 49.192875 
" style="fill: none; stroke: #000000; stroke-width: 0.8; stroke-linejoin: miter; stroke-linecap: square"/>
   </g>
   <g id="patch_5">
    <path d="M 40.603125 315.304875 
L 397.723125 315.304875 
" style="fill: none; stroke: #000000; stroke-width: 0.8; stroke-linejoin: miter; stroke-linecap: square"/>
   </g>
   <g id="patch_6">
    <path d="M 40.603125 49.192875 
L 397.723125 49.192875 
" style="fill: none; stroke: #000000; stroke-width: 0.8; stroke-linejoin: miter; stroke-linecap: square"/>
   </g>
   <g id="text_14">
    <!-- Reweighted GLPG1837 amide -->
    <g transform="translate(129.81 16.318125) scale(0.12 -0.12)">
     <defs>
      <path id="DejaVuSans-52" d="M 2841 2188 
Q 3044 2119 3236 1894 
Q 3428 1669 3622 1275 
L 4263 0 
L 3584 0 
L 2988 1197 
Q 2756 1666 2539 1819 
Q 2322 1972 1947 1972 
L 1259 1972 
L 1259 0 
L 628 0 
L 628 4666 
L 2053 4666 
Q 2853 4666 3247 4331 
Q 3641 3997 3641 3322 
Q 3641 2881 3436 2590 
Q 3231 2300 2841 2188 
z
M 1259 4147 
L 1259 2491 
L 2053 2491 
Q 2509 2491 2742 2702 
Q 2975 2913 2975 3322 
Q 2975 3731 2742 3939 
Q 2509 4147 2053 4147 
L 1259 4147 
z
" transform="scale(0.015625)"/>
      <path id="DejaVuSans-77" d="M 269 3500 
L 844 3500 
L 1563 769 
L 2278 3500 
L 2956 3500 
L 3675 769 
L 4391 3500 
L 4966 3500 
L 4050 0 
L 3372 0 
L 2619 2869 
L 1863 0 
L 1184 0 
L 269 3500 
z
" transform="scale(0.015625)"/>
      <path id="DejaVuSans-68" d="M 3513 2113 
L 3513 0 
L 2938 0 
L 2938 2094 
Q 2938 2591 2744 2837 
Q 2550 3084 2163 3084 
Q 1697 3084 1428 2787 
Q 1159 2491 1159 1978 
L 1159 0 
L 581 0 
L 581 4863 
L 1159 4863 
L 1159 2956 
Q 1366 3272 1645 3428 
Q 1925 3584 2291 3584 
Q 2894 3584 3203 3211 
Q 3513 2838 3513 2113 
z
" transform="scale(0.015625)"/>
      <path id="DejaVuSans-47" d="M 3809 666 
L 3809 1919 
L 2778 1919 
L 2778 2438 
L 4434 2438 
L 4434 434 
Q 4069 175 3628 42 
Q 3188 -91 2688 -91 
Q 1594 -91 976 548 
Q 359 1188 359 2328 
Q 359 3472 976 4111 
Q 1594 4750 2688 4750 
Q 3144 4750 3555 4637 
Q 3966 4525 4313 4306 
L 4313 3634 
Q 3963 3931 3569 4081 
Q 3175 4231 2741 4231 
Q 1884 4231 1454 3753 
Q 1025 3275 1025 2328 
Q 1025 1384 1454 906 
Q 1884 428 2741 428 
Q 3075 428 3337 486 
Q 3600 544 3809 666 
z
" transform="scale(0.015625)"/>
      <path id="DejaVuSans-4c" d="M 628 4666 
L 1259 4666 
L 1259 531 
L 3531 531 
L 3531 0 
L 628 0 
L 628 4666 
z
" transform="scale(0.015625)"/>
      <path id="DejaVuSans-50" d="M 1259 4147 
L 1259 2394 
L 2053 2394 
Q 2494 2394 2734 2622 
Q 2975 2850 2975 3272 
Q 2975 3691 2734 3919 
Q 2494 4147 2053 4147 
L 1259 4147 
z
M 628 4666 
L 2053 4666 
Q 2838 4666 3239 4311 
Q 3641 3956 3641 3272 
Q 3641 2581 3239 2228 
Q 2838 1875 2053 1875 
L 1259 1875 
L 1259 0 
L 628 0 
L 628 4666 
z
" transform="scale(0.015625)"/>
      <path id="DejaVuSans-38" d="M 2034 2216 
Q 1584 2216 1326 1975 
Q 1069 1734 1069 1313 
Q 1069 891 1326 650 
Q 1584 409 2034 409 
Q 2484 409 2743 651 
Q 3003 894 3003 1313 
Q 3003 1734 2745 1975 
Q 2488 2216 2034 2216 
z
M 1403 2484 
Q 997 2584 770 2862 
Q 544 3141 544 3541 
Q 544 4100 942 4425 
Q 1341 4750 2034 4750 
Q 2731 4750 3128 4425 
Q 3525 4100 3525 3541 
Q 3525 3141 3298 2862 
Q 3072 2584 2669 2484 
Q 3125 2378 3379 2068 
Q 3634 1759 3634 1313 
Q 3634 634 3220 271 
Q 2806 -91 2034 -91 
Q 1263 -91 848 271 
Q 434 634 434 1313 
Q 434 1759 690 2068 
Q 947 2378 1403 2484 
z
M 1172 3481 
Q 1172 3119 1398 2916 
Q 1625 2713 2034 2713 
Q 2441 2713 2670 2916 
Q 2900 3119 2900 3481 
Q 2900 3844 2670 4047 
Q 2441 4250 2034 4250 
Q 1625 4250 1398 4047 
Q 1172 3844 1172 3481 
z
" transform="scale(0.015625)"/>
      <path id="DejaVuSans-37" d="M 525 4666 
L 3525 4666 
L 3525 4397 
L 1831 0 
L 1172 0 
L 2766 4134 
L 525 4134 
L 525 4666 
z
" transform="scale(0.015625)"/>
     </defs>
     <use xlink:href="#DejaVuSans-52"/>
     <use xlink:href="#DejaVuSans-65" transform="translate(64.982422 0)"/>
     <use xlink:href="#DejaVuSans-77" transform="translate(126.505859 0)"/>
     <use xlink:href="#DejaVuSans-65" transform="translate(208.292969 0)"/>
     <use xlink:href="#DejaVuSans-69" transform="translate(269.816406 0)"/>
     <use xlink:href="#DejaVuSans-67" transform="translate(297.599609 0)"/>
     <use xlink:href="#DejaVuSans-68" transform="translate(361.076172 0)"/>
     <use xlink:href="#DejaVuSans-74" transform="translate(424.455078 0)"/>
     <use xlink:href="#DejaVuSans-65" transform="translate(463.664062 0)"/>
     <use xlink:href="#DejaVuSans-64" transform="translate(525.1875 0)"/>
     <use xlink:href="#DejaVuSans-20" transform="translate(588.664062 0)"/>
     <use xlink:href="#DejaVuSans-47" transform="translate(620.451172 0)"/>
     <use xlink:href="#DejaVuSans-4c" transform="translate(697.941406 0)"/>
     <use xlink:href="#DejaVuSans-50" transform="translate(753.654297 0)"/>
     <use xlink:href="#DejaVuSans-47" transform="translate(813.957031 0)"/>
     <use xlink:href="#DejaVuSans-31" transform="translate(891.447266 0)"/>
     <use xlink:href="#DejaVuSans-38" transform="translate(955.070312 0)"/>
     <use xlink:href="#DejaVuSans-33" transform="translate(1018.693359 0)"/>
     <use xlink:href="#DejaVuSans-37" transform="translate(1082.316406 0)"/>
     <use xlink:href="#DejaVuSans-20" transform="translate(1145.939453 0)"/>
     <use xlink:href="#DejaVuSans-61" transform="translate(1177.726562 0)"/>
     <use xlink:href="#DejaVuSans-6d" transform="translate(1239.005859 0)"/>
     <use xlink:href="#DejaVuSans-69" transform="translate(1336.417969 0)"/>
     <use xlink:href="#DejaVuSans-64" transform="translate(1364.201172 0)"/>
     <use xlink:href="#DejaVuSans-65" transform="translate(1427.677734 0)"/>
    </g>
    <!-- derivative dissociation energy: -->
    <g transform="translate(127.19625 29.7555) scale(0.12 -0.12)">
     <defs>
      <path id="DejaVuSans-76" d="M 191 3500 
L 800 3500 
L 1894 563 
L 2988 3500 
L 3597 3500 
L 2284 0 
L 1503 0 
L 191 3500 
z
" transform="scale(0.015625)"/>
      <path id="DejaVuSans-3a" d="M 750 794 
L 1409 794 
L 1409 0 
L 750 0 
L 750 794 
z
M 750 3309 
L 1409 3309 
L 1409 2516 
L 750 2516 
L 750 3309 
z
" transform="scale(0.015625)"/>
     </defs>
     <use xlink:href="#DejaVuSans-64"/>
     <use xlink:href="#DejaVuSans-65" transform="translate(63.476562 0)"/>
     <use xlink:href="#DejaVuSans-72" transform="translate(125 0)"/>
     <use xlink:href="#DejaVuSans-69" transform="translate(166.113281 0)"/>
     <use xlink:href="#DejaVuSans-76" transform="translate(193.896484 0)"/>
     <use xlink:href="#DejaVuSans-61" transform="translate(253.076172 0)"/>
     <use xlink:href="#DejaVuSans-74" transform="translate(314.355469 0)"/>
     <use xlink:href="#DejaVuSans-69" transform="translate(353.564453 0)"/>
     <use xlink:href="#DejaVuSans-76" transform="translate(381.347656 0)"/>
     <use xlink:href="#DejaVuSans-65" transform="translate(440.527344 0)"/>
     <use xlink:href="#DejaVuSans-20" transform="translate(502.050781 0)"/>
     <use xlink:href="#DejaVuSans-64" transform="translate(533.837891 0)"/>
     <use xlink:href="#DejaVuSans-69" transform="translate(597.314453 0)"/>
     <use xlink:href="#DejaVuSans-73" transform="translate(625.097656 0)"/>
     <use xlink:href="#DejaVuSans-73" transform="translate(677.197266 0)"/>
     <use xlink:href="#DejaVuSans-6f" transform="translate(729.296875 0)"/>
     <use xlink:href="#DejaVuSans-63" transform="translate(790.478516 0)"/>
     <use xlink:href="#DejaVuSans-69" transform="translate(845.458984 0)"/>
     <use xlink:href="#DejaVuSans-61" transform="translate(873.242188 0)"/>
     <use xlink:href="#DejaVuSans-74" transform="translate(934.521484 0)"/>
     <use xlink:href="#DejaVuSans-69" transform="translate(973.730469 0)"/>
     <use xlink:href="#DejaVuSans-6f" transform="translate(1001.513672 0)"/>
     <use xlink:href="#DejaVuSans-6e" transform="translate(1062.695312 0)"/>
     <use xlink:href="#DejaVuSans-20" transform="translate(1126.074219 0)"/>
     <use xlink:href="#DejaVuSans-65" transform="translate(1157.861328 0)"/>
     <use xlink:href="#DejaVuSans-6e" transform="translate(1219.384766 0)"/>
     <use xlink:href="#DejaVuSans-65" transform="translate(1282.763672 0)"/>
     <use xlink:href="#DejaVuSans-72" transform="translate(1344.287109 0)"/>
     <use xlink:href="#DejaVuSans-67" transform="translate(1383.650391 0)"/>
     <use xlink:href="#DejaVuSans-79" transform="translate(1447.126953 0)"/>
     <use xlink:href="#DejaVuSans-3a" transform="translate(1499.056641 0)"/>
    </g>
    <!-- equal-weight transitions -->
    <g transform="translate(146.505938 43.192875) scale(0.12 -0.12)">
     <defs>
      <path id="DejaVuSans-71" d="M 947 1747 
Q 947 1113 1208 752 
Q 1469 391 1925 391 
Q 2381 391 2643 752 
Q 2906 1113 2906 1747 
Q 2906 2381 2643 2742 
Q 2381 3103 1925 3103 
Q 1469 3103 1208 2742 
Q 947 2381 947 1747 
z
M 2906 525 
Q 2725 213 2448 61 
Q 2172 -91 1784 -91 
Q 1150 -91 751 415 
Q 353 922 353 1747 
Q 353 2572 751 3078 
Q 1150 3584 1784 3584 
Q 2172 3584 2448 3432 
Q 2725 3281 2906 2969 
L 2906 3500 
L 3481 3500 
L 3481 -1331 
L 2906 -1331 
L 2906 525 
z
" transform="scale(0.015625)"/>
      <path id="DejaVuSans-2d" d="M 313 2009 
L 1997 2009 
L 1997 1497 
L 313 1497 
L 313 2009 
z
" transform="scale(0.015625)"/>
     </defs>
     <use xlink:href="#DejaVuSans-65"/>
     <use xlink:href="#DejaVuSans-71" transform="translate(61.523438 0)"/>
     <use xlink:href="#DejaVuSans-75" transform="translate(125 0)"/>
     <use xlink:href="#DejaVuSans-61" transform="translate(188.378906 0)"/>
     <use xlink:href="#DejaVuSans-6c" transform="translate(249.658203 0)"/>
     <use xlink:href="#DejaVuSans-2d" transform="translate(277.441406 0)"/>
     <use xlink:href="#DejaVuSans-77" transform="translate(313.525391 0)"/>
     <use xlink:href="#DejaVuSans-65" transform="translate(395.3125 0)"/>
     <use xlink:href="#DejaVuSans-69" transform="translate(456.835938 0)"/>
     <use xlink:href="#DejaVuSans-67" transform="translate(484.619141 0)"/>
     <use xlink:href="#DejaVuSans-68" transform="translate(548.095703 0)"/>
     <use xlink:href="#DejaVuSans-74" transform="translate(611.474609 0)"/>
     <use xlink:href="#DejaVuSans-20" transform="translate(650.683594 0)"/>
     <use xlink:href="#DejaVuSans-74" transform="translate(682.470703 0)"/>
     <use xlink:href="#DejaVuSans-72" transform="translate(721.679688 0)"/>
     <use xlink:href="#DejaVuSans-61" transform="translate(762.792969 0)"/>
     <use xlink:href="#DejaVuSans-6e" transform="translate(824.072266 0)"/>
     <use xlink:href="#DejaVuSans-73" transform="translate(887.451172 0)"/>
     <use xlink:href="#DejaVuSans-69" transform="translate(939.550781 0)"/>
     <use xlink:href="#DejaVuSans-74" transform="translate(967.333984 0)"/>
     <use xlink:href="#DejaVuSans-69" transform="translate(1006.542969 0)"/>
     <use xlink:href="#DejaVuSans-6f" transform="translate(1034.326172 0)"/>
     <use xlink:href="#DejaVuSans-6e" transform="translate(1095.507812 0)"/>
     <use xlink:href="#DejaVuSans-73" transform="translate(1158.886719 0)"/>
    </g>
   </g>
   <g id="legend_1">
    <g id="patch_7">
     <path d="M 47.603125 115.905375 
L 141.610938 115.905375 
Q 143.610938 115.905375 143.610938 113.905375 
L 143.610938 56.192875 
Q 143.610938 54.192875 141.610938 54.192875 
L 47.603125 54.192875 
Q 45.603125 54.192875 45.603125 56.192875 
L 45.603125 113.905375 
Q 45.603125 115.905375 47.603125 115.905375 
z
" style="fill: #ffffff; opacity: 0.8; stroke: #cccccc; stroke-linejoin: miter"/>
    </g>
    <g id="line2d_16">
     <path d="M 49.603125 62.291313 
L 59.603125 62.291313 
L 69.603125 62.291313 
" style="fill: none; stroke: #0000ff; stroke-width: 1.5; stroke-linecap: square"/>
    </g>
    <g id="text_15">
     <!-- pyrazole-1 -->
     <g transform="translate(77.603125 65.791313) scale(0.1 -0.1)">
      <defs>
       <path id="DejaVuSans-70" d="M 1159 525 
L 1159 -1331 
L 581 -1331 
L 581 3500 
L 1159 3500 
L 1159 2969 
Q 1341 3281 1617 3432 
Q 1894 3584 2278 3584 
Q 2916 3584 3314 3078 
Q 3713 2572 3713 1747 
Q 3713 922 3314 415 
Q 2916 -91 2278 -91 
Q 1894 -91 1617 61 
Q 1341 213 1159 525 
z
M 3116 1747 
Q 3116 2381 2855 2742 
Q 2594 3103 2138 3103 
Q 1681 3103 1420 2742 
Q 1159 2381 1159 1747 
Q 1159 1113 1420 752 
Q 1681 391 2138 391 
Q 2594 391 2855 752 
Q 3116 1113 3116 1747 
z
" transform="scale(0.015625)"/>
       <path id="DejaVuSans-7a" d="M 353 3500 
L 3084 3500 
L 3084 2975 
L 922 459 
L 3084 459 
L 3084 0 
L 275 0 
L 275 525 
L 2438 3041 
L 353 3041 
L 353 3500 
z
" transform="scale(0.015625)"/>
      </defs>
      <use xlink:href="#DejaVuSans-70"/>
      <use xlink:href="#DejaVuSans-79" transform="translate(63.476562 0)"/>
      <use xlink:href="#DejaVuSans-72" transform="translate(122.65625 0)"/>
      <use xlink:href="#DejaVuSans-61" transform="translate(163.769531 0)"/>
      <use xlink:href="#DejaVuSans-7a" transform="translate(225.048828 0)"/>
      <use xlink:href="#DejaVuSans-6f" transform="translate(277.539062 0)"/>
      <use xlink:href="#DejaVuSans-6c" transform="translate(338.720703 0)"/>
      <use xlink:href="#DejaVuSans-65" transform="translate(366.503906 0)"/>
      <use xlink:href="#DejaVuSans-2d" transform="translate(428.027344 0)"/>
      <use xlink:href="#DejaVuSans-31" transform="translate(464.111328 0)"/>
     </g>
    </g>
    <g id="line2d_17">
     <path d="M 49.603125 76.969438 
L 59.603125 76.969438 
L 69.603125 76.969438 
" style="fill: none; stroke: #00ffff; stroke-width: 1.5; stroke-linecap: square"/>
    </g>
    <g id="text_16">
     <!-- pyrazole-2 -->
     <g transform="translate(77.603125 80.469438) scale(0.1 -0.1)">
      <use xlink:href="#DejaVuSans-70"/>
      <use xlink:href="#DejaVuSans-79" transform="translate(63.476562 0)"/>
      <use xlink:href="#DejaVuSans-72" transform="translate(122.65625 0)"/>
      <use xlink:href="#DejaVuSans-61" transform="translate(163.769531 0)"/>
      <use xlink:href="#DejaVuSans-7a" transform="translate(225.048828 0)"/>
      <use xlink:href="#DejaVuSans-6f" transform="translate(277.539062 0)"/>
      <use xlink:href="#DejaVuSans-6c" transform="translate(338.720703 0)"/>
      <use xlink:href="#DejaVuSans-65" transform="translate(366.503906 0)"/>
      <use xlink:href="#DejaVuSans-2d" transform="translate(428.027344 0)"/>
      <use xlink:href="#DejaVuSans-32" transform="translate(464.111328 0)"/>
     </g>
    </g>
    <g id="line2d_18">
     <path d="M 49.603125 91.647562 
L 59.603125 91.647562 
L 69.603125 91.647562 
" style="fill: none; stroke: #ff0000; stroke-width: 1.5; stroke-linecap: square"/>
    </g>
    <g id="text_17">
     <!-- undecanol-1 -->
     <g transform="translate(77.603125 95.147562) scale(0.1 -0.1)">
      <use xlink:href="#DejaVuSans-75"/>
      <use xlink:href="#DejaVuSans-6e" transform="translate(63.378906 0)"/>
      <use xlink:href="#DejaVuSans-64" transform="translate(126.757812 0)"/>
      <use xlink:href="#DejaVuSans-65" transform="translate(190.234375 0)"/>
      <use xlink:href="#DejaVuSans-63" transform="translate(251.757812 0)"/>
      <use xlink:href="#DejaVuSans-61" transform="translate(306.738281 0)"/>
      <use xlink:href="#DejaVuSans-6e" transform="translate(368.017578 0)"/>
      <use xlink:href="#DejaVuSans-6f" transform="translate(431.396484 0)"/>
      <use xlink:href="#DejaVuSans-6c" transform="translate(492.578125 0)"/>
      <use xlink:href="#DejaVuSans-2d" transform="translate(520.361328 0)"/>
      <use xlink:href="#DejaVuSans-31" transform="translate(556.445312 0)"/>
     </g>
    </g>
    <g id="line2d_19">
     <path d="M 49.603125 106.325688 
L 59.603125 106.325688 
L 69.603125 106.325688 
" style="fill: none; stroke: #ffa500; stroke-width: 1.5; stroke-linecap: square"/>
    </g>
    <g id="text_18">
     <!-- undecanol-2 -->
     <g transform="translate(77.603125 109.825688) scale(0.1 -0.1)">
      <use xlink:href="#DejaVuSans-75"/>
      <use xlink:href="#DejaVuSans-6e" transform="translate(63.378906 0)"/>
      <use xlink:href="#DejaVuSans-64" transform="translate(126.757812 0)"/>
      <use xlink:href="#DejaVuSans-65" transform="translate(190.234375 0)"/>
      <use xlink:href="#DejaVuSans-63" transform="translate(251.757812 0)"/>
      <use xlink:href="#DejaVuSans-61" transform="translate(306.738281 0)"/>
      <use xlink:href="#DejaVuSans-6e" transform="translate(368.017578 0)"/>
      <use xlink:href="#DejaVuSans-6f" transform="translate(431.396484 0)"/>
      <use xlink:href="#DejaVuSans-6c" transform="translate(492.578125 0)"/>
      <use xlink:href="#DejaVuSans-2d" transform="translate(520.361328 0)"/>
      <use xlink:href="#DejaVuSans-32" transform="translate(556.445312 0)"/>
     </g>
    </g>
   </g>
  </g>
 </g>
 <defs>
  <clipPath id="p696c18912a">
   <rect x="40.603125" y="49.192875" width="357.12" height="266.112"/>
  </clipPath>
 </defs>
</svg>
