<?xml version="1.0" encoding="utf-8" standalone="no"?>
<!DOCTYPE svg PUBLIC "-//W3C//DTD SVG 1.1//EN"
  "http://www.w3.org/Graphics/SVG/1.1/DTD/svg11.dtd">
<svg xmlns:xlink="http://www.w3.org/1999/xlink" width="411.285625pt" height="364.058937pt" viewBox="0 0 411.285625 364.058937" xmlns="http://www.w3.org/2000/svg" version="1.1">
 <metadata>
  <rdf:RDF xmlns:dc="http://purl.org/dc/elements/1.1/" xmlns:cc="http://creativecommons.org/ns#" xmlns:rdf="http://www.w3.org/1999/02/22-rdf-syntax-ns#">
   <cc:Work>
    <dc:type rdf:resource="http://purl.org/dc/dcmitype/StillImage"/>
    <dc:date>2025-06-19T18:15:54.429364</dc:date>
    <dc:format>image/svg+xml</dc:format>
    <dc:creator>
     <cc:Agent>
      <dc:title>Matplotlib v3.10.3, https://matplotlib.org/</dc:title>
     </cc:Agent>
    </dc:creator>
   </cc:Work>
  </rdf:RDF>
 </metadata>
 <defs>
  <style type="text/css">*{stroke-linejoin: round; stroke-linecap: butt}</style>
 </defs>
 <g id="figure_1">
  <g id="patch_1">
   <path d="M 0 364.058937 
L 411.285625 364.058937 
L 411.285625 0 
L 0 0 
z
" style="fill: #ffffff"/>
  </g>
  <g id="axes_1">
   <g id="patch_2">
    <path d="M 40.603125 315.304875 
L 397.723125 315.304875 
L 397.723125 49.192875 
L 40.603125 49.192875 
z
" style="fill: #ffffff"/>
   </g>
   <g id="matplotlib.axis_1">
    <g id="xtick_1">
     <g id="line2d_1">
      <defs>
       <path id="m61dc2c4e90" d="M 0 0 
L 0 3.5 
" style="stroke: #000000; stroke-width: 0.8"/>
      </defs>
      <g>
       <use xlink:href="#m61dc2c4e90" x="40.603125" y="315.304875" style="stroke: #000000; stroke-width: 0.8"/>
      </g>
     </g>
     <g id="text_1">
      <!-- 0 -->
      <g transform="translate(37.421875 329.903312) scale(0.1 -0.1)">
       <defs>
        <path id="DejaVuSans-30" d="M 2034 4250 
Q 1547 4250 1301 3770 
Q 1056 3291 1056 2328 
Q 1056 1369 1301 889 
Q 1547 409 2034 409 
Q 2525 409 2770 889 
Q 3016 1369 3016 2328 
Q 3016 3291 2770 3770 
Q 2525 4250 2034 4250 
z
M 2034 4750 
Q 2819 4750 3233 4129 
Q 3647 3509 3647 2328 
Q 3647 1150 3233 529 
Q 2819 -91 2034 -91 
Q 1250 -91 836 529 
Q 422 1150 422 2328 
Q 422 3509 836 4129 
Q 1250 4750 2034 4750 
z
" transform="scale(0.015625)"/>
       </defs>
       <use xlink:href="#DejaVuSans-30"/>
      </g>
     </g>
    </g>
    <g id="xtick_2">
     <g id="line2d_2">
      <g>
       <use xlink:href="#m61dc2c4e90" x="112.027125" y="315.304875" style="stroke: #000000; stroke-width: 0.8"/>
      </g>
     </g>
     <g id="text_2">
      <!-- 10 -->
      <g transform="translate(105.664625 329.903312) scale(0.1 -0.1)">
       <defs>
        <path id="DejaVuSans-31" d="M 794 531 
L 1825 531 
L 1825 4091 
L 703 3866 
L 703 4441 
L 1819 4666 
L 2450 4666 
L 2450 531 
L 3481 531 
L 3481 0 
L 794 0 
L 794 531 
z
" transform="scale(0.015625)"/>
       </defs>
       <use xlink:href="#DejaVuSans-31"/>
       <use xlink:href="#DejaVuSans-30" transform="translate(63.623047 0)"/>
      </g>
     </g>
    </g>
    <g id="xtick_3">
     <g id="line2d_3">
      <g>
       <use xlink:href="#m61dc2c4e90" x="183.451125" y="315.304875" style="stroke: #000000; stroke-width: 0.8"/>
      </g>
     </g>
     <g id="text_3">
      <!-- 20 -->
      <g transform="translate(177.088625 329.903312) scale(0.1 -0.1)">
       <defs>
        <path id="DejaVuSans-32" d="M 1228 531 
L 3431 531 
L 3431 0 
L 469 0 
L 469 531 
Q 828 903 1448 1529 
Q 2069 2156 2228 2338 
Q 2531 2678 2651 2914 
Q 2772 3150 2772 3378 
Q 2772 3750 2511 3984 
Q 2250 4219 1831 4219 
Q 1534 4219 1204 4116 
Q 875 4013 500 3803 
L 500 4441 
Q 881 4594 1212 4672 
Q 1544 4750 1819 4750 
Q 2544 4750 2975 4387 
Q 3406 4025 3406 3419 
Q 3406 3131 3298 2873 
Q 3191 2616 2906 2266 
Q 2828 2175 2409 1742 
Q 1991 1309 1228 531 
z
" transform="scale(0.015625)"/>
       </defs>
       <use xlink:href="#DejaVuSans-32"/>
       <use xlink:href="#DejaVuSans-30" transform="translate(63.623047 0)"/>
      </g>
     </g>
    </g>
    <g id="xtick_4">
     <g id="line2d_4">
      <g>
       <use xlink:href="#m61dc2c4e90" x="254.875125" y="315.304875" style="stroke: #000000; stroke-width: 0.8"/>
      </g>
     </g>
     <g id="text_4">
      <!-- 30 -->
      <g transform="translate(248.512625 329.903312) scale(0.1 -0.1)">
       <defs>
        <path id="DejaVuSans-33" d="M 2597 2516 
Q 3050 2419 3304 2112 
Q 3559 1806 3559 1356 
Q 3559 666 3084 287 
Q 2609 -91 1734 -91 
Q 1441 -91 1130 -33 
Q 819 25 488 141 
L 488 750 
Q 750 597 1062 519 
Q 1375 441 1716 441 
Q 2309 441 2620 675 
Q 2931 909 2931 1356 
Q 2931 1769 2642 2001 
Q 2353 2234 1838 2234 
L 1294 2234 
L 1294 2753 
L 1863 2753 
Q 2328 2753 2575 2939 
Q 2822 3125 2822 3475 
Q 2822 3834 2567 4026 
Q 2313 4219 1838 4219 
Q 1578 4219 1281 4162 
Q 984 4106 628 3988 
L 628 4550 
Q 988 4650 1302 4700 
Q 1616 4750 1894 4750 
Q 2613 4750 3031 4423 
Q 3450 4097 3450 3541 
Q 3450 3153 3228 2886 
Q 3006 2619 2597 2516 
z
" transform="scale(0.015625)"/>
       </defs>
       <use xlink:href="#DejaVuSans-33"/>
       <use xlink:href="#DejaVuSans-30" transform="translate(63.623047 0)"/>
      </g>
     </g>
    </g>
    <g id="xtick_5">
     <g id="line2d_5">
      <g>
       <use xlink:href="#m61dc2c4e90" x="326.299125" y="315.304875" style="stroke: #000000; stroke-width: 0.8"/>
      </g>
     </g>
     <g id="text_5">
      <!-- 40 -->
      <g transform="translate(319.936625 329.903312) scale(0.1 -0.1)">
       <defs>
        <path id="DejaVuSans-34" d="M 2419 4116 
L 825 1625 
L 2419 1625 
L 2419 4116 
z
M 2253 4666 
L 3047 4666 
L 3047 1625 
L 3713 1625 
L 3713 1100 
L 3047 1100 
L 3047 0 
L 2419 0 
L 2419 1100 
L 313 1100 
L 313 1709 
L 2253 4666 
z
" transform="scale(0.015625)"/>
       </defs>
       <use xlink:href="#DejaVuSans-34"/>
       <use xlink:href="#DejaVuSans-30" transform="translate(63.623047 0)"/>
      </g>
     </g>
    </g>
    <g id="xtick_6">
     <g id="line2d_6">
      <g>
       <use xlink:href="#m61dc2c4e90" x="397.723125" y="315.304875" style="stroke: #000000; stroke-width: 0.8"/>
      </g>
     </g>
     <g id="text_6">
      <!-- 50 -->
      <g transform="translate(391.360625 329.903312) scale(0.1 -0.1)">
       <defs>
        <path id="DejaVuSans-35" d="M 691 4666 
L 3169 4666 
L 3169 4134 
L 1269 4134 
L 1269 2991 
Q 1406 3038 1543 3061 
Q 1681 3084 1819 3084 
Q 2600 3084 3056 2656 
Q 3513 2228 3513 1497 
Q 3513 744 3044 326 
Q 2575 -91 1722 -91 
Q 1428 -91 1123 -41 
Q 819 9 494 109 
L 494 744 
Q 775 591 1075 516 
Q 1375 441 1709 441 
Q 2250 441 2565 725 
Q 2881 1009 2881 1497 
Q 2881 1984 2565 2268 
Q 2250 2553 1709 2553 
Q 1456 2553 1204 2497 
Q 953 2441 691 2322 
L 691 4666 
z
" transform="scale(0.015625)"/>
       </defs>
       <use xlink:href="#DejaVuSans-35"/>
       <use xlink:href="#DejaVuSans-30" transform="translate(63.623047 0)"/>
      </g>
     </g>
    </g>
    <g id="text_7">
     <!-- ligand center of mass distance -->
     <g transform="translate(142.210781 343.581437) scale(0.1 -0.1)">
      <defs>
       <path id="DejaVuSans-6c" d="M 603 4863 
L 1178 4863 
L 1178 0 
L 603 0 
L 603 4863 
z
" transform="scale(0.015625)"/>
       <path id="DejaVuSans-69" d="M 603 3500 
L 1178 3500 
L 1178 0 
L 603 0 
L 603 3500 
z
M 603 4863 
L 1178 4863 
L 1178 4134 
L 603 4134 
L 603 4863 
z
" transform="scale(0.015625)"/>
       <path id="DejaVuSans-67" d="M 2906 1791 
Q 2906 2416 2648 2759 
Q 2391 3103 1925 3103 
Q 1463 3103 1205 2759 
Q 947 2416 947 1791 
Q 947 1169 1205 825 
Q 1463 481 1925 481 
Q 2391 481 2648 825 
Q 2906 1169 2906 1791 
z
M 3481 434 
Q 3481 -459 3084 -895 
Q 2688 -1331 1869 -1331 
Q 1566 -1331 1297 -1286 
Q 1028 -1241 775 -1147 
L 775 -588 
Q 1028 -725 1275 -790 
Q 1522 -856 1778 -856 
Q 2344 -856 2625 -561 
Q 2906 -266 2906 331 
L 2906 616 
Q 2728 306 2450 153 
Q 2172 0 1784 0 
Q 1141 0 747 490 
Q 353 981 353 1791 
Q 353 2603 747 3093 
Q 1141 3584 1784 3584 
Q 2172 3584 2450 3431 
Q 2728 3278 2906 2969 
L 2906 3500 
L 3481 3500 
L 3481 434 
z
" transform="scale(0.015625)"/>
       <path id="DejaVuSans-61" d="M 2194 1759 
Q 1497 1759 1228 1600 
Q 959 1441 959 1056 
Q 959 750 1161 570 
Q 1363 391 1709 391 
Q 2188 391 2477 730 
Q 2766 1069 2766 1631 
L 2766 1759 
L 2194 1759 
z
M 3341 1997 
L 3341 0 
L 2766 0 
L 2766 531 
Q 2569 213 2275 61 
Q 1981 -91 1556 -91 
Q 1019 -91 701 211 
Q 384 513 384 1019 
Q 384 1609 779 1909 
Q 1175 2209 1959 2209 
L 2766 2209 
L 2766 2266 
Q 2766 2663 2505 2880 
Q 2244 3097 1772 3097 
Q 1472 3097 1187 3025 
Q 903 2953 641 2809 
L 641 3341 
Q 956 3463 1253 3523 
Q 1550 3584 1831 3584 
Q 2591 3584 2966 3190 
Q 3341 2797 3341 1997 
z
" transform="scale(0.015625)"/>
       <path id="DejaVuSans-6e" d="M 3513 2113 
L 3513 0 
L 2938 0 
L 2938 2094 
Q 2938 2591 2744 2837 
Q 2550 3084 2163 3084 
Q 1697 3084 1428 2787 
Q 1159 2491 1159 1978 
L 1159 0 
L 581 0 
L 581 3500 
L 1159 3500 
L 1159 2956 
Q 1366 3272 1645 3428 
Q 1925 3584 2291 3584 
Q 2894 3584 3203 3211 
Q 3513 2838 3513 2113 
z
" transform="scale(0.015625)"/>
       <path id="DejaVuSans-64" d="M 2906 2969 
L 2906 4863 
L 3481 4863 
L 3481 0 
L 2906 0 
L 2906 525 
Q 2725 213 2448 61 
Q 2172 -91 1784 -91 
Q 1150 -91 751 415 
Q 353 922 353 1747 
Q 353 2572 751 3078 
Q 1150 3584 1784 3584 
Q 2172 3584 2448 3432 
Q 2725 3281 2906 2969 
z
M 947 1747 
Q 947 1113 1208 752 
Q 1469 391 1925 391 
Q 2381 391 2643 752 
Q 2906 1113 2906 1747 
Q 2906 2381 2643 2742 
Q 2381 3103 1925 3103 
Q 1469 3103 1208 2742 
Q 947 2381 947 1747 
z
" transform="scale(0.015625)"/>
       <path id="DejaVuSans-20" transform="scale(0.015625)"/>
       <path id="DejaVuSans-63" d="M 3122 3366 
L 3122 2828 
Q 2878 2963 2633 3030 
Q 2388 3097 2138 3097 
Q 1578 3097 1268 2742 
Q 959 2388 959 1747 
Q 959 1106 1268 751 
Q 1578 397 2138 397 
Q 2388 397 2633 464 
Q 2878 531 3122 666 
L 3122 134 
Q 2881 22 2623 -34 
Q 2366 -91 2075 -91 
Q 1284 -91 818 406 
Q 353 903 353 1747 
Q 353 2603 823 3093 
Q 1294 3584 2113 3584 
Q 2378 3584 2631 3529 
Q 2884 3475 3122 3366 
z
" transform="scale(0.015625)"/>
       <path id="DejaVuSans-65" d="M 3597 1894 
L 3597 1613 
L 953 1613 
Q 991 1019 1311 708 
Q 1631 397 2203 397 
Q 2534 397 2845 478 
Q 3156 559 3463 722 
L 3463 178 
Q 3153 47 2828 -22 
Q 2503 -91 2169 -91 
Q 1331 -91 842 396 
Q 353 884 353 1716 
Q 353 2575 817 3079 
Q 1281 3584 2069 3584 
Q 2775 3584 3186 3129 
Q 3597 2675 3597 1894 
z
M 3022 2063 
Q 3016 2534 2758 2815 
Q 2500 3097 2075 3097 
Q 1594 3097 1305 2825 
Q 1016 2553 972 2059 
L 3022 2063 
z
" transform="scale(0.015625)"/>
       <path id="DejaVuSans-74" d="M 1172 4494 
L 1172 3500 
L 2356 3500 
L 2356 3053 
L 1172 3053 
L 1172 1153 
Q 1172 725 1289 603 
Q 1406 481 1766 481 
L 2356 481 
L 2356 0 
L 1766 0 
Q 1100 0 847 248 
Q 594 497 594 1153 
L 594 3053 
L 172 3053 
L 172 3500 
L 594 3500 
L 594 4494 
L 1172 4494 
z
" transform="scale(0.015625)"/>
       <path id="DejaVuSans-72" d="M 2631 2963 
Q 2534 3019 2420 3045 
Q 2306 3072 2169 3072 
Q 1681 3072 1420 2755 
Q 1159 2438 1159 1844 
L 1159 0 
L 581 0 
L 581 3500 
L 1159 3500 
L 1159 2956 
Q 1341 3275 1631 3429 
Q 1922 3584 2338 3584 
Q 2397 3584 2469 3576 
Q 2541 3569 2628 3553 
L 2631 2963 
z
" transform="scale(0.015625)"/>
       <path id="DejaVuSans-6f" d="M 1959 3097 
Q 1497 3097 1228 2736 
Q 959 2375 959 1747 
Q 959 1119 1226 758 
Q 1494 397 1959 397 
Q 2419 397 2687 759 
Q 2956 1122 2956 1747 
Q 2956 2369 2687 2733 
Q 2419 3097 1959 3097 
z
M 1959 3584 
Q 2709 3584 3137 3096 
Q 3566 2609 3566 1747 
Q 3566 888 3137 398 
Q 2709 -91 1959 -91 
Q 1206 -91 779 398 
Q 353 888 353 1747 
Q 353 2609 779 3096 
Q 1206 3584 1959 3584 
z
" transform="scale(0.015625)"/>
       <path id="DejaVuSans-66" d="M 2375 4863 
L 2375 4384 
L 1825 4384 
Q 1516 4384 1395 4259 
Q 1275 4134 1275 3809 
L 1275 3500 
L 2222 3500 
L 2222 3053 
L 1275 3053 
L 1275 0 
L 697 0 
L 697 3053 
L 147 3053 
L 147 3500 
L 697 3500 
L 697 3744 
Q 697 4328 969 4595 
Q 1241 4863 1831 4863 
L 2375 4863 
z
" transform="scale(0.015625)"/>
       <path id="DejaVuSans-6d" d="M 3328 2828 
Q 3544 3216 3844 3400 
Q 4144 3584 4550 3584 
Q 5097 3584 5394 3201 
Q 5691 2819 5691 2113 
L 5691 0 
L 5113 0 
L 5113 2094 
Q 5113 2597 4934 2840 
Q 4756 3084 4391 3084 
Q 3944 3084 3684 2787 
Q 3425 2491 3425 1978 
L 3425 0 
L 2847 0 
L 2847 2094 
Q 2847 2600 2669 2842 
Q 2491 3084 2119 3084 
Q 1678 3084 1418 2786 
Q 1159 2488 1159 1978 
L 1159 0 
L 581 0 
L 581 3500 
L 1159 3500 
L 1159 2956 
Q 1356 3278 1631 3431 
Q 1906 3584 2284 3584 
Q 2666 3584 2933 3390 
Q 3200 3197 3328 2828 
z
" transform="scale(0.015625)"/>
       <path id="DejaVuSans-73" d="M 2834 3397 
L 2834 2853 
Q 2591 2978 2328 3040 
Q 2066 3103 1784 3103 
Q 1356 3103 1142 2972 
Q 928 2841 928 2578 
Q 928 2378 1081 2264 
Q 1234 2150 1697 2047 
L 1894 2003 
Q 2506 1872 2764 1633 
Q 3022 1394 3022 966 
Q 3022 478 2636 193 
Q 2250 -91 1575 -91 
Q 1294 -91 989 -36 
Q 684 19 347 128 
L 347 722 
Q 666 556 975 473 
Q 1284 391 1588 391 
Q 1994 391 2212 530 
Q 2431 669 2431 922 
Q 2431 1156 2273 1281 
Q 2116 1406 1581 1522 
L 1381 1569 
Q 847 1681 609 1914 
Q 372 2147 372 2553 
Q 372 3047 722 3315 
Q 1072 3584 1716 3584 
Q 2034 3584 2315 3537 
Q 2597 3491 2834 3397 
z
" transform="scale(0.015625)"/>
      </defs>
      <use xlink:href="#DejaVuSans-6c"/>
      <use xlink:href="#DejaVuSans-69" transform="translate(27.783203 0)"/>
      <use xlink:href="#DejaVuSans-67" transform="translate(55.566406 0)"/>
      <use xlink:href="#DejaVuSans-61" transform="translate(119.042969 0)"/>
      <use xlink:href="#DejaVuSans-6e" transform="translate(180.322266 0)"/>
      <use xlink:href="#DejaVuSans-64" transform="translate(243.701172 0)"/>
      <use xlink:href="#DejaVuSans-20" transform="translate(307.177734 0)"/>
      <use xlink:href="#DejaVuSans-63" transform="translate(338.964844 0)"/>
      <use xlink:href="#DejaVuSans-65" transform="translate(393.945312 0)"/>
      <use xlink:href="#DejaVuSans-6e" transform="translate(455.46875 0)"/>
      <use xlink:href="#DejaVuSans-74" transform="translate(518.847656 0)"/>
      <use xlink:href="#DejaVuSans-65" transform="translate(558.056641 0)"/>
      <use xlink:href="#DejaVuSans-72" transform="translate(619.580078 0)"/>
      <use xlink:href="#DejaVuSans-20" transform="translate(660.693359 0)"/>
      <use xlink:href="#DejaVuSans-6f" transform="translate(692.480469 0)"/>
      <use xlink:href="#DejaVuSans-66" transform="translate(753.662109 0)"/>
      <use xlink:href="#DejaVuSans-20" transform="translate(788.867188 0)"/>
      <use xlink:href="#DejaVuSans-6d" transform="translate(820.654297 0)"/>
      <use xlink:href="#DejaVuSans-61" transform="translate(918.066406 0)"/>
      <use xlink:href="#DejaVuSans-73" transform="translate(979.345703 0)"/>
      <use xlink:href="#DejaVuSans-73" transform="translate(1031.445312 0)"/>
      <use xlink:href="#DejaVuSans-20" transform="translate(1083.544922 0)"/>
      <use xlink:href="#DejaVuSans-64" transform="translate(1115.332031 0)"/>
      <use xlink:href="#DejaVuSans-69" transform="translate(1178.808594 0)"/>
      <use xlink:href="#DejaVuSans-73" transform="translate(1206.591797 0)"/>
      <use xlink:href="#DejaVuSans-74" transform="translate(1258.691406 0)"/>
      <use xlink:href="#DejaVuSans-61" transform="translate(1297.900391 0)"/>
      <use xlink:href="#DejaVuSans-6e" transform="translate(1359.179688 0)"/>
      <use xlink:href="#DejaVuSans-63" transform="translate(1422.558594 0)"/>
      <use xlink:href="#DejaVuSans-65" transform="translate(1477.539062 0)"/>
     </g>
     <!-- from bound state (Angstroms) -->
     <g transform="translate(143.645156 354.77925) scale(0.1 -0.1)">
      <defs>
       <path id="DejaVuSans-62" d="M 3116 1747 
Q 3116 2381 2855 2742 
Q 2594 3103 2138 3103 
Q 1681 3103 1420 2742 
Q 1159 2381 1159 1747 
Q 1159 1113 1420 752 
Q 1681 391 2138 391 
Q 2594 391 2855 752 
Q 3116 1113 3116 1747 
z
M 1159 2969 
Q 1341 3281 1617 3432 
Q 1894 3584 2278 3584 
Q 2916 3584 3314 3078 
Q 3713 2572 3713 1747 
Q 3713 922 3314 415 
Q 2916 -91 2278 -91 
Q 1894 -91 1617 61 
Q 1341 213 1159 525 
L 1159 0 
L 581 0 
L 581 4863 
L 1159 4863 
L 1159 2969 
z
" transform="scale(0.015625)"/>
       <path id="DejaVuSans-75" d="M 544 1381 
L 544 3500 
L 1119 3500 
L 1119 1403 
Q 1119 906 1312 657 
Q 1506 409 1894 409 
Q 2359 409 2629 706 
Q 2900 1003 2900 1516 
L 2900 3500 
L 3475 3500 
L 3475 0 
L 2900 0 
L 2900 538 
Q 2691 219 2414 64 
Q 2138 -91 1772 -91 
Q 1169 -91 856 284 
Q 544 659 544 1381 
z
M 1991 3584 
L 1991 3584 
z
" transform="scale(0.015625)"/>
       <path id="DejaVuSans-28" d="M 1984 4856 
Q 1566 4138 1362 3434 
Q 1159 2731 1159 2009 
Q 1159 1288 1364 580 
Q 1569 -128 1984 -844 
L 1484 -844 
Q 1016 -109 783 600 
Q 550 1309 550 2009 
Q 550 2706 781 3412 
Q 1013 4119 1484 4856 
L 1984 4856 
z
" transform="scale(0.015625)"/>
       <path id="DejaVuSans-41" d="M 2188 4044 
L 1331 1722 
L 3047 1722 
L 2188 4044 
z
M 1831 4666 
L 2547 4666 
L 4325 0 
L 3669 0 
L 3244 1197 
L 1141 1197 
L 716 0 
L 50 0 
L 1831 4666 
z
" transform="scale(0.015625)"/>
       <path id="DejaVuSans-29" d="M 513 4856 
L 1013 4856 
Q 1481 4119 1714 3412 
Q 1947 2706 1947 2009 
Q 1947 1309 1714 600 
Q 1481 -109 1013 -844 
L 513 -844 
Q 928 -128 1133 580 
Q 1338 1288 1338 2009 
Q 1338 2731 1133 3434 
Q 928 4138 513 4856 
z
" transform="scale(0.015625)"/>
      </defs>
      <use xlink:href="#DejaVuSans-66"/>
      <use xlink:href="#DejaVuSans-72" transform="translate(35.205078 0)"/>
      <use xlink:href="#DejaVuSans-6f" transform="translate(74.068359 0)"/>
      <use xlink:href="#DejaVuSans-6d" transform="translate(135.25 0)"/>
      <use xlink:href="#DejaVuSans-20" transform="translate(232.662109 0)"/>
      <use xlink:href="#DejaVuSans-62" transform="translate(264.449219 0)"/>
      <use xlink:href="#DejaVuSans-6f" transform="translate(327.925781 0)"/>
      <use xlink:href="#DejaVuSans-75" transform="translate(389.107422 0)"/>
      <use xlink:href="#DejaVuSans-6e" transform="translate(452.486328 0)"/>
      <use xlink:href="#DejaVuSans-64" transform="translate(515.865234 0)"/>
      <use xlink:href="#DejaVuSans-20" transform="translate(579.341797 0)"/>
      <use xlink:href="#DejaVuSans-73" transform="translate(611.128906 0)"/>
      <use xlink:href="#DejaVuSans-74" transform="translate(663.228516 0)"/>
      <use xlink:href="#DejaVuSans-61" transform="translate(702.4375 0)"/>
      <use xlink:href="#DejaVuSans-74" transform="translate(763.716797 0)"/>
      <use xlink:href="#DejaVuSans-65" transform="translate(802.925781 0)"/>
      <use xlink:href="#DejaVuSans-20" transform="translate(864.449219 0)"/>
      <use xlink:href="#DejaVuSans-28" transform="translate(896.236328 0)"/>
      <use xlink:href="#DejaVuSans-41" transform="translate(935.25 0)"/>
      <use xlink:href="#DejaVuSans-6e" transform="translate(1003.658203 0)"/>
      <use xlink:href="#DejaVuSans-67" transform="translate(1067.037109 0)"/>
      <use xlink:href="#DejaVuSans-73" transform="translate(1130.513672 0)"/>
      <use xlink:href="#DejaVuSans-74" transform="translate(1182.613281 0)"/>
      <use xlink:href="#DejaVuSans-72" transform="translate(1221.822266 0)"/>
      <use xlink:href="#DejaVuSans-6f" transform="translate(1260.685547 0)"/>
      <use xlink:href="#DejaVuSans-6d" transform="translate(1321.867188 0)"/>
      <use xlink:href="#DejaVuSans-73" transform="translate(1419.279297 0)"/>
      <use xlink:href="#DejaVuSans-29" transform="translate(1471.378906 0)"/>
     </g>
    </g>
   </g>
   <g id="matplotlib.axis_2">
    <g id="ytick_1">
     <g id="line2d_7">
      <defs>
       <path id="m0feaffbd5f" d="M 0 0 
L -3.5 0 
" style="stroke: #000000; stroke-width: 0.8"/>
      </defs>
      <g>
       <use xlink:href="#m0feaffbd5f" x="40.603125" y="303.208875" style="stroke: #000000; stroke-width: 0.8"/>
      </g>
     </g>
     <g id="text_8">
      <!-- 0 -->
      <g transform="translate(27.240625 307.008094) scale(0.1 -0.1)">
       <use xlink:href="#DejaVuSans-30"/>
      </g>
     </g>
    </g>
    <g id="ytick_2">
     <g id="line2d_8">
      <g>
       <use xlink:href="#m0feaffbd5f" x="40.603125" y="253.157696" style="stroke: #000000; stroke-width: 0.8"/>
      </g>
     </g>
     <g id="text_9">
      <!-- 5 -->
      <g transform="translate(27.240625 256.956915) scale(0.1 -0.1)">
       <use xlink:href="#DejaVuSans-35"/>
      </g>
     </g>
    </g>
    <g id="ytick_3">
     <g id="line2d_9">
      <g>
       <use xlink:href="#m0feaffbd5f" x="40.603125" y="203.106518" style="stroke: #000000; stroke-width: 0.8"/>
      </g>
     </g>
     <g id="text_10">
      <!-- 10 -->
      <g transform="translate(20.878125 206.905737) scale(0.1 -0.1)">
       <use xlink:href="#DejaVuSans-31"/>
       <use xlink:href="#DejaVuSans-30" transform="translate(63.623047 0)"/>
      </g>
     </g>
    </g>
    <g id="ytick_4">
     <g id="line2d_10">
      <g>
       <use xlink:href="#m0feaffbd5f" x="40.603125" y="153.055339" style="stroke: #000000; stroke-width: 0.8"/>
      </g>
     </g>
     <g id="text_11">
      <!-- 15 -->
      <g transform="translate(20.878125 156.854558) scale(0.1 -0.1)">
       <use xlink:href="#DejaVuSans-31"/>
       <use xlink:href="#DejaVuSans-35" transform="translate(63.623047 0)"/>
      </g>
     </g>
    </g>
    <g id="ytick_5">
     <g id="line2d_11">
      <g>
       <use xlink:href="#m0feaffbd5f" x="40.603125" y="103.004161" style="stroke: #000000; stroke-width: 0.8"/>
      </g>
     </g>
     <g id="text_12">
      <!-- 20 -->
      <g transform="translate(20.878125 106.80338) scale(0.1 -0.1)">
       <use xlink:href="#DejaVuSans-32"/>
       <use xlink:href="#DejaVuSans-30" transform="translate(63.623047 0)"/>
      </g>
     </g>
    </g>
    <g id="ytick_6">
     <g id="line2d_12">
      <g>
       <use xlink:href="#m0feaffbd5f" x="40.603125" y="52.952982" style="stroke: #000000; stroke-width: 0.8"/>
      </g>
     </g>
     <g id="text_13">
      <!-- 25 -->
      <g transform="translate(20.878125 56.752201) scale(0.1 -0.1)">
       <use xlink:href="#DejaVuSans-32"/>
       <use xlink:href="#DejaVuSans-35" transform="translate(63.623047 0)"/>
      </g>
     </g>
    </g>
    <g id="text_14">
     <!-- free energy (kT) -->
     <g transform="translate(14.798438 222.557469) rotate(-90) scale(0.1 -0.1)">
      <defs>
       <path id="DejaVuSans-79" d="M 2059 -325 
Q 1816 -950 1584 -1140 
Q 1353 -1331 966 -1331 
L 506 -1331 
L 506 -850 
L 844 -850 
Q 1081 -850 1212 -737 
Q 1344 -625 1503 -206 
L 1606 56 
L 191 3500 
L 800 3500 
L 1894 763 
L 2988 3500 
L 3597 3500 
L 2059 -325 
z
" transform="scale(0.015625)"/>
       <path id="DejaVuSans-6b" d="M 581 4863 
L 1159 4863 
L 1159 1991 
L 2875 3500 
L 3609 3500 
L 1753 1863 
L 3688 0 
L 2938 0 
L 1159 1709 
L 1159 0 
L 581 0 
L 581 4863 
z
" transform="scale(0.015625)"/>
       <path id="DejaVuSans-54" d="M -19 4666 
L 3928 4666 
L 3928 4134 
L 2272 4134 
L 2272 0 
L 1638 0 
L 1638 4134 
L -19 4134 
L -19 4666 
z
" transform="scale(0.015625)"/>
      </defs>
      <use xlink:href="#DejaVuSans-66"/>
      <use xlink:href="#DejaVuSans-72" transform="translate(35.205078 0)"/>
      <use xlink:href="#DejaVuSans-65" transform="translate(74.068359 0)"/>
      <use xlink:href="#DejaVuSans-65" transform="translate(135.591797 0)"/>
      <use xlink:href="#DejaVuSans-20" transform="translate(197.115234 0)"/>
      <use xlink:href="#DejaVuSans-65" transform="translate(228.902344 0)"/>
      <use xlink:href="#DejaVuSans-6e" transform="translate(290.425781 0)"/>
      <use xlink:href="#DejaVuSans-65" transform="translate(353.804688 0)"/>
      <use xlink:href="#DejaVuSans-72" transform="translate(415.328125 0)"/>
      <use xlink:href="#DejaVuSans-67" transform="translate(454.691406 0)"/>
      <use xlink:href="#DejaVuSans-79" transform="translate(518.167969 0)"/>
      <use xlink:href="#DejaVuSans-20" transform="translate(577.347656 0)"/>
      <use xlink:href="#DejaVuSans-28" transform="translate(609.134766 0)"/>
      <use xlink:href="#DejaVuSans-6b" transform="translate(648.148438 0)"/>
      <use xlink:href="#DejaVuSans-54" transform="translate(706.058594 0)"/>
      <use xlink:href="#DejaVuSans-29" transform="translate(767.142578 0)"/>
     </g>
    </g>
   </g>
   <g id="line2d_13">
    <path d="M 40.603125 275.151465 
L 42.031605 292.365453 
L 43.460085 299.759225 
L 44.888565 302.985962 
L 46.317045 303.208875 
L 47.745525 302.27181 
L 49.174005 299.946296 
L 54.887925 287.646683 
L 56.316405 286.16549 
L 57.744885 285.591306 
L 59.173365 285.142662 
L 60.601845 284.123809 
L 62.030325 281.908112 
L 63.458805 278.690136 
L 64.887285 276.120688 
L 66.315765 274.679241 
L 67.744245 274.50252 
L 69.172725 274.892413 
L 70.601205 274.5229 
L 72.029685 274.462314 
L 73.458165 272.991653 
L 74.886645 271.222637 
L 77.743605 265.748163 
L 79.172085 262.350019 
L 80.600565 260.02309 
L 82.029045 258.51146 
L 83.457525 258.098575 
L 84.886005 257.386861 
L 86.314485 256.928681 
L 87.742965 257.416857 
L 89.171445 257.093674 
L 90.599925 257.456142 
L 92.028405 256.671878 
L 93.456885 256.034274 
L 94.885365 255.550831 
L 97.742325 253.917167 
L 99.170805 253.262196 
L 100.599285 252.297099 
L 102.027765 252.106195 
L 103.456245 251.581113 
L 104.884725 251.481989 
L 106.313205 250.026135 
L 107.741685 249.71732 
L 109.170165 249.062923 
L 110.598645 248.712333 
L 112.027125 248.091223 
L 113.455605 248.207468 
L 114.884085 247.295107 
L 116.312565 247.10293 
L 117.741045 246.461549 
L 119.169525 245.640293 
L 120.598005 245.283203 
L 122.026485 244.094896 
L 123.454965 243.652676 
L 124.883445 242.485925 
L 126.311925 241.036097 
L 129.168885 239.749401 
L 130.597365 237.925275 
L 132.025845 237.497014 
L 133.454325 235.884201 
L 134.882805 233.102089 
L 136.311285 230.732861 
L 137.739765 228.767741 
L 139.168245 228.278145 
L 140.596725 226.605907 
L 142.025205 226.069886 
L 143.453685 224.296385 
L 144.882165 223.973758 
L 146.310645 224.093285 
L 147.739125 223.314521 
L 149.167605 224.028359 
L 150.596085 225.212399 
L 152.024565 225.045713 
L 153.453045 225.822954 
L 154.881525 225.787271 
L 156.310005 225.140238 
L 157.738485 224.339551 
L 159.166965 223.91679 
L 162.023925 220.724463 
L 163.452405 218.84107 
L 164.880885 217.671929 
L 166.309365 216.674245 
L 167.737845 215.247597 
L 169.166325 214.569584 
L 170.594805 213.221781 
L 172.023285 213.192217 
L 173.451765 211.740698 
L 174.880245 211.038468 
L 176.308725 208.561732 
L 177.737205 208.113772 
L 179.165685 204.876838 
L 180.594165 203.732386 
L 182.022645 200.996278 
L 184.879605 197.488869 
L 187.736565 192.597345 
L 189.165045 189.535507 
L 190.593525 188.633725 
L 192.022005 186.957893 
L 193.450485 184.356256 
L 194.878965 183.287955 
L 196.307445 183.037233 
L 197.735925 182.988907 
L 200.592885 181.637013 
L 202.021365 181.250756 
L 204.878325 182.404787 
L 206.306805 182.783274 
L 207.735285 182.601967 
L 209.163765 183.156322 
L 210.592245 182.65613 
L 212.020725 181.490068 
L 213.449205 182.359242 
L 214.877685 181.88893 
L 216.306165 180.483964 
L 217.734645 180.605714 
L 219.163125 179.445693 
L 220.591605 177.995479 
L 222.020085 176.174035 
L 223.448565 174.546333 
L 224.877045 172.343613 
L 226.305525 170.576121 
L 227.734005 169.717123 
L 230.590965 164.712038 
L 233.447925 160.176006 
L 234.876405 159.087115 
L 236.304885 157.621172 
L 237.733365 155.186504 
L 239.161845 154.24051 
L 240.590325 154.628011 
L 242.018805 154.001644 
L 243.447285 153.211472 
L 244.875765 153.333052 
L 246.304245 152.019937 
L 247.732725 151.455979 
L 249.161205 148.779517 
L 250.589685 148.695088 
L 252.018165 146.237173 
L 253.446645 145.130627 
L 254.875125 142.223093 
L 256.303605 140.407944 
L 257.732085 140.742548 
L 259.160565 138.898039 
L 260.589045 138.604577 
L 262.017525 135.111123 
L 263.446005 136.083153 
L 266.302965 135.906465 
L 267.731445 135.954147 
L 269.159925 133.199136 
L 270.588405 135.515485 
L 272.016885 130.367624 
L 273.445365 132.942533 
L 274.873845 131.283771 
L 276.302325 131.559582 
L 277.730805 131.640723 
L 279.159285 130.435292 
L 280.587765 131.567211 
L 282.016245 130.934405 
L 283.444725 132.028577 
L 284.873205 129.493788 
L 286.301685 134.215386 
L 287.730165 134.222625 
L 289.158645 136.350334 
L 290.587125 134.193754 
L 292.015605 136.26646 
L 294.872565 133.578862 
L 296.301045 135.020225 
L 297.729525 134.301658 
L 299.158005 134.509209 
L 300.586485 132.85773 
L 302.014965 135.277378 
L 303.443445 134.633597 
L 304.871925 136.013463 
L 306.300405 134.229081 
L 307.728885 131.133398 
L 309.157365 130.865078 
L 310.585845 131.375418 
L 312.014325 131.538053 
L 313.442805 130.731661 
L 314.871285 126.309079 
L 316.299765 127.252797 
L 317.728245 124.422184 
L 319.156725 123.487227 
L 320.585205 120.530122 
L 322.013685 122.33978 
L 323.442165 117.993435 
L 324.870645 112.63949 
L 326.299125 112.301682 
L 327.727605 114.276094 
L 329.156085 115.306018 
L 332.013045 113.240678 
L 333.441525 107.064455 
L 334.870005 113.932127 
L 336.298485 110.696998 
L 337.726965 109.805328 
L 339.155445 107.663841 
L 340.583925 102.063903 
L 342.012405 108.707543 
L 343.440885 107.725679 
L 344.869365 103.842639 
L 346.297845 97.033859 
L 347.726325 84.833461 
L 349.154805 88.76317 
L 350.583285 88.182104 
L 352.011765 82.009945 
L 353.440245 73.865076 
L 356.297205 71.452472 
L 356.297205 71.452472 
" clip-path="url(#p970a519302)" style="fill: none; stroke: #0000ff; stroke-width: 1.5; stroke-linecap: square"/>
   </g>
   <g id="line2d_14">
    <path d="M 40.603125 270.004696 
L 42.031605 289.347134 
L 43.460085 298.197144 
L 44.888565 302.172597 
L 46.317045 303.208875 
L 47.745525 301.212871 
L 49.174005 297.096104 
L 52.030965 286.396288 
L 53.459445 282.841395 
L 54.887925 281.385801 
L 56.316405 281.908414 
L 57.744885 283.12359 
L 59.173365 283.128605 
L 60.601845 282.714466 
L 63.458805 280.012835 
L 64.887285 278.738855 
L 66.315765 278.234145 
L 67.744245 278.928932 
L 69.172725 279.408436 
L 70.601205 279.454336 
L 72.029685 279.687246 
L 73.458165 279.153116 
L 74.886645 277.604153 
L 76.315125 275.586768 
L 77.743605 273.073344 
L 80.600565 267.490078 
L 82.029045 263.719878 
L 83.457525 261.65488 
L 84.886005 259.231168 
L 86.314485 260.140319 
L 87.742965 259.594198 
L 89.171445 259.876147 
L 90.599925 260.730367 
L 92.028405 261.755693 
L 93.456885 262.239328 
L 96.313845 263.510154 
L 97.742325 263.6176 
L 99.170805 263.202908 
L 100.599285 262.542018 
L 102.027765 262.277563 
L 103.456245 261.556109 
L 104.884725 261.227901 
L 106.313205 261.744611 
L 107.741685 260.670607 
L 109.170165 261.183874 
L 110.598645 261.858662 
L 112.027125 261.993749 
L 113.455605 261.603505 
L 114.884085 263.188556 
L 116.312565 263.36668 
L 117.741045 263.683192 
L 119.169525 262.640372 
L 120.598005 262.303593 
L 122.026485 261.000918 
L 123.454965 261.51491 
L 124.883445 260.477521 
L 126.311925 259.827352 
L 127.740405 260.223535 
L 129.168885 260.192667 
L 130.597365 260.612555 
L 132.025845 259.847318 
L 134.882805 257.856344 
L 136.311285 256.733975 
L 137.739765 254.138641 
L 139.168245 251.947074 
L 140.596725 250.288613 
L 142.025205 246.015565 
L 143.453685 242.36067 
L 144.882165 236.417389 
L 146.310645 235.210799 
L 147.739125 234.507884 
L 149.167605 235.521793 
L 150.596085 234.29927 
L 152.024565 235.459872 
L 153.453045 237.065298 
L 154.881525 236.925591 
L 156.310005 235.835704 
L 157.738485 238.986966 
L 159.166965 239.111426 
L 160.595445 240.10106 
L 163.452405 241.24803 
L 164.880885 240.96739 
L 166.309365 241.153001 
L 167.737845 241.116804 
L 169.166325 240.385262 
L 170.594805 239.144656 
L 172.023285 237.43417 
L 173.451765 236.771141 
L 174.880245 235.79664 
L 176.308725 233.807054 
L 177.737205 231.071346 
L 179.165685 230.092525 
L 180.594165 227.704993 
L 182.022645 225.027925 
L 183.451125 223.636878 
L 184.879605 221.566491 
L 186.308085 220.293853 
L 187.736565 217.901498 
L 189.165045 216.177716 
L 190.593525 215.968702 
L 192.022005 213.124417 
L 194.878965 213.155563 
L 196.307445 211.251367 
L 197.735925 210.807876 
L 199.164405 207.964948 
L 200.592885 207.671714 
L 202.021365 206.382491 
L 203.449845 205.864376 
L 204.878325 204.531781 
L 206.306805 204.567797 
L 207.735285 204.05473 
L 209.163765 202.500439 
L 210.592245 201.204415 
L 212.020725 201.320538 
L 213.449205 200.402453 
L 214.877685 200.035786 
L 216.306165 201.235418 
L 217.734645 201.553195 
L 220.591605 201.377257 
L 222.020085 200.582937 
L 223.448565 201.04239 
L 224.877045 199.209377 
L 226.305525 199.205781 
L 227.734005 197.528713 
L 229.162485 196.310396 
L 230.590965 195.924601 
L 232.019445 194.389403 
L 233.447925 193.471111 
L 234.876405 191.606238 
L 236.304885 191.990678 
L 237.733365 189.215044 
L 239.161845 189.062218 
L 240.590325 189.843049 
L 242.018805 188.590677 
L 243.447285 187.792504 
L 244.875765 188.912587 
L 246.304245 188.958079 
L 247.732725 188.542976 
L 249.161205 188.642934 
L 250.589685 188.593091 
L 253.446645 184.876392 
L 254.875125 184.510911 
L 256.303605 182.284535 
L 257.732085 182.665236 
L 259.160565 179.534844 
L 260.589045 178.926754 
L 262.017525 177.983679 
L 263.446005 176.125185 
L 264.874485 176.890599 
L 266.302965 176.148768 
L 267.731445 174.101929 
L 269.159925 177.896451 
L 270.588405 175.014339 
L 272.016885 176.313294 
L 273.445365 177.32261 
L 274.873845 176.289852 
L 276.302325 175.722164 
L 277.730805 175.756608 
L 279.159285 175.034668 
L 280.587765 173.745085 
L 282.016245 174.936225 
L 283.444725 171.689687 
L 284.873205 172.715492 
L 286.301685 172.056356 
L 287.730165 170.86033 
L 289.158645 170.258726 
L 290.587125 170.678165 
L 292.015605 169.650637 
L 293.444085 167.861259 
L 294.872565 167.443309 
L 296.301045 167.731348 
L 297.729525 165.866856 
L 299.158005 167.5555 
L 300.586485 167.57781 
L 302.014965 165.840677 
L 303.443445 165.200637 
L 306.300405 164.668815 
L 307.728885 162.44627 
L 309.157365 165.259734 
L 310.585845 164.082708 
L 312.014325 163.832764 
L 313.442805 162.992678 
L 314.871285 162.79157 
L 316.299765 160.279359 
L 317.728245 160.433116 
L 319.156725 160.249999 
L 320.585205 158.224625 
L 322.013685 158.293867 
L 323.442165 157.160332 
L 324.870645 156.722485 
L 326.299125 155.23821 
L 327.727605 154.185952 
L 329.156085 151.73656 
L 330.584565 153.054166 
L 333.441525 149.910579 
L 334.870005 147.448995 
L 336.298485 146.051956 
L 337.726965 142.562301 
L 339.155445 140.957106 
L 340.583925 137.968546 
L 342.012405 133.256983 
L 343.440885 132.426018 
L 344.869365 129.045833 
L 346.297845 127.247734 
L 347.726325 113.854388 
L 349.154805 115.95405 
L 350.583285 100.634411 
L 353.440245 105.252999 
L 354.868725 106.985648 
L 354.868725 106.985648 
" clip-path="url(#p970a519302)" style="fill: none; stroke: #00ffff; stroke-width: 1.5; stroke-linecap: square"/>
   </g>
   <g id="line2d_15">
    <path d="M 40.603125 271.663373 
L 42.031605 290.545032 
L 43.460085 298.876014 
L 44.888565 302.210952 
L 46.317045 303.208875 
L 47.745525 301.862831 
L 49.174005 299.666649 
L 50.602485 296.154949 
L 52.030965 291.943007 
L 53.459445 287.369689 
L 54.887925 282.129279 
L 57.744885 274.957536 
L 59.173365 271.033688 
L 60.601845 265.554131 
L 62.030325 260.756717 
L 63.458805 256.434789 
L 64.887285 254.33026 
L 66.315765 252.896298 
L 67.744245 252.432801 
L 69.172725 252.63127 
L 70.601205 253.95007 
L 72.029685 253.379241 
L 73.458165 253.718509 
L 74.886645 252.891241 
L 76.315125 253.065215 
L 77.743605 251.186201 
L 80.600565 251.752017 
L 82.029045 252.914864 
L 83.457525 253.267999 
L 84.886005 254.251391 
L 86.314485 254.862669 
L 87.742965 255.685367 
L 89.171445 255.209861 
L 90.599925 254.269691 
L 93.456885 252.17118 
L 94.885365 251.764271 
L 96.313845 250.577094 
L 97.742325 249.916946 
L 99.170805 248.73371 
L 100.599285 250.083988 
L 102.027765 248.937307 
L 103.456245 248.511779 
L 104.884725 250.113604 
L 106.313205 248.957542 
L 107.741685 249.726301 
L 109.170165 250.331957 
L 110.598645 251.143231 
L 112.027125 250.402296 
L 113.455605 250.449062 
L 114.884085 249.811738 
L 116.312565 248.999349 
L 117.741045 249.107449 
L 119.169525 248.280909 
L 120.598005 248.649766 
L 122.026485 249.527355 
L 123.454965 249.373765 
L 124.883445 248.86498 
L 127.740405 248.203424 
L 129.168885 247.242645 
L 130.597365 247.275273 
L 133.454325 244.58722 
L 134.882805 242.573033 
L 136.311285 245.679597 
L 137.739765 242.30307 
L 139.168245 244.189969 
L 140.596725 243.904222 
L 142.025205 245.012692 
L 143.453685 247.307382 
L 146.310645 250.277739 
L 149.167605 255.506309 
L 150.596085 255.831318 
L 152.024565 255.506904 
L 153.453045 255.067231 
L 154.881525 252.941208 
L 156.310005 252.363233 
L 157.738485 249.039435 
L 159.166965 244.829394 
L 162.023925 237.733305 
L 163.452405 236.733456 
L 164.880885 234.837895 
L 166.309365 232.417966 
L 167.737845 232.067479 
L 169.166325 231.54521 
L 170.594805 230.404374 
L 172.023285 229.923803 
L 173.451765 226.811021 
L 174.880245 226.274556 
L 176.308725 221.993764 
L 177.737205 220.662245 
L 179.165685 218.885753 
L 180.594165 218.118979 
L 183.451125 215.141321 
L 184.879605 215.35236 
L 186.308085 213.389516 
L 187.736565 213.575335 
L 189.165045 212.979337 
L 190.593525 211.035038 
L 192.022005 209.820396 
L 193.450485 209.276132 
L 194.878965 207.00503 
L 199.164405 199.076804 
L 200.592885 196.251937 
L 202.021365 193.055705 
L 203.449845 188.513008 
L 206.306805 180.832019 
L 207.735285 178.795675 
L 209.163765 172.607894 
L 210.592245 169.477535 
L 212.020725 169.960903 
L 213.449205 165.330729 
L 214.877685 164.214375 
L 216.306165 165.344868 
L 217.734645 161.146479 
L 219.163125 160.593925 
L 222.020085 157.62783 
L 223.448565 155.926483 
L 224.877045 153.798418 
L 226.305525 153.754477 
L 227.734005 151.225923 
L 229.162485 149.218327 
L 232.019445 141.742211 
L 233.447925 140.437527 
L 234.876405 141.403779 
L 236.304885 135.788433 
L 237.733365 132.193284 
L 239.161845 134.050569 
L 240.590325 133.273117 
L 242.018805 130.172573 
L 244.875765 129.450779 
L 246.304245 128.91066 
L 247.732725 126.190004 
L 249.161205 127.626365 
L 250.589685 127.329342 
L 252.018165 123.51198 
L 253.446645 125.319941 
L 254.875125 124.609979 
L 256.303605 123.213748 
L 257.732085 120.426393 
L 259.160565 123.297557 
L 260.589045 119.924174 
L 262.017525 122.185887 
L 263.446005 119.076535 
L 264.874485 121.457226 
L 266.302965 116.32506 
L 267.731445 116.231204 
L 269.159925 114.004605 
L 270.588405 112.287256 
L 272.016885 116.976571 
L 273.445365 110.9412 
L 274.873845 115.352654 
L 276.302325 117.094923 
L 277.730805 112.054977 
L 279.159285 113.010488 
L 280.587765 115.495551 
L 282.016245 117.192547 
L 283.444725 118.205184 
L 284.873205 113.745573 
L 286.301685 113.769646 
L 287.730165 109.64048 
L 289.158645 111.956712 
L 290.587125 111.667133 
L 292.015605 111.262787 
L 293.444085 111.012459 
L 294.872565 102.554969 
L 296.301045 109.523246 
L 297.729525 107.357634 
L 299.158005 105.699989 
L 300.586485 106.154287 
L 302.014965 105.853976 
L 303.443445 103.541239 
L 304.871925 104.469697 
L 306.300405 101.563765 
L 307.728885 105.871758 
L 309.157365 103.567935 
L 310.585845 104.458472 
L 312.014325 102.837146 
L 313.442805 99.508574 
L 314.871285 98.515788 
L 316.299765 102.014254 
L 317.728245 93.961752 
L 319.156725 97.463742 
L 320.585205 92.884395 
L 322.013685 96.389825 
L 323.442165 97.557017 
L 324.870645 93.150668 
L 326.299125 92.654227 
L 327.727605 91.031772 
L 329.156085 92.130317 
L 330.584565 91.074238 
L 332.013045 90.463464 
L 333.441525 78.815894 
L 334.870005 90.857071 
L 336.298485 80.161703 
L 337.726965 85.191634 
L 339.155445 86.00242 
L 340.583925 78.873087 
L 342.012405 76.076909 
L 343.440885 68.27502 
L 344.869365 81.394526 
L 346.297845 79.672439 
L 347.726325 62.048697 
L 349.154805 61.288875 
L 350.583285 78.224066 
L 352.011765 66.670797 
L 353.440245 71.184428 
L 354.868725 84.74758 
L 356.297205 65.037963 
L 357.725685 82.160911 
L 359.154165 67.547711 
L 360.582645 74.693804 
L 360.582645 74.693804 
" clip-path="url(#p970a519302)" style="fill: none; stroke: #ff0000; stroke-width: 1.5; stroke-linecap: square"/>
   </g>
   <g id="line2d_16">
    <path d="M 40.603125 256.56011 
L 42.031605 277.730128 
L 43.460085 286.600041 
L 44.888565 291.092708 
L 47.745525 297.379909 
L 50.602485 301.45336 
L 52.030965 302.768955 
L 53.459445 303.208875 
L 54.887925 302.868697 
L 56.316405 301.249433 
L 57.744885 298.450139 
L 59.173365 294.659106 
L 63.458805 280.092534 
L 64.887285 277.464684 
L 67.744245 276.772482 
L 69.172725 276.939366 
L 70.601205 276.374273 
L 72.029685 274.897412 
L 73.458165 273.236294 
L 76.315125 269.318411 
L 79.172085 265.894767 
L 80.600565 264.870454 
L 82.029045 264.362178 
L 83.457525 263.10795 
L 84.886005 262.754911 
L 86.314485 262.158645 
L 87.742965 262.151317 
L 89.171445 261.033142 
L 90.599925 260.724109 
L 92.028405 261.439731 
L 93.456885 262.018241 
L 94.885365 262.019457 
L 96.313845 263.017872 
L 97.742325 262.166674 
L 99.170805 262.312841 
L 100.599285 263.395692 
L 102.027765 263.792738 
L 103.456245 262.76651 
L 104.884725 263.241984 
L 106.313205 262.67678 
L 107.741685 262.954358 
L 109.170165 262.431537 
L 110.598645 262.229483 
L 112.027125 262.198236 
L 113.455605 261.634765 
L 114.884085 260.435632 
L 116.312565 259.54074 
L 117.741045 257.943127 
L 119.169525 256.724065 
L 120.598005 255.830954 
L 122.026485 254.016485 
L 124.883445 249.658579 
L 127.740405 246.710876 
L 129.168885 243.874479 
L 130.597365 241.701388 
L 132.025845 240.04542 
L 133.454325 238.565049 
L 134.882805 235.355301 
L 136.311285 234.417822 
L 137.739765 231.721882 
L 139.168245 229.942803 
L 140.596725 228.431444 
L 142.025205 226.64364 
L 143.453685 225.268374 
L 146.310645 223.177117 
L 147.739125 223.16317 
L 149.167605 221.118304 
L 150.596085 220.540419 
L 152.024565 219.209011 
L 153.453045 217.581058 
L 154.881525 217.721763 
L 156.310005 217.285275 
L 159.166965 215.077461 
L 160.595445 216.162229 
L 162.023925 216.499892 
L 163.452405 215.188363 
L 164.880885 215.598639 
L 166.309365 215.446061 
L 167.737845 215.093757 
L 169.166325 213.692469 
L 170.594805 214.013897 
L 172.023285 211.961739 
L 173.451765 210.233138 
L 176.308725 205.670493 
L 177.737205 204.237632 
L 179.165685 202.507925 
L 180.594165 201.212633 
L 182.022645 199.353496 
L 183.451125 200.762696 
L 184.879605 198.542419 
L 186.308085 199.102416 
L 187.736565 198.658043 
L 189.165045 197.634532 
L 190.593525 197.462505 
L 192.022005 196.013396 
L 193.450485 195.369143 
L 194.878965 193.476224 
L 196.307445 193.552042 
L 197.735925 192.931917 
L 199.164405 191.519285 
L 200.592885 192.821186 
L 202.021365 191.547583 
L 204.878325 191.854701 
L 206.306805 191.387597 
L 207.735285 193.693145 
L 210.592245 192.10272 
L 212.020725 193.019293 
L 213.449205 193.050849 
L 216.306165 191.076584 
L 217.734645 191.200544 
L 219.163125 189.918661 
L 220.591605 189.616102 
L 223.448565 187.42623 
L 224.877045 188.046959 
L 226.305525 187.05009 
L 229.162485 185.993351 
L 230.590965 186.037191 
L 232.019445 184.794057 
L 233.447925 183.73272 
L 234.876405 184.378657 
L 236.304885 181.268736 
L 237.733365 181.629154 
L 239.161845 179.856842 
L 240.590325 179.81785 
L 242.018805 178.344465 
L 243.447285 178.13371 
L 246.304245 177.131903 
L 247.732725 175.43439 
L 249.161205 175.240039 
L 250.589685 173.045171 
L 252.018165 172.783495 
L 253.446645 173.558038 
L 254.875125 172.089048 
L 256.303605 171.139602 
L 257.732085 169.954095 
L 259.160565 167.917623 
L 260.589045 167.844648 
L 262.017525 166.624221 
L 263.446005 167.546936 
L 264.874485 165.347937 
L 266.302965 165.741352 
L 267.731445 164.645997 
L 269.159925 163.911227 
L 270.588405 164.260269 
L 272.016885 163.078866 
L 273.445365 161.020543 
L 274.873845 160.464064 
L 276.302325 158.850802 
L 277.730805 160.506573 
L 279.159285 156.766682 
L 280.587765 157.636781 
L 282.016245 157.760256 
L 283.444725 160.263268 
L 284.873205 159.861483 
L 286.301685 158.554307 
L 287.730165 156.61923 
L 289.158645 157.264473 
L 290.587125 157.346783 
L 292.015605 155.929301 
L 293.444085 156.453859 
L 294.872565 155.229059 
L 296.301045 155.249584 
L 297.729525 153.057668 
L 299.158005 153.541543 
L 300.586485 153.037708 
L 302.014965 150.704319 
L 303.443445 151.133333 
L 304.871925 152.558387 
L 306.300405 151.153634 
L 307.728885 151.274611 
L 309.157365 148.30891 
L 310.585845 149.197798 
L 312.014325 145.848488 
L 314.871285 145.022882 
L 316.299765 143.154316 
L 317.728245 145.452531 
L 319.156725 144.323137 
L 320.585205 143.685357 
L 322.013685 144.47935 
L 323.442165 143.779888 
L 324.870645 141.711532 
L 326.299125 142.348907 
L 327.727605 141.572724 
L 329.156085 142.229582 
L 330.584565 139.345616 
L 332.013045 138.888065 
L 333.441525 140.026164 
L 334.870005 139.5507 
L 336.298485 136.976136 
L 337.726965 136.938247 
L 339.155445 134.961659 
L 340.583925 134.688221 
L 342.012405 134.29473 
L 343.440885 133.390582 
L 344.869365 131.95134 
L 346.297845 134.702071 
L 347.726325 130.324118 
L 349.154805 129.371727 
L 350.583285 131.252027 
L 352.011765 130.421757 
L 353.440245 126.482716 
L 354.868725 126.826008 
L 356.297205 128.105957 
L 357.725685 125.686935 
L 359.154165 129.96598 
L 360.582645 124.093123 
L 362.011125 123.530275 
L 363.439605 130.569089 
L 364.868085 128.187603 
L 366.296565 127.385768 
L 367.725045 128.025956 
L 369.153525 126.813607 
L 370.582005 126.600754 
L 373.438965 120.430529 
L 374.867445 106.359184 
L 376.295925 116.721401 
L 377.724405 114.232407 
L 379.152885 117.564686 
L 380.581365 103.091074 
L 382.009845 114.859623 
L 383.438325 109.65327 
L 384.866805 109.336186 
L 387.723765 102.547287 
L 390.580725 109.389906 
L 390.580725 109.389906 
" clip-path="url(#p970a519302)" style="fill: none; stroke: #ffa500; stroke-width: 1.5; stroke-linecap: square"/>
   </g>
   <g id="patch_3">
    <path d="M 40.603125 315.304875 
L 40.603125 49.192875 
" style="fill: none; stroke: #000000; stroke-width: 0.8; stroke-linejoin: miter; stroke-linecap: square"/>
   </g>
   <g id="patch_4">
    <path d="M 397.723125 315.304875 
L 397.723125 49.192875 
" style="fill: none; stroke: #000000; stroke-width: 0.8; stroke-linejoin: miter; stroke-linecap: square"/>
   </g>
   <g id="patch_5">
    <path d="M 40.603125 315.304875 
L 397.723125 315.304875 
" style="fill: none; stroke: #000000; stroke-width: 0.8; stroke-linejoin: miter; stroke-linecap: square"/>
   </g>
   <g id="patch_6">
    <path d="M 40.603125 49.192875 
L 397.723125 49.192875 
" style="fill: none; stroke: #000000; stroke-width: 0.8; stroke-linejoin: miter; stroke-linecap: square"/>
   </g>
   <g id="text_15">
    <!-- Reweighted GLPG1837 amide -->
    <g transform="translate(129.81 16.318125) scale(0.12 -0.12)">
     <defs>
      <path id="DejaVuSans-52" d="M 2841 2188 
Q 3044 2119 3236 1894 
Q 3428 1669 3622 1275 
L 4263 0 
L 3584 0 
L 2988 1197 
Q 2756 1666 2539 1819 
Q 2322 1972 1947 1972 
L 1259 1972 
L 1259 0 
L 628 0 
L 628 4666 
L 2053 4666 
Q 2853 4666 3247 4331 
Q 3641 3997 3641 3322 
Q 3641 2881 3436 2590 
Q 3231 2300 2841 2188 
z
M 1259 4147 
L 1259 2491 
L 2053 2491 
Q 2509 2491 2742 2702 
Q 2975 2913 2975 3322 
Q 2975 3731 2742 3939 
Q 2509 4147 2053 4147 
L 1259 4147 
z
" transform="scale(0.015625)"/>
      <path id="DejaVuSans-77" d="M 269 3500 
L 844 3500 
L 1563 769 
L 2278 3500 
L 2956 3500 
L 3675 769 
L 4391 3500 
L 4966 3500 
L 4050 0 
L 3372 0 
L 2619 2869 
L 1863 0 
L 1184 0 
L 269 3500 
z
" transform="scale(0.015625)"/>
      <path id="DejaVuSans-68" d="M 3513 2113 
L 3513 0 
L 2938 0 
L 2938 2094 
Q 2938 2591 2744 2837 
Q 2550 3084 2163 3084 
Q 1697 3084 1428 2787 
Q 1159 2491 1159 1978 
L 1159 0 
L 581 0 
L 581 4863 
L 1159 4863 
L 1159 2956 
Q 1366 3272 1645 3428 
Q 1925 3584 2291 3584 
Q 2894 3584 3203 3211 
Q 3513 2838 3513 2113 
z
" transform="scale(0.015625)"/>
      <path id="DejaVuSans-47" d="M 3809 666 
L 3809 1919 
L 2778 1919 
L 2778 2438 
L 4434 2438 
L 4434 434 
Q 4069 175 3628 42 
Q 3188 -91 2688 -91 
Q 1594 -91 976 548 
Q 359 1188 359 2328 
Q 359 3472 976 4111 
Q 1594 4750 2688 4750 
Q 3144 4750 3555 4637 
Q 3966 4525 4313 4306 
L 4313 3634 
Q 3963 3931 3569 4081 
Q 3175 4231 2741 4231 
Q 1884 4231 1454 3753 
Q 1025 3275 1025 2328 
Q 1025 1384 1454 906 
Q 1884 428 2741 428 
Q 3075 428 3337 486 
Q 3600 544 3809 666 
z
" transform="scale(0.015625)"/>
      <path id="DejaVuSans-4c" d="M 628 4666 
L 1259 4666 
L 1259 531 
L 3531 531 
L 3531 0 
L 628 0 
L 628 4666 
z
" transform="scale(0.015625)"/>
      <path id="DejaVuSans-50" d="M 1259 4147 
L 1259 2394 
L 2053 2394 
Q 2494 2394 2734 2622 
Q 2975 2850 2975 3272 
Q 2975 3691 2734 3919 
Q 2494 4147 2053 4147 
L 1259 4147 
z
M 628 4666 
L 2053 4666 
Q 2838 4666 3239 4311 
Q 3641 3956 3641 3272 
Q 3641 2581 3239 2228 
Q 2838 1875 2053 1875 
L 1259 1875 
L 1259 0 
L 628 0 
L 628 4666 
z
" transform="scale(0.015625)"/>
      <path id="DejaVuSans-38" d="M 2034 2216 
Q 1584 2216 1326 1975 
Q 1069 1734 1069 1313 
Q 1069 891 1326 650 
Q 1584 409 2034 409 
Q 2484 409 2743 651 
Q 3003 894 3003 1313 
Q 3003 1734 2745 1975 
Q 2488 2216 2034 2216 
z
M 1403 2484 
Q 997 2584 770 2862 
Q 544 3141 544 3541 
Q 544 4100 942 4425 
Q 1341 4750 2034 4750 
Q 2731 4750 3128 4425 
Q 3525 4100 3525 3541 
Q 3525 3141 3298 2862 
Q 3072 2584 2669 2484 
Q 3125 2378 3379 2068 
Q 3634 1759 3634 1313 
Q 3634 634 3220 271 
Q 2806 -91 2034 -91 
Q 1263 -91 848 271 
Q 434 634 434 1313 
Q 434 1759 690 2068 
Q 947 2378 1403 2484 
z
M 1172 3481 
Q 1172 3119 1398 2916 
Q 1625 2713 2034 2713 
Q 2441 2713 2670 2916 
Q 2900 3119 2900 3481 
Q 2900 3844 2670 4047 
Q 2441 4250 2034 4250 
Q 1625 4250 1398 4047 
Q 1172 3844 1172 3481 
z
" transform="scale(0.015625)"/>
      <path id="DejaVuSans-37" d="M 525 4666 
L 3525 4666 
L 3525 4397 
L 1831 0 
L 1172 0 
L 2766 4134 
L 525 4134 
L 525 4666 
z
" transform="scale(0.015625)"/>
     </defs>
     <use xlink:href="#DejaVuSans-52"/>
     <use xlink:href="#DejaVuSans-65" transform="translate(64.982422 0)"/>
     <use xlink:href="#DejaVuSans-77" transform="translate(126.505859 0)"/>
     <use xlink:href="#DejaVuSans-65" transform="translate(208.292969 0)"/>
     <use xlink:href="#DejaVuSans-69" transform="translate(269.816406 0)"/>
     <use xlink:href="#DejaVuSans-67" transform="translate(297.599609 0)"/>
     <use xlink:href="#DejaVuSans-68" transform="translate(361.076172 0)"/>
     <use xlink:href="#DejaVuSans-74" transform="translate(424.455078 0)"/>
     <use xlink:href="#DejaVuSans-65" transform="translate(463.664062 0)"/>
     <use xlink:href="#DejaVuSans-64" transform="translate(525.1875 0)"/>
     <use xlink:href="#DejaVuSans-20" transform="translate(588.664062 0)"/>
     <use xlink:href="#DejaVuSans-47" transform="translate(620.451172 0)"/>
     <use xlink:href="#DejaVuSans-4c" transform="translate(697.941406 0)"/>
     <use xlink:href="#DejaVuSans-50" transform="translate(753.654297 0)"/>
     <use xlink:href="#DejaVuSans-47" transform="translate(813.957031 0)"/>
     <use xlink:href="#DejaVuSans-31" transform="translate(891.447266 0)"/>
     <use xlink:href="#DejaVuSans-38" transform="translate(955.070312 0)"/>
     <use xlink:href="#DejaVuSans-33" transform="translate(1018.693359 0)"/>
     <use xlink:href="#DejaVuSans-37" transform="translate(1082.316406 0)"/>
     <use xlink:href="#DejaVuSans-20" transform="translate(1145.939453 0)"/>
     <use xlink:href="#DejaVuSans-61" transform="translate(1177.726562 0)"/>
     <use xlink:href="#DejaVuSans-6d" transform="translate(1239.005859 0)"/>
     <use xlink:href="#DejaVuSans-69" transform="translate(1336.417969 0)"/>
     <use xlink:href="#DejaVuSans-64" transform="translate(1364.201172 0)"/>
     <use xlink:href="#DejaVuSans-65" transform="translate(1427.677734 0)"/>
    </g>
    <!-- derivative dissociation energy: -->
    <g transform="translate(127.19625 29.7555) scale(0.12 -0.12)">
     <defs>
      <path id="DejaVuSans-76" d="M 191 3500 
L 800 3500 
L 1894 563 
L 2988 3500 
L 3597 3500 
L 2284 0 
L 1503 0 
L 191 3500 
z
" transform="scale(0.015625)"/>
      <path id="DejaVuSans-3a" d="M 750 794 
L 1409 794 
L 1409 0 
L 750 0 
L 750 794 
z
M 750 3309 
L 1409 3309 
L 1409 2516 
L 750 2516 
L 750 3309 
z
" transform="scale(0.015625)"/>
     </defs>
     <use xlink:href="#DejaVuSans-64"/>
     <use xlink:href="#DejaVuSans-65" transform="translate(63.476562 0)"/>
     <use xlink:href="#DejaVuSans-72" transform="translate(125 0)"/>
     <use xlink:href="#DejaVuSans-69" transform="translate(166.113281 0)"/>
     <use xlink:href="#DejaVuSans-76" transform="translate(193.896484 0)"/>
     <use xlink:href="#DejaVuSans-61" transform="translate(253.076172 0)"/>
     <use xlink:href="#DejaVuSans-74" transform="translate(314.355469 0)"/>
     <use xlink:href="#DejaVuSans-69" transform="translate(353.564453 0)"/>
     <use xlink:href="#DejaVuSans-76" transform="translate(381.347656 0)"/>
     <use xlink:href="#DejaVuSans-65" transform="translate(440.527344 0)"/>
     <use xlink:href="#DejaVuSans-20" transform="translate(502.050781 0)"/>
     <use xlink:href="#DejaVuSans-64" transform="translate(533.837891 0)"/>
     <use xlink:href="#DejaVuSans-69" transform="translate(597.314453 0)"/>
     <use xlink:href="#DejaVuSans-73" transform="translate(625.097656 0)"/>
     <use xlink:href="#DejaVuSans-73" transform="translate(677.197266 0)"/>
     <use xlink:href="#DejaVuSans-6f" transform="translate(729.296875 0)"/>
     <use xlink:href="#DejaVuSans-63" transform="translate(790.478516 0)"/>
     <use xlink:href="#DejaVuSans-69" transform="translate(845.458984 0)"/>
     <use xlink:href="#DejaVuSans-61" transform="translate(873.242188 0)"/>
     <use xlink:href="#DejaVuSans-74" transform="translate(934.521484 0)"/>
     <use xlink:href="#DejaVuSans-69" transform="translate(973.730469 0)"/>
     <use xlink:href="#DejaVuSans-6f" transform="translate(1001.513672 0)"/>
     <use xlink:href="#DejaVuSans-6e" transform="translate(1062.695312 0)"/>
     <use xlink:href="#DejaVuSans-20" transform="translate(1126.074219 0)"/>
     <use xlink:href="#DejaVuSans-65" transform="translate(1157.861328 0)"/>
     <use xlink:href="#DejaVuSans-6e" transform="translate(1219.384766 0)"/>
     <use xlink:href="#DejaVuSans-65" transform="translate(1282.763672 0)"/>
     <use xlink:href="#DejaVuSans-72" transform="translate(1344.287109 0)"/>
     <use xlink:href="#DejaVuSans-67" transform="translate(1383.650391 0)"/>
     <use xlink:href="#DejaVuSans-79" transform="translate(1447.126953 0)"/>
     <use xlink:href="#DejaVuSans-3a" transform="translate(1499.056641 0)"/>
    </g>
    <!-- equal-weight transitions -->
    <g transform="translate(146.505938 43.192875) scale(0.12 -0.12)">
     <defs>
      <path id="DejaVuSans-71" d="M 947 1747 
Q 947 1113 1208 752 
Q 1469 391 1925 391 
Q 2381 391 2643 752 
Q 2906 1113 2906 1747 
Q 2906 2381 2643 2742 
Q 2381 3103 1925 3103 
Q 1469 3103 1208 2742 
Q 947 2381 947 1747 
z
M 2906 525 
Q 2725 213 2448 61 
Q 2172 -91 1784 -91 
Q 1150 -91 751 415 
Q 353 922 353 1747 
Q 353 2572 751 3078 
Q 1150 3584 1784 3584 
Q 2172 3584 2448 3432 
Q 2725 3281 2906 2969 
L 2906 3500 
L 3481 3500 
L 3481 -1331 
L 2906 -1331 
L 2906 525 
z
" transform="scale(0.015625)"/>
      <path id="DejaVuSans-2d" d="M 313 2009 
L 1997 2009 
L 1997 1497 
L 313 1497 
L 313 2009 
z
" transform="scale(0.015625)"/>
     </defs>
     <use xlink:href="#DejaVuSans-65"/>
     <use xlink:href="#DejaVuSans-71" transform="translate(61.523438 0)"/>
     <use xlink:href="#DejaVuSans-75" transform="translate(125 0)"/>
     <use xlink:href="#DejaVuSans-61" transform="translate(188.378906 0)"/>
     <use xlink:href="#DejaVuSans-6c" transform="translate(249.658203 0)"/>
     <use xlink:href="#DejaVuSans-2d" transform="translate(277.441406 0)"/>
     <use xlink:href="#DejaVuSans-77" transform="translate(313.525391 0)"/>
     <use xlink:href="#DejaVuSans-65" transform="translate(395.3125 0)"/>
     <use xlink:href="#DejaVuSans-69" transform="translate(456.835938 0)"/>
     <use xlink:href="#DejaVuSans-67" transform="translate(484.619141 0)"/>
     <use xlink:href="#DejaVuSans-68" transform="translate(548.095703 0)"/>
     <use xlink:href="#DejaVuSans-74" transform="translate(611.474609 0)"/>
     <use xlink:href="#DejaVuSans-20" transform="translate(650.683594 0)"/>
     <use xlink:href="#DejaVuSans-74" transform="translate(682.470703 0)"/>
     <use xlink:href="#DejaVuSans-72" transform="translate(721.679688 0)"/>
     <use xlink:href="#DejaVuSans-61" transform="translate(762.792969 0)"/>
     <use xlink:href="#DejaVuSans-6e" transform="translate(824.072266 0)"/>
     <use xlink:href="#DejaVuSans-73" transform="translate(887.451172 0)"/>
     <use xlink:href="#DejaVuSans-69" transform="translate(939.550781 0)"/>
     <use xlink:href="#DejaVuSans-74" transform="translate(967.333984 0)"/>
     <use xlink:href="#DejaVuSans-69" transform="translate(1006.542969 0)"/>
     <use xlink:href="#DejaVuSans-6f" transform="translate(1034.326172 0)"/>
     <use xlink:href="#DejaVuSans-6e" transform="translate(1095.507812 0)"/>
     <use xlink:href="#DejaVuSans-73" transform="translate(1158.886719 0)"/>
    </g>
   </g>
   <g id="legend_1">
    <g id="patch_7">
     <path d="M 47.603125 115.905375 
L 141.610938 115.905375 
Q 143.610938 115.905375 143.610938 113.905375 
L 143.610938 56.192875 
Q 143.610938 54.192875 141.610938 54.192875 
L 47.603125 54.192875 
Q 45.603125 54.192875 45.603125 56.192875 
L 45.603125 113.905375 
Q 45.603125 115.905375 47.603125 115.905375 
z
" style="fill: #ffffff; opacity: 0.8; stroke: #cccccc; stroke-linejoin: miter"/>
    </g>
    <g id="line2d_17">
     <path d="M 49.603125 62.291313 
L 59.603125 62.291313 
L 69.603125 62.291313 
" style="fill: none; stroke: #0000ff; stroke-width: 1.5; stroke-linecap: square"/>
    </g>
    <g id="text_16">
     <!-- pyrazole-1 -->
     <g transform="translate(77.603125 65.791313) scale(0.1 -0.1)">
      <defs>
       <path id="DejaVuSans-70" d="M 1159 525 
L 1159 -1331 
L 581 -1331 
L 581 3500 
L 1159 3500 
L 1159 2969 
Q 1341 3281 1617 3432 
Q 1894 3584 2278 3584 
Q 2916 3584 3314 3078 
Q 3713 2572 3713 1747 
Q 3713 922 3314 415 
Q 2916 -91 2278 -91 
Q 1894 -91 1617 61 
Q 1341 213 1159 525 
z
M 3116 1747 
Q 3116 2381 2855 2742 
Q 2594 3103 2138 3103 
Q 1681 3103 1420 2742 
Q 1159 2381 1159 1747 
Q 1159 1113 1420 752 
Q 1681 391 2138 391 
Q 2594 391 2855 752 
Q 3116 1113 3116 1747 
z
" transform="scale(0.015625)"/>
       <path id="DejaVuSans-7a" d="M 353 3500 
L 3084 3500 
L 3084 2975 
L 922 459 
L 3084 459 
L 3084 0 
L 275 0 
L 275 525 
L 2438 3041 
L 353 3041 
L 353 3500 
z
" transform="scale(0.015625)"/>
      </defs>
      <use xlink:href="#DejaVuSans-70"/>
      <use xlink:href="#DejaVuSans-79" transform="translate(63.476562 0)"/>
      <use xlink:href="#DejaVuSans-72" transform="translate(122.65625 0)"/>
      <use xlink:href="#DejaVuSans-61" transform="translate(163.769531 0)"/>
      <use xlink:href="#DejaVuSans-7a" transform="translate(225.048828 0)"/>
      <use xlink:href="#DejaVuSans-6f" transform="translate(277.539062 0)"/>
      <use xlink:href="#DejaVuSans-6c" transform="translate(338.720703 0)"/>
      <use xlink:href="#DejaVuSans-65" transform="translate(366.503906 0)"/>
      <use xlink:href="#DejaVuSans-2d" transform="translate(428.027344 0)"/>
      <use xlink:href="#DejaVuSans-31" transform="translate(464.111328 0)"/>
     </g>
    </g>
    <g id="line2d_18">
     <path d="M 49.603125 76.969438 
L 59.603125 76.969438 
L 69.603125 76.969438 
" style="fill: none; stroke: #00ffff; stroke-width: 1.5; stroke-linecap: square"/>
    </g>
    <g id="text_17">
     <!-- pyrazole-2 -->
     <g transform="translate(77.603125 80.469438) scale(0.1 -0.1)">
      <use xlink:href="#DejaVuSans-70"/>
      <use xlink:href="#DejaVuSans-79" transform="translate(63.476562 0)"/>
      <use xlink:href="#DejaVuSans-72" transform="translate(122.65625 0)"/>
      <use xlink:href="#DejaVuSans-61" transform="translate(163.769531 0)"/>
      <use xlink:href="#DejaVuSans-7a" transform="translate(225.048828 0)"/>
      <use xlink:href="#DejaVuSans-6f" transform="translate(277.539062 0)"/>
      <use xlink:href="#DejaVuSans-6c" transform="translate(338.720703 0)"/>
      <use xlink:href="#DejaVuSans-65" transform="translate(366.503906 0)"/>
      <use xlink:href="#DejaVuSans-2d" transform="translate(428.027344 0)"/>
      <use xlink:href="#DejaVuSans-32" transform="translate(464.111328 0)"/>
     </g>
    </g>
    <g id="line2d_19">
     <path d="M 49.603125 91.647562 
L 59.603125 91.647562 
L 69.603125 91.647562 
" style="fill: none; stroke: #ff0000; stroke-width: 1.5; stroke-linecap: square"/>
    </g>
    <g id="text_18">
     <!-- undecanol-1 -->
     <g transform="translate(77.603125 95.147562) scale(0.1 -0.1)">
      <use xlink:href="#DejaVuSans-75"/>
      <use xlink:href="#DejaVuSans-6e" transform="translate(63.378906 0)"/>
      <use xlink:href="#DejaVuSans-64" transform="translate(126.757812 0)"/>
      <use xlink:href="#DejaVuSans-65" transform="translate(190.234375 0)"/>
      <use xlink:href="#DejaVuSans-63" transform="translate(251.757812 0)"/>
      <use xlink:href="#DejaVuSans-61" transform="translate(306.738281 0)"/>
      <use xlink:href="#DejaVuSans-6e" transform="translate(368.017578 0)"/>
      <use xlink:href="#DejaVuSans-6f" transform="translate(431.396484 0)"/>
      <use xlink:href="#DejaVuSans-6c" transform="translate(492.578125 0)"/>
      <use xlink:href="#DejaVuSans-2d" transform="translate(520.361328 0)"/>
      <use xlink:href="#DejaVuSans-31" transform="translate(556.445312 0)"/>
     </g>
    </g>
    <g id="line2d_20">
     <path d="M 49.603125 106.325688 
L 59.603125 106.325688 
L 69.603125 106.325688 
" style="fill: none; stroke: #ffa500; stroke-width: 1.5; stroke-linecap: square"/>
    </g>
    <g id="text_19">
     <!-- undecanol-2 -->
     <g transform="translate(77.603125 109.825688) scale(0.1 -0.1)">
      <use xlink:href="#DejaVuSans-75"/>
      <use xlink:href="#DejaVuSans-6e" transform="translate(63.378906 0)"/>
      <use xlink:href="#DejaVuSans-64" transform="translate(126.757812 0)"/>
      <use xlink:href="#DejaVuSans-65" transform="translate(190.234375 0)"/>
      <use xlink:href="#DejaVuSans-63" transform="translate(251.757812 0)"/>
      <use xlink:href="#DejaVuSans-61" transform="translate(306.738281 0)"/>
      <use xlink:href="#DejaVuSans-6e" transform="translate(368.017578 0)"/>
      <use xlink:href="#DejaVuSans-6f" transform="translate(431.396484 0)"/>
      <use xlink:href="#DejaVuSans-6c" transform="translate(492.578125 0)"/>
      <use xlink:href="#DejaVuSans-2d" transform="translate(520.361328 0)"/>
      <use xlink:href="#DejaVuSans-32" transform="translate(556.445312 0)"/>
     </g>
    </g>
   </g>
  </g>
 </g>
 <defs>
  <clipPath id="p970a519302">
   <rect x="40.603125" y="49.192875" width="357.12" height="266.112"/>
  </clipPath>
 </defs>
</svg>
