<?xml version="1.0" encoding="utf-8" standalone="no"?>
<!DOCTYPE svg PUBLIC "-//W3C//DTD SVG 1.1//EN"
  "http://www.w3.org/Graphics/SVG/1.1/DTD/svg11.dtd">
<svg xmlns:xlink="http://www.w3.org/1999/xlink" width="404.923125pt" height="364.058937pt" viewBox="0 0 404.923125 364.058937" xmlns="http://www.w3.org/2000/svg" version="1.1">
 <metadata>
  <rdf:RDF xmlns:dc="http://purl.org/dc/elements/1.1/" xmlns:cc="http://creativecommons.org/ns#" xmlns:rdf="http://www.w3.org/1999/02/22-rdf-syntax-ns#">
   <cc:Work>
    <dc:type rdf:resource="http://purl.org/dc/dcmitype/StillImage"/>
    <dc:date>2025-06-19T17:14:40.769882</dc:date>
    <dc:format>image/svg+xml</dc:format>
    <dc:creator>
     <cc:Agent>
      <dc:title>Matplotlib v3.10.3, https://matplotlib.org/</dc:title>
     </cc:Agent>
    </dc:creator>
   </cc:Work>
  </rdf:RDF>
 </metadata>
 <defs>
  <style type="text/css">*{stroke-linejoin: round; stroke-linecap: butt}</style>
 </defs>
 <g id="figure_1">
  <g id="patch_1">
   <path d="M 0 364.058937 
L 404.923125 364.058937 
L 404.923125 0 
L 0 0 
z
" style="fill: #ffffff"/>
  </g>
  <g id="axes_1">
   <g id="patch_2">
    <path d="M 40.603125 315.304875 
L 397.723125 315.304875 
L 397.723125 49.192875 
L 40.603125 49.192875 
z
" style="fill: #ffffff"/>
   </g>
   <g id="matplotlib.axis_1">
    <g id="xtick_1">
     <g id="line2d_1">
      <defs>
       <path id="m48dd3fd472" d="M 0 0 
L 0 3.5 
" style="stroke: #000000; stroke-width: 0.8"/>
      </defs>
      <g>
       <use xlink:href="#m48dd3fd472" x="56.835852" y="315.304875" style="stroke: #000000; stroke-width: 0.8"/>
      </g>
     </g>
     <g id="text_1">
      <!-- 0 -->
      <g transform="translate(53.654602 329.903312) scale(0.1 -0.1)">
       <defs>
        <path id="DejaVuSans-30" d="M 2034 4250 
Q 1547 4250 1301 3770 
Q 1056 3291 1056 2328 
Q 1056 1369 1301 889 
Q 1547 409 2034 409 
Q 2525 409 2770 889 
Q 3016 1369 3016 2328 
Q 3016 3291 2770 3770 
Q 2525 4250 2034 4250 
z
M 2034 4750 
Q 2819 4750 3233 4129 
Q 3647 3509 3647 2328 
Q 3647 1150 3233 529 
Q 2819 -91 2034 -91 
Q 1250 -91 836 529 
Q 422 1150 422 2328 
Q 422 3509 836 4129 
Q 1250 4750 2034 4750 
z
" transform="scale(0.015625)"/>
       </defs>
       <use xlink:href="#DejaVuSans-30"/>
      </g>
     </g>
    </g>
    <g id="xtick_2">
     <g id="line2d_2">
      <g>
       <use xlink:href="#m48dd3fd472" x="123.091882" y="315.304875" style="stroke: #000000; stroke-width: 0.8"/>
      </g>
     </g>
     <g id="text_2">
      <!-- 10 -->
      <g transform="translate(116.729382 329.903312) scale(0.1 -0.1)">
       <defs>
        <path id="DejaVuSans-31" d="M 794 531 
L 1825 531 
L 1825 4091 
L 703 3866 
L 703 4441 
L 1819 4666 
L 2450 4666 
L 2450 531 
L 3481 531 
L 3481 0 
L 794 0 
L 794 531 
z
" transform="scale(0.015625)"/>
       </defs>
       <use xlink:href="#DejaVuSans-31"/>
       <use xlink:href="#DejaVuSans-30" transform="translate(63.623047 0)"/>
      </g>
     </g>
    </g>
    <g id="xtick_3">
     <g id="line2d_3">
      <g>
       <use xlink:href="#m48dd3fd472" x="189.347912" y="315.304875" style="stroke: #000000; stroke-width: 0.8"/>
      </g>
     </g>
     <g id="text_3">
      <!-- 20 -->
      <g transform="translate(182.985412 329.903312) scale(0.1 -0.1)">
       <defs>
        <path id="DejaVuSans-32" d="M 1228 531 
L 3431 531 
L 3431 0 
L 469 0 
L 469 531 
Q 828 903 1448 1529 
Q 2069 2156 2228 2338 
Q 2531 2678 2651 2914 
Q 2772 3150 2772 3378 
Q 2772 3750 2511 3984 
Q 2250 4219 1831 4219 
Q 1534 4219 1204 4116 
Q 875 4013 500 3803 
L 500 4441 
Q 881 4594 1212 4672 
Q 1544 4750 1819 4750 
Q 2544 4750 2975 4387 
Q 3406 4025 3406 3419 
Q 3406 3131 3298 2873 
Q 3191 2616 2906 2266 
Q 2828 2175 2409 1742 
Q 1991 1309 1228 531 
z
" transform="scale(0.015625)"/>
       </defs>
       <use xlink:href="#DejaVuSans-32"/>
       <use xlink:href="#DejaVuSans-30" transform="translate(63.623047 0)"/>
      </g>
     </g>
    </g>
    <g id="xtick_4">
     <g id="line2d_4">
      <g>
       <use xlink:href="#m48dd3fd472" x="255.603941" y="315.304875" style="stroke: #000000; stroke-width: 0.8"/>
      </g>
     </g>
     <g id="text_4">
      <!-- 30 -->
      <g transform="translate(249.241441 329.903312) scale(0.1 -0.1)">
       <defs>
        <path id="DejaVuSans-33" d="M 2597 2516 
Q 3050 2419 3304 2112 
Q 3559 1806 3559 1356 
Q 3559 666 3084 287 
Q 2609 -91 1734 -91 
Q 1441 -91 1130 -33 
Q 819 25 488 141 
L 488 750 
Q 750 597 1062 519 
Q 1375 441 1716 441 
Q 2309 441 2620 675 
Q 2931 909 2931 1356 
Q 2931 1769 2642 2001 
Q 2353 2234 1838 2234 
L 1294 2234 
L 1294 2753 
L 1863 2753 
Q 2328 2753 2575 2939 
Q 2822 3125 2822 3475 
Q 2822 3834 2567 4026 
Q 2313 4219 1838 4219 
Q 1578 4219 1281 4162 
Q 984 4106 628 3988 
L 628 4550 
Q 988 4650 1302 4700 
Q 1616 4750 1894 4750 
Q 2613 4750 3031 4423 
Q 3450 4097 3450 3541 
Q 3450 3153 3228 2886 
Q 3006 2619 2597 2516 
z
" transform="scale(0.015625)"/>
       </defs>
       <use xlink:href="#DejaVuSans-33"/>
       <use xlink:href="#DejaVuSans-30" transform="translate(63.623047 0)"/>
      </g>
     </g>
    </g>
    <g id="xtick_5">
     <g id="line2d_5">
      <g>
       <use xlink:href="#m48dd3fd472" x="321.859971" y="315.304875" style="stroke: #000000; stroke-width: 0.8"/>
      </g>
     </g>
     <g id="text_5">
      <!-- 40 -->
      <g transform="translate(315.497471 329.903312) scale(0.1 -0.1)">
       <defs>
        <path id="DejaVuSans-34" d="M 2419 4116 
L 825 1625 
L 2419 1625 
L 2419 4116 
z
M 2253 4666 
L 3047 4666 
L 3047 1625 
L 3713 1625 
L 3713 1100 
L 3047 1100 
L 3047 0 
L 2419 0 
L 2419 1100 
L 313 1100 
L 313 1709 
L 2253 4666 
z
" transform="scale(0.015625)"/>
       </defs>
       <use xlink:href="#DejaVuSans-34"/>
       <use xlink:href="#DejaVuSans-30" transform="translate(63.623047 0)"/>
      </g>
     </g>
    </g>
    <g id="xtick_6">
     <g id="line2d_6">
      <g>
       <use xlink:href="#m48dd3fd472" x="388.116001" y="315.304875" style="stroke: #000000; stroke-width: 0.8"/>
      </g>
     </g>
     <g id="text_6">
      <!-- 50 -->
      <g transform="translate(381.753501 329.903312) scale(0.1 -0.1)">
       <defs>
        <path id="DejaVuSans-35" d="M 691 4666 
L 3169 4666 
L 3169 4134 
L 1269 4134 
L 1269 2991 
Q 1406 3038 1543 3061 
Q 1681 3084 1819 3084 
Q 2600 3084 3056 2656 
Q 3513 2228 3513 1497 
Q 3513 744 3044 326 
Q 2575 -91 1722 -91 
Q 1428 -91 1123 -41 
Q 819 9 494 109 
L 494 744 
Q 775 591 1075 516 
Q 1375 441 1709 441 
Q 2250 441 2565 725 
Q 2881 1009 2881 1497 
Q 2881 1984 2565 2268 
Q 2250 2553 1709 2553 
Q 1456 2553 1204 2497 
Q 953 2441 691 2322 
L 691 4666 
z
" transform="scale(0.015625)"/>
       </defs>
       <use xlink:href="#DejaVuSans-35"/>
       <use xlink:href="#DejaVuSans-30" transform="translate(63.623047 0)"/>
      </g>
     </g>
    </g>
    <g id="text_7">
     <!-- ligand center of mass distance -->
     <g transform="translate(142.210781 343.581437) scale(0.1 -0.1)">
      <defs>
       <path id="DejaVuSans-6c" d="M 603 4863 
L 1178 4863 
L 1178 0 
L 603 0 
L 603 4863 
z
" transform="scale(0.015625)"/>
       <path id="DejaVuSans-69" d="M 603 3500 
L 1178 3500 
L 1178 0 
L 603 0 
L 603 3500 
z
M 603 4863 
L 1178 4863 
L 1178 4134 
L 603 4134 
L 603 4863 
z
" transform="scale(0.015625)"/>
       <path id="DejaVuSans-67" d="M 2906 1791 
Q 2906 2416 2648 2759 
Q 2391 3103 1925 3103 
Q 1463 3103 1205 2759 
Q 947 2416 947 1791 
Q 947 1169 1205 825 
Q 1463 481 1925 481 
Q 2391 481 2648 825 
Q 2906 1169 2906 1791 
z
M 3481 434 
Q 3481 -459 3084 -895 
Q 2688 -1331 1869 -1331 
Q 1566 -1331 1297 -1286 
Q 1028 -1241 775 -1147 
L 775 -588 
Q 1028 -725 1275 -790 
Q 1522 -856 1778 -856 
Q 2344 -856 2625 -561 
Q 2906 -266 2906 331 
L 2906 616 
Q 2728 306 2450 153 
Q 2172 0 1784 0 
Q 1141 0 747 490 
Q 353 981 353 1791 
Q 353 2603 747 3093 
Q 1141 3584 1784 3584 
Q 2172 3584 2450 3431 
Q 2728 3278 2906 2969 
L 2906 3500 
L 3481 3500 
L 3481 434 
z
" transform="scale(0.015625)"/>
       <path id="DejaVuSans-61" d="M 2194 1759 
Q 1497 1759 1228 1600 
Q 959 1441 959 1056 
Q 959 750 1161 570 
Q 1363 391 1709 391 
Q 2188 391 2477 730 
Q 2766 1069 2766 1631 
L 2766 1759 
L 2194 1759 
z
M 3341 1997 
L 3341 0 
L 2766 0 
L 2766 531 
Q 2569 213 2275 61 
Q 1981 -91 1556 -91 
Q 1019 -91 701 211 
Q 384 513 384 1019 
Q 384 1609 779 1909 
Q 1175 2209 1959 2209 
L 2766 2209 
L 2766 2266 
Q 2766 2663 2505 2880 
Q 2244 3097 1772 3097 
Q 1472 3097 1187 3025 
Q 903 2953 641 2809 
L 641 3341 
Q 956 3463 1253 3523 
Q 1550 3584 1831 3584 
Q 2591 3584 2966 3190 
Q 3341 2797 3341 1997 
z
" transform="scale(0.015625)"/>
       <path id="DejaVuSans-6e" d="M 3513 2113 
L 3513 0 
L 2938 0 
L 2938 2094 
Q 2938 2591 2744 2837 
Q 2550 3084 2163 3084 
Q 1697 3084 1428 2787 
Q 1159 2491 1159 1978 
L 1159 0 
L 581 0 
L 581 3500 
L 1159 3500 
L 1159 2956 
Q 1366 3272 1645 3428 
Q 1925 3584 2291 3584 
Q 2894 3584 3203 3211 
Q 3513 2838 3513 2113 
z
" transform="scale(0.015625)"/>
       <path id="DejaVuSans-64" d="M 2906 2969 
L 2906 4863 
L 3481 4863 
L 3481 0 
L 2906 0 
L 2906 525 
Q 2725 213 2448 61 
Q 2172 -91 1784 -91 
Q 1150 -91 751 415 
Q 353 922 353 1747 
Q 353 2572 751 3078 
Q 1150 3584 1784 3584 
Q 2172 3584 2448 3432 
Q 2725 3281 2906 2969 
z
M 947 1747 
Q 947 1113 1208 752 
Q 1469 391 1925 391 
Q 2381 391 2643 752 
Q 2906 1113 2906 1747 
Q 2906 2381 2643 2742 
Q 2381 3103 1925 3103 
Q 1469 3103 1208 2742 
Q 947 2381 947 1747 
z
" transform="scale(0.015625)"/>
       <path id="DejaVuSans-20" transform="scale(0.015625)"/>
       <path id="DejaVuSans-63" d="M 3122 3366 
L 3122 2828 
Q 2878 2963 2633 3030 
Q 2388 3097 2138 3097 
Q 1578 3097 1268 2742 
Q 959 2388 959 1747 
Q 959 1106 1268 751 
Q 1578 397 2138 397 
Q 2388 397 2633 464 
Q 2878 531 3122 666 
L 3122 134 
Q 2881 22 2623 -34 
Q 2366 -91 2075 -91 
Q 1284 -91 818 406 
Q 353 903 353 1747 
Q 353 2603 823 3093 
Q 1294 3584 2113 3584 
Q 2378 3584 2631 3529 
Q 2884 3475 3122 3366 
z
" transform="scale(0.015625)"/>
       <path id="DejaVuSans-65" d="M 3597 1894 
L 3597 1613 
L 953 1613 
Q 991 1019 1311 708 
Q 1631 397 2203 397 
Q 2534 397 2845 478 
Q 3156 559 3463 722 
L 3463 178 
Q 3153 47 2828 -22 
Q 2503 -91 2169 -91 
Q 1331 -91 842 396 
Q 353 884 353 1716 
Q 353 2575 817 3079 
Q 1281 3584 2069 3584 
Q 2775 3584 3186 3129 
Q 3597 2675 3597 1894 
z
M 3022 2063 
Q 3016 2534 2758 2815 
Q 2500 3097 2075 3097 
Q 1594 3097 1305 2825 
Q 1016 2553 972 2059 
L 3022 2063 
z
" transform="scale(0.015625)"/>
       <path id="DejaVuSans-74" d="M 1172 4494 
L 1172 3500 
L 2356 3500 
L 2356 3053 
L 1172 3053 
L 1172 1153 
Q 1172 725 1289 603 
Q 1406 481 1766 481 
L 2356 481 
L 2356 0 
L 1766 0 
Q 1100 0 847 248 
Q 594 497 594 1153 
L 594 3053 
L 172 3053 
L 172 3500 
L 594 3500 
L 594 4494 
L 1172 4494 
z
" transform="scale(0.015625)"/>
       <path id="DejaVuSans-72" d="M 2631 2963 
Q 2534 3019 2420 3045 
Q 2306 3072 2169 3072 
Q 1681 3072 1420 2755 
Q 1159 2438 1159 1844 
L 1159 0 
L 581 0 
L 581 3500 
L 1159 3500 
L 1159 2956 
Q 1341 3275 1631 3429 
Q 1922 3584 2338 3584 
Q 2397 3584 2469 3576 
Q 2541 3569 2628 3553 
L 2631 2963 
z
" transform="scale(0.015625)"/>
       <path id="DejaVuSans-6f" d="M 1959 3097 
Q 1497 3097 1228 2736 
Q 959 2375 959 1747 
Q 959 1119 1226 758 
Q 1494 397 1959 397 
Q 2419 397 2687 759 
Q 2956 1122 2956 1747 
Q 2956 2369 2687 2733 
Q 2419 3097 1959 3097 
z
M 1959 3584 
Q 2709 3584 3137 3096 
Q 3566 2609 3566 1747 
Q 3566 888 3137 398 
Q 2709 -91 1959 -91 
Q 1206 -91 779 398 
Q 353 888 353 1747 
Q 353 2609 779 3096 
Q 1206 3584 1959 3584 
z
" transform="scale(0.015625)"/>
       <path id="DejaVuSans-66" d="M 2375 4863 
L 2375 4384 
L 1825 4384 
Q 1516 4384 1395 4259 
Q 1275 4134 1275 3809 
L 1275 3500 
L 2222 3500 
L 2222 3053 
L 1275 3053 
L 1275 0 
L 697 0 
L 697 3053 
L 147 3053 
L 147 3500 
L 697 3500 
L 697 3744 
Q 697 4328 969 4595 
Q 1241 4863 1831 4863 
L 2375 4863 
z
" transform="scale(0.015625)"/>
       <path id="DejaVuSans-6d" d="M 3328 2828 
Q 3544 3216 3844 3400 
Q 4144 3584 4550 3584 
Q 5097 3584 5394 3201 
Q 5691 2819 5691 2113 
L 5691 0 
L 5113 0 
L 5113 2094 
Q 5113 2597 4934 2840 
Q 4756 3084 4391 3084 
Q 3944 3084 3684 2787 
Q 3425 2491 3425 1978 
L 3425 0 
L 2847 0 
L 2847 2094 
Q 2847 2600 2669 2842 
Q 2491 3084 2119 3084 
Q 1678 3084 1418 2786 
Q 1159 2488 1159 1978 
L 1159 0 
L 581 0 
L 581 3500 
L 1159 3500 
L 1159 2956 
Q 1356 3278 1631 3431 
Q 1906 3584 2284 3584 
Q 2666 3584 2933 3390 
Q 3200 3197 3328 2828 
z
" transform="scale(0.015625)"/>
       <path id="DejaVuSans-73" d="M 2834 3397 
L 2834 2853 
Q 2591 2978 2328 3040 
Q 2066 3103 1784 3103 
Q 1356 3103 1142 2972 
Q 928 2841 928 2578 
Q 928 2378 1081 2264 
Q 1234 2150 1697 2047 
L 1894 2003 
Q 2506 1872 2764 1633 
Q 3022 1394 3022 966 
Q 3022 478 2636 193 
Q 2250 -91 1575 -91 
Q 1294 -91 989 -36 
Q 684 19 347 128 
L 347 722 
Q 666 556 975 473 
Q 1284 391 1588 391 
Q 1994 391 2212 530 
Q 2431 669 2431 922 
Q 2431 1156 2273 1281 
Q 2116 1406 1581 1522 
L 1381 1569 
Q 847 1681 609 1914 
Q 372 2147 372 2553 
Q 372 3047 722 3315 
Q 1072 3584 1716 3584 
Q 2034 3584 2315 3537 
Q 2597 3491 2834 3397 
z
" transform="scale(0.015625)"/>
      </defs>
      <use xlink:href="#DejaVuSans-6c"/>
      <use xlink:href="#DejaVuSans-69" transform="translate(27.783203 0)"/>
      <use xlink:href="#DejaVuSans-67" transform="translate(55.566406 0)"/>
      <use xlink:href="#DejaVuSans-61" transform="translate(119.042969 0)"/>
      <use xlink:href="#DejaVuSans-6e" transform="translate(180.322266 0)"/>
      <use xlink:href="#DejaVuSans-64" transform="translate(243.701172 0)"/>
      <use xlink:href="#DejaVuSans-20" transform="translate(307.177734 0)"/>
      <use xlink:href="#DejaVuSans-63" transform="translate(338.964844 0)"/>
      <use xlink:href="#DejaVuSans-65" transform="translate(393.945312 0)"/>
      <use xlink:href="#DejaVuSans-6e" transform="translate(455.46875 0)"/>
      <use xlink:href="#DejaVuSans-74" transform="translate(518.847656 0)"/>
      <use xlink:href="#DejaVuSans-65" transform="translate(558.056641 0)"/>
      <use xlink:href="#DejaVuSans-72" transform="translate(619.580078 0)"/>
      <use xlink:href="#DejaVuSans-20" transform="translate(660.693359 0)"/>
      <use xlink:href="#DejaVuSans-6f" transform="translate(692.480469 0)"/>
      <use xlink:href="#DejaVuSans-66" transform="translate(753.662109 0)"/>
      <use xlink:href="#DejaVuSans-20" transform="translate(788.867188 0)"/>
      <use xlink:href="#DejaVuSans-6d" transform="translate(820.654297 0)"/>
      <use xlink:href="#DejaVuSans-61" transform="translate(918.066406 0)"/>
      <use xlink:href="#DejaVuSans-73" transform="translate(979.345703 0)"/>
      <use xlink:href="#DejaVuSans-73" transform="translate(1031.445312 0)"/>
      <use xlink:href="#DejaVuSans-20" transform="translate(1083.544922 0)"/>
      <use xlink:href="#DejaVuSans-64" transform="translate(1115.332031 0)"/>
      <use xlink:href="#DejaVuSans-69" transform="translate(1178.808594 0)"/>
      <use xlink:href="#DejaVuSans-73" transform="translate(1206.591797 0)"/>
      <use xlink:href="#DejaVuSans-74" transform="translate(1258.691406 0)"/>
      <use xlink:href="#DejaVuSans-61" transform="translate(1297.900391 0)"/>
      <use xlink:href="#DejaVuSans-6e" transform="translate(1359.179688 0)"/>
      <use xlink:href="#DejaVuSans-63" transform="translate(1422.558594 0)"/>
      <use xlink:href="#DejaVuSans-65" transform="translate(1477.539062 0)"/>
     </g>
     <!-- from bound state (Angstroms) -->
     <g transform="translate(143.645156 354.77925) scale(0.1 -0.1)">
      <defs>
       <path id="DejaVuSans-62" d="M 3116 1747 
Q 3116 2381 2855 2742 
Q 2594 3103 2138 3103 
Q 1681 3103 1420 2742 
Q 1159 2381 1159 1747 
Q 1159 1113 1420 752 
Q 1681 391 2138 391 
Q 2594 391 2855 752 
Q 3116 1113 3116 1747 
z
M 1159 2969 
Q 1341 3281 1617 3432 
Q 1894 3584 2278 3584 
Q 2916 3584 3314 3078 
Q 3713 2572 3713 1747 
Q 3713 922 3314 415 
Q 2916 -91 2278 -91 
Q 1894 -91 1617 61 
Q 1341 213 1159 525 
L 1159 0 
L 581 0 
L 581 4863 
L 1159 4863 
L 1159 2969 
z
" transform="scale(0.015625)"/>
       <path id="DejaVuSans-75" d="M 544 1381 
L 544 3500 
L 1119 3500 
L 1119 1403 
Q 1119 906 1312 657 
Q 1506 409 1894 409 
Q 2359 409 2629 706 
Q 2900 1003 2900 1516 
L 2900 3500 
L 3475 3500 
L 3475 0 
L 2900 0 
L 2900 538 
Q 2691 219 2414 64 
Q 2138 -91 1772 -91 
Q 1169 -91 856 284 
Q 544 659 544 1381 
z
M 1991 3584 
L 1991 3584 
z
" transform="scale(0.015625)"/>
       <path id="DejaVuSans-28" d="M 1984 4856 
Q 1566 4138 1362 3434 
Q 1159 2731 1159 2009 
Q 1159 1288 1364 580 
Q 1569 -128 1984 -844 
L 1484 -844 
Q 1016 -109 783 600 
Q 550 1309 550 2009 
Q 550 2706 781 3412 
Q 1013 4119 1484 4856 
L 1984 4856 
z
" transform="scale(0.015625)"/>
       <path id="DejaVuSans-41" d="M 2188 4044 
L 1331 1722 
L 3047 1722 
L 2188 4044 
z
M 1831 4666 
L 2547 4666 
L 4325 0 
L 3669 0 
L 3244 1197 
L 1141 1197 
L 716 0 
L 50 0 
L 1831 4666 
z
" transform="scale(0.015625)"/>
       <path id="DejaVuSans-29" d="M 513 4856 
L 1013 4856 
Q 1481 4119 1714 3412 
Q 1947 2706 1947 2009 
Q 1947 1309 1714 600 
Q 1481 -109 1013 -844 
L 513 -844 
Q 928 -128 1133 580 
Q 1338 1288 1338 2009 
Q 1338 2731 1133 3434 
Q 928 4138 513 4856 
z
" transform="scale(0.015625)"/>
      </defs>
      <use xlink:href="#DejaVuSans-66"/>
      <use xlink:href="#DejaVuSans-72" transform="translate(35.205078 0)"/>
      <use xlink:href="#DejaVuSans-6f" transform="translate(74.068359 0)"/>
      <use xlink:href="#DejaVuSans-6d" transform="translate(135.25 0)"/>
      <use xlink:href="#DejaVuSans-20" transform="translate(232.662109 0)"/>
      <use xlink:href="#DejaVuSans-62" transform="translate(264.449219 0)"/>
      <use xlink:href="#DejaVuSans-6f" transform="translate(327.925781 0)"/>
      <use xlink:href="#DejaVuSans-75" transform="translate(389.107422 0)"/>
      <use xlink:href="#DejaVuSans-6e" transform="translate(452.486328 0)"/>
      <use xlink:href="#DejaVuSans-64" transform="translate(515.865234 0)"/>
      <use xlink:href="#DejaVuSans-20" transform="translate(579.341797 0)"/>
      <use xlink:href="#DejaVuSans-73" transform="translate(611.128906 0)"/>
      <use xlink:href="#DejaVuSans-74" transform="translate(663.228516 0)"/>
      <use xlink:href="#DejaVuSans-61" transform="translate(702.4375 0)"/>
      <use xlink:href="#DejaVuSans-74" transform="translate(763.716797 0)"/>
      <use xlink:href="#DejaVuSans-65" transform="translate(802.925781 0)"/>
      <use xlink:href="#DejaVuSans-20" transform="translate(864.449219 0)"/>
      <use xlink:href="#DejaVuSans-28" transform="translate(896.236328 0)"/>
      <use xlink:href="#DejaVuSans-41" transform="translate(935.25 0)"/>
      <use xlink:href="#DejaVuSans-6e" transform="translate(1003.658203 0)"/>
      <use xlink:href="#DejaVuSans-67" transform="translate(1067.037109 0)"/>
      <use xlink:href="#DejaVuSans-73" transform="translate(1130.513672 0)"/>
      <use xlink:href="#DejaVuSans-74" transform="translate(1182.613281 0)"/>
      <use xlink:href="#DejaVuSans-72" transform="translate(1221.822266 0)"/>
      <use xlink:href="#DejaVuSans-6f" transform="translate(1260.685547 0)"/>
      <use xlink:href="#DejaVuSans-6d" transform="translate(1321.867188 0)"/>
      <use xlink:href="#DejaVuSans-73" transform="translate(1419.279297 0)"/>
      <use xlink:href="#DejaVuSans-29" transform="translate(1471.378906 0)"/>
     </g>
    </g>
   </g>
   <g id="matplotlib.axis_2">
    <g id="ytick_1">
     <g id="line2d_7">
      <defs>
       <path id="me271324ffb" d="M 0 0 
L -3.5 0 
" style="stroke: #000000; stroke-width: 0.8"/>
      </defs>
      <g>
       <use xlink:href="#me271324ffb" x="40.603125" y="271.748183" style="stroke: #000000; stroke-width: 0.8"/>
      </g>
     </g>
     <g id="text_8">
      <!-- 5 -->
      <g transform="translate(27.240625 275.547402) scale(0.1 -0.1)">
       <use xlink:href="#DejaVuSans-35"/>
      </g>
     </g>
    </g>
    <g id="ytick_2">
     <g id="line2d_8">
      <g>
       <use xlink:href="#me271324ffb" x="40.603125" y="222.239833" style="stroke: #000000; stroke-width: 0.8"/>
      </g>
     </g>
     <g id="text_9">
      <!-- 10 -->
      <g transform="translate(20.878125 226.039052) scale(0.1 -0.1)">
       <use xlink:href="#DejaVuSans-31"/>
       <use xlink:href="#DejaVuSans-30" transform="translate(63.623047 0)"/>
      </g>
     </g>
    </g>
    <g id="ytick_3">
     <g id="line2d_9">
      <g>
       <use xlink:href="#me271324ffb" x="40.603125" y="172.731484" style="stroke: #000000; stroke-width: 0.8"/>
      </g>
     </g>
     <g id="text_10">
      <!-- 15 -->
      <g transform="translate(20.878125 176.530702) scale(0.1 -0.1)">
       <use xlink:href="#DejaVuSans-31"/>
       <use xlink:href="#DejaVuSans-35" transform="translate(63.623047 0)"/>
      </g>
     </g>
    </g>
    <g id="ytick_4">
     <g id="line2d_10">
      <g>
       <use xlink:href="#me271324ffb" x="40.603125" y="123.223134" style="stroke: #000000; stroke-width: 0.8"/>
      </g>
     </g>
     <g id="text_11">
      <!-- 20 -->
      <g transform="translate(20.878125 127.022353) scale(0.1 -0.1)">
       <use xlink:href="#DejaVuSans-32"/>
       <use xlink:href="#DejaVuSans-30" transform="translate(63.623047 0)"/>
      </g>
     </g>
    </g>
    <g id="ytick_5">
     <g id="line2d_11">
      <g>
       <use xlink:href="#me271324ffb" x="40.603125" y="73.714784" style="stroke: #000000; stroke-width: 0.8"/>
      </g>
     </g>
     <g id="text_12">
      <!-- 25 -->
      <g transform="translate(20.878125 77.514003) scale(0.1 -0.1)">
       <use xlink:href="#DejaVuSans-32"/>
       <use xlink:href="#DejaVuSans-35" transform="translate(63.623047 0)"/>
      </g>
     </g>
    </g>
    <g id="text_13">
     <!-- free energy (kT) -->
     <g transform="translate(14.798438 222.557469) rotate(-90) scale(0.1 -0.1)">
      <defs>
       <path id="DejaVuSans-79" d="M 2059 -325 
Q 1816 -950 1584 -1140 
Q 1353 -1331 966 -1331 
L 506 -1331 
L 506 -850 
L 844 -850 
Q 1081 -850 1212 -737 
Q 1344 -625 1503 -206 
L 1606 56 
L 191 3500 
L 800 3500 
L 1894 763 
L 2988 3500 
L 3597 3500 
L 2059 -325 
z
" transform="scale(0.015625)"/>
       <path id="DejaVuSans-6b" d="M 581 4863 
L 1159 4863 
L 1159 1991 
L 2875 3500 
L 3609 3500 
L 1753 1863 
L 3688 0 
L 2938 0 
L 1159 1709 
L 1159 0 
L 581 0 
L 581 4863 
z
" transform="scale(0.015625)"/>
       <path id="DejaVuSans-54" d="M -19 4666 
L 3928 4666 
L 3928 4134 
L 2272 4134 
L 2272 0 
L 1638 0 
L 1638 4134 
L -19 4134 
L -19 4666 
z
" transform="scale(0.015625)"/>
      </defs>
      <use xlink:href="#DejaVuSans-66"/>
      <use xlink:href="#DejaVuSans-72" transform="translate(35.205078 0)"/>
      <use xlink:href="#DejaVuSans-65" transform="translate(74.068359 0)"/>
      <use xlink:href="#DejaVuSans-65" transform="translate(135.591797 0)"/>
      <use xlink:href="#DejaVuSans-20" transform="translate(197.115234 0)"/>
      <use xlink:href="#DejaVuSans-65" transform="translate(228.902344 0)"/>
      <use xlink:href="#DejaVuSans-6e" transform="translate(290.425781 0)"/>
      <use xlink:href="#DejaVuSans-65" transform="translate(353.804688 0)"/>
      <use xlink:href="#DejaVuSans-72" transform="translate(415.328125 0)"/>
      <use xlink:href="#DejaVuSans-67" transform="translate(454.691406 0)"/>
      <use xlink:href="#DejaVuSans-79" transform="translate(518.167969 0)"/>
      <use xlink:href="#DejaVuSans-20" transform="translate(577.347656 0)"/>
      <use xlink:href="#DejaVuSans-28" transform="translate(609.134766 0)"/>
      <use xlink:href="#DejaVuSans-6b" transform="translate(648.148438 0)"/>
      <use xlink:href="#DejaVuSans-54" transform="translate(706.058594 0)"/>
      <use xlink:href="#DejaVuSans-29" transform="translate(767.142578 0)"/>
     </g>
    </g>
   </g>
   <g id="line2d_12">
    <path d="M 56.835852 273.46005 
L 58.160973 290.300335 
L 59.486093 297.567009 
L 60.811214 300.780155 
L 62.136335 301.029946 
L 63.461455 300.064788 
L 64.786576 297.744225 
L 70.087058 285.66912 
L 71.412179 284.138836 
L 74.06242 283.019371 
L 75.387541 281.965464 
L 76.712661 279.798097 
L 78.037782 276.617522 
L 79.362902 274.186201 
L 80.688023 272.562941 
L 82.013144 272.350266 
L 83.338264 272.708943 
L 84.663385 272.367053 
L 85.988505 272.335942 
L 87.313626 270.793026 
L 88.638747 268.980596 
L 91.288988 263.565224 
L 92.614108 260.186544 
L 93.939229 258.049536 
L 95.264349 256.453302 
L 96.58947 256.021172 
L 97.914591 255.427762 
L 99.239711 255.001924 
L 100.564832 255.478634 
L 101.889952 255.20028 
L 103.215073 255.474686 
L 104.540194 254.717734 
L 105.865314 254.098343 
L 107.190435 253.704686 
L 109.840676 251.938333 
L 111.165797 251.338132 
L 112.490917 250.416755 
L 113.816038 250.307008 
L 115.141158 249.783389 
L 116.466279 249.566767 
L 117.7914 248.231653 
L 119.11652 247.962017 
L 120.441641 247.245738 
L 121.766761 246.987149 
L 123.091882 246.305464 
L 124.417003 246.413043 
L 125.742123 245.58025 
L 127.067244 245.421569 
L 128.392364 244.746432 
L 129.717485 243.905946 
L 131.042606 243.556981 
L 132.367726 242.382009 
L 133.692847 241.935277 
L 135.017967 240.835943 
L 136.343088 239.377029 
L 138.993329 238.10449 
L 140.31845 236.254654 
L 141.64357 235.900775 
L 142.968691 234.280101 
L 144.293811 231.533569 
L 145.618932 229.202098 
L 146.944053 227.279911 
L 148.269173 226.911106 
L 149.594294 225.067383 
L 150.919414 224.689967 
L 152.244535 223.235596 
L 153.569656 223.01233 
L 154.894776 223.04221 
L 156.219897 222.237054 
L 157.545017 222.960258 
L 158.870138 224.10227 
L 160.195259 223.820083 
L 161.520379 224.615212 
L 162.8455 224.191557 
L 164.17062 223.397801 
L 166.820862 222.365459 
L 169.471103 219.054792 
L 170.796223 217.359385 
L 173.446465 215.337775 
L 174.771585 213.897622 
L 176.096706 213.087843 
L 177.421826 211.730357 
L 178.746947 211.70918 
L 180.072067 210.317049 
L 181.397188 209.916414 
L 182.722309 207.1863 
L 184.047429 206.588905 
L 185.37255 203.448965 
L 186.69767 202.536933 
L 188.022791 199.998414 
L 189.347912 197.799242 
L 190.673032 196.67339 
L 191.998153 193.700699 
L 193.323273 191.752049 
L 194.648394 188.819578 
L 195.973515 187.68826 
L 197.298635 185.926579 
L 198.623756 183.107546 
L 199.948876 182.447206 
L 201.273997 182.281824 
L 202.599118 181.924782 
L 203.924238 181.053529 
L 205.249359 180.358362 
L 206.574479 180.162524 
L 210.549841 181.630203 
L 211.874962 181.328477 
L 213.200082 181.918761 
L 214.525203 181.617221 
L 215.850324 180.127887 
L 217.175444 181.178186 
L 218.500565 180.559124 
L 219.825685 179.217906 
L 221.150806 179.145629 
L 222.475926 178.590631 
L 223.801047 176.702955 
L 225.126168 174.57001 
L 226.451288 173.345566 
L 227.776409 171.262207 
L 229.101529 168.724191 
L 230.42665 168.234518 
L 231.751771 165.446409 
L 233.076891 163.563183 
L 235.727132 158.601128 
L 237.052253 157.652167 
L 238.377374 156.246526 
L 239.702494 153.911291 
L 241.027615 153.106022 
L 242.352735 153.42829 
L 245.002977 151.987485 
L 246.328097 152.012639 
L 247.653218 150.621783 
L 248.978338 150.025359 
L 250.303459 147.407686 
L 251.62858 147.783519 
L 252.9537 145.124254 
L 254.278821 143.575174 
L 255.603941 140.936986 
L 256.929062 139.25545 
L 258.254183 139.373146 
L 259.579303 137.376094 
L 260.904424 137.315536 
L 262.229544 134.036367 
L 263.554665 134.565376 
L 264.879785 134.744097 
L 266.204906 134.485979 
L 267.530027 134.588862 
L 268.855147 132.105873 
L 270.180268 134.167791 
L 271.505388 129.183776 
L 272.830509 131.538534 
L 274.15563 130.192425 
L 275.48075 130.399793 
L 276.805871 130.315194 
L 278.130991 129.185376 
L 279.456112 130.483988 
L 280.781233 129.821985 
L 282.106353 130.858928 
L 283.431474 128.712644 
L 284.756594 133.039483 
L 286.081715 133.060298 
L 287.406836 135.058665 
L 288.731956 133.014473 
L 290.057077 135.083126 
L 292.707318 132.471554 
L 294.032439 133.894144 
L 295.357559 133.294206 
L 296.68268 133.514352 
L 298.0078 131.625478 
L 299.332921 134.174043 
L 300.658042 133.472922 
L 301.983162 134.769889 
L 303.308283 132.932943 
L 304.633403 130.284571 
L 305.958524 129.751831 
L 307.283644 130.766668 
L 308.608765 130.086989 
L 309.933886 129.97069 
L 311.259006 125.903808 
L 312.584127 126.602575 
L 313.909247 123.587418 
L 315.234368 122.391218 
L 316.559489 120.241331 
L 317.884609 120.910644 
L 319.20973 116.895174 
L 320.53485 111.747116 
L 321.859971 111.59666 
L 323.185092 113.375426 
L 324.510212 114.238453 
L 325.835333 112.484479 
L 327.160453 111.985257 
L 328.485574 107.093218 
L 329.810695 112.226179 
L 331.135815 109.191257 
L 332.460936 108.539618 
L 333.786056 106.43301 
L 335.111177 100.693126 
L 336.436298 107.047421 
L 337.761418 105.599215 
L 339.086539 101.879561 
L 340.411659 95.946994 
L 341.73678 82.761612 
L 343.061901 86.932281 
L 344.387021 87.378314 
L 347.037262 73.921049 
L 349.687503 73.921049 
L 349.687503 73.921049 
" clip-path="url(#p80f8cac48b)" style="fill: none; stroke: #0000ff; stroke-width: 1.5; stroke-linecap: square"/>
   </g>
   <g id="line2d_13">
    <path d="M 56.835852 269.017882 
L 58.160973 288.147306 
L 59.486093 296.925451 
L 60.811214 300.843012 
L 62.136335 301.828157 
L 63.461455 299.818834 
L 64.786576 295.809885 
L 67.436817 285.141778 
L 68.761938 281.589174 
L 70.087058 279.922432 
L 71.412179 280.337346 
L 72.737299 281.715349 
L 74.06242 281.704921 
L 75.387541 281.359623 
L 78.037782 278.616296 
L 79.362902 277.416238 
L 80.688023 276.856322 
L 82.013144 277.545737 
L 83.338264 277.969692 
L 84.663385 278.017564 
L 85.988505 278.278672 
L 87.313626 277.697913 
L 88.638747 276.120379 
L 89.963867 274.193217 
L 91.288988 271.684355 
L 93.939229 266.268083 
L 95.264349 262.413487 
L 97.914591 258.283025 
L 99.239711 258.972969 
L 100.564832 258.615379 
L 101.889952 258.804276 
L 103.215073 259.601257 
L 104.540194 260.550713 
L 105.865314 261.016756 
L 108.515555 262.290416 
L 109.840676 262.476875 
L 111.165797 261.980146 
L 112.490917 261.351864 
L 113.816038 261.098956 
L 115.141158 260.396327 
L 116.466279 260.062756 
L 117.7914 260.576975 
L 119.11652 259.465976 
L 120.441641 259.913871 
L 121.766761 260.65227 
L 123.091882 260.773921 
L 124.417003 260.333722 
L 125.742123 261.947914 
L 128.392364 262.428256 
L 129.717485 261.467445 
L 131.042606 261.099174 
L 132.367726 259.886682 
L 133.692847 260.403384 
L 135.017967 259.394874 
L 136.343088 258.634861 
L 137.668208 259.152613 
L 138.993329 259.098892 
L 140.31845 259.50649 
L 142.968691 257.785554 
L 145.618932 255.6351 
L 146.944053 253.153248 
L 148.269173 250.962419 
L 149.594294 249.086689 
L 150.919414 244.640671 
L 152.244535 241.240316 
L 153.569656 234.586722 
L 154.894776 234.519584 
L 156.219897 232.595849 
L 157.545017 234.894818 
L 158.870138 234.567695 
L 160.195259 234.614703 
L 161.520379 235.45178 
L 162.8455 235.542072 
L 164.17062 234.591319 
L 165.495741 237.410709 
L 166.820862 237.756705 
L 168.145982 238.549118 
L 170.796223 239.682646 
L 172.121344 239.519378 
L 173.446465 239.647335 
L 174.771585 239.574287 
L 176.096706 238.826779 
L 177.421826 237.65315 
L 178.746947 235.952442 
L 180.072067 235.330263 
L 181.397188 234.484347 
L 182.722309 232.425256 
L 184.047429 229.989333 
L 185.37255 228.786722 
L 186.69767 226.190278 
L 188.022791 223.852461 
L 189.347912 222.468646 
L 190.673032 220.470125 
L 191.998153 219.055063 
L 193.323273 216.091256 
L 194.648394 214.908252 
L 195.973515 214.033189 
L 197.298635 211.14639 
L 198.623756 210.908966 
L 199.948876 211.21727 
L 201.273997 209.453229 
L 202.599118 208.823812 
L 203.924238 206.09545 
L 205.249359 205.912039 
L 206.574479 204.425884 
L 207.8996 204.285209 
L 209.224721 202.327637 
L 210.549841 202.78634 
L 211.874962 202.175036 
L 213.200082 200.759408 
L 214.525203 199.589131 
L 215.850324 199.543979 
L 217.175444 198.590948 
L 218.500565 198.082349 
L 219.825685 199.422204 
L 221.150806 199.995188 
L 222.475926 199.644358 
L 223.801047 199.779851 
L 225.126168 198.806734 
L 226.451288 199.302855 
L 227.776409 197.494371 
L 229.101529 197.483853 
L 230.42665 195.649493 
L 231.751771 194.520948 
L 233.076891 194.109724 
L 234.402012 192.724501 
L 235.727132 191.780562 
L 237.052253 189.811494 
L 238.377374 190.451611 
L 239.702494 187.676413 
L 241.027615 187.406327 
L 242.352735 188.275503 
L 243.677856 187.06174 
L 245.002977 186.199473 
L 246.328097 187.367665 
L 247.653218 187.461526 
L 248.978338 186.96724 
L 250.303459 187.180987 
L 251.62858 187.066408 
L 252.9537 185.36463 
L 254.278821 183.426222 
L 255.603941 183.190908 
L 256.929062 180.972287 
L 258.254183 181.276352 
L 259.579303 178.286797 
L 260.904424 177.710985 
L 262.229544 176.946408 
L 263.554665 175.062316 
L 264.879785 175.947331 
L 266.204906 175.363265 
L 267.530027 173.290823 
L 268.855147 177.058476 
L 270.180268 174.24079 
L 271.505388 175.736575 
L 272.830509 176.530956 
L 274.15563 175.564263 
L 275.48075 175.028372 
L 276.805871 175.210766 
L 278.130991 174.578038 
L 279.456112 173.259061 
L 280.781233 174.502789 
L 282.106353 171.168908 
L 283.431474 172.59561 
L 284.756594 172.147888 
L 286.081715 170.97265 
L 287.406836 170.339623 
L 288.731956 170.89148 
L 290.057077 169.844414 
L 291.382197 168.162225 
L 292.707318 168.016741 
L 294.032439 168.399013 
L 295.357559 166.760147 
L 296.68268 168.412888 
L 298.0078 168.613825 
L 299.332921 167.111762 
L 300.658042 166.354791 
L 301.983162 166.762927 
L 303.308283 166.380181 
L 304.633403 164.285364 
L 305.958524 166.945939 
L 307.283644 166.255114 
L 308.608765 166.117388 
L 309.933886 165.223116 
L 311.259006 165.172098 
L 312.584127 162.791216 
L 313.909247 163.366213 
L 315.234368 163.088814 
L 316.559489 161.512879 
L 317.884609 161.795898 
L 319.20973 160.499101 
L 320.53485 160.170786 
L 321.859971 159.139388 
L 323.185092 158.41125 
L 324.510212 156.198427 
L 325.835333 157.499684 
L 327.160453 156.553258 
L 328.485574 155.083425 
L 329.810695 157.820336 
L 331.135815 151.409933 
L 332.460936 148.428025 
L 333.786056 146.671576 
L 335.111177 144.399477 
L 336.436298 140.083609 
L 337.761418 138.809589 
L 339.086539 134.985293 
L 340.411659 132.72922 
L 341.73678 121.459546 
L 343.061901 122.206286 
L 344.387021 107.732917 
L 347.037262 110.973028 
L 348.362383 115.342972 
L 348.362383 115.342972 
" clip-path="url(#p80f8cac48b)" style="fill: none; stroke: #00ffff; stroke-width: 1.5; stroke-linecap: square"/>
   </g>
   <g id="line2d_14">
    <path d="M 56.835852 271.937818 
L 58.160973 290.687599 
L 59.486093 298.901568 
L 60.811214 302.250056 
L 62.136335 303.208875 
L 63.461455 301.886111 
L 64.786576 299.659217 
L 66.111696 296.299658 
L 67.436817 292.146339 
L 70.087058 282.720877 
L 74.06242 270.702695 
L 76.712661 260.867543 
L 78.037782 256.562904 
L 79.362902 254.454758 
L 80.688023 253.126953 
L 82.013144 252.621165 
L 83.338264 252.703662 
L 84.663385 254.025131 
L 85.988505 253.290874 
L 87.313626 253.92027 
L 88.638747 252.823964 
L 89.963867 253.181617 
L 91.288988 251.22569 
L 92.614108 251.440816 
L 93.939229 251.820543 
L 95.264349 252.879651 
L 96.58947 253.351581 
L 100.564832 255.599431 
L 101.889952 255.117297 
L 103.215073 254.220227 
L 105.865314 252.177993 
L 107.190435 251.793765 
L 108.515555 250.586583 
L 109.840676 249.903935 
L 111.165797 248.691529 
L 112.490917 250.114123 
L 113.816038 249.010745 
L 115.141158 248.579035 
L 116.466279 250.082071 
L 117.7914 249.015427 
L 121.766761 251.173286 
L 123.091882 250.49013 
L 124.417003 250.533758 
L 127.067244 249.09697 
L 128.392364 249.094043 
L 129.717485 248.400724 
L 131.042606 248.853637 
L 132.367726 249.820073 
L 133.692847 249.669579 
L 135.017967 249.045049 
L 136.343088 248.662237 
L 137.668208 248.400224 
L 138.993329 247.595934 
L 140.31845 247.517999 
L 142.968691 244.757858 
L 144.293811 242.927597 
L 145.618932 245.789641 
L 146.944053 242.541368 
L 148.269173 244.362497 
L 149.594294 244.084794 
L 150.919414 245.257641 
L 152.244535 247.511406 
L 154.894776 250.385603 
L 157.545017 255.63361 
L 158.870138 255.928975 
L 161.520379 255.169047 
L 162.8455 253.035037 
L 164.17062 252.414963 
L 165.495741 249.229312 
L 166.820862 244.769466 
L 169.471103 238.06242 
L 170.796223 237.455526 
L 172.121344 235.523211 
L 173.446465 232.856109 
L 174.771585 232.53336 
L 176.096706 231.125068 
L 178.746947 230.210853 
L 180.072067 227.035322 
L 181.397188 226.371957 
L 182.722309 222.576412 
L 184.047429 220.777788 
L 185.37255 219.395889 
L 186.69767 218.345123 
L 188.022791 216.235946 
L 189.347912 214.846445 
L 190.673032 214.857928 
L 191.998153 213.172233 
L 193.323273 213.152844 
L 194.648394 212.481671 
L 195.973515 210.733008 
L 197.298635 209.495303 
L 198.623756 208.997056 
L 199.948876 206.473957 
L 201.273997 204.554646 
L 202.599118 201.896521 
L 203.924238 198.826744 
L 206.574479 193.316311 
L 207.8996 188.645875 
L 209.224721 184.657179 
L 210.549841 181.642896 
L 211.874962 179.046639 
L 213.200082 172.084351 
L 214.525203 169.781506 
L 215.850324 170.547023 
L 217.175444 165.346252 
L 218.500565 165.578861 
L 219.825685 166.666763 
L 221.150806 161.627102 
L 222.475926 160.127678 
L 223.801047 159.411867 
L 225.126168 157.125264 
L 226.451288 155.902196 
L 227.776409 154.417833 
L 229.101529 152.754679 
L 230.42665 152.15523 
L 231.751771 149.285189 
L 233.076891 145.900435 
L 234.402012 143.466148 
L 235.727132 140.16522 
L 237.052253 141.006832 
L 238.377374 136.768398 
L 239.702494 133.198483 
L 241.027615 134.385026 
L 242.352735 133.589902 
L 243.677856 129.869986 
L 245.002977 130.499477 
L 246.328097 128.766797 
L 247.653218 129.10453 
L 248.978338 126.206779 
L 250.303459 128.252492 
L 251.62858 127.319938 
L 252.9537 123.495917 
L 254.278821 125.665609 
L 255.603941 125.089826 
L 256.929062 123.694427 
L 258.254183 120.86725 
L 259.579303 123.423133 
L 260.904424 119.975639 
L 262.229544 122.283677 
L 263.554665 119.247117 
L 264.879785 121.801085 
L 266.204906 116.602688 
L 267.530027 115.325505 
L 268.855147 114.565915 
L 270.180268 111.78151 
L 271.505388 117.852712 
L 272.830509 112.316261 
L 275.48075 117.019411 
L 276.805871 111.289449 
L 279.456112 114.620897 
L 280.781233 116.456661 
L 282.106353 117.903363 
L 283.431474 112.836985 
L 284.756594 113.265763 
L 286.081715 108.665323 
L 287.406836 110.888979 
L 290.057077 109.810533 
L 291.382197 110.447736 
L 292.707318 101.491386 
L 294.032439 109.457683 
L 295.357559 106.077408 
L 298.0078 105.337552 
L 299.332921 105.278569 
L 300.658042 103.194204 
L 301.983162 103.136243 
L 303.308283 100.23427 
L 304.633403 105.219021 
L 305.958524 103.516317 
L 308.608765 102.234269 
L 309.933886 99.380275 
L 311.259006 97.893744 
L 312.584127 100.835138 
L 313.909247 92.968052 
L 315.234368 97.723786 
L 316.559489 94.316503 
L 317.884609 97.081345 
L 319.20973 96.540793 
L 320.53485 92.672439 
L 321.859971 93.068089 
L 323.185092 91.368638 
L 324.510212 91.857341 
L 325.835333 91.359132 
L 327.160453 90.154133 
L 328.485574 77.288451 
L 329.810695 91.185328 
L 331.135815 80.297914 
L 332.460936 83.662462 
L 333.786056 85.804748 
L 335.111177 79.411649 
L 336.436298 74.696639 
L 337.761418 70.716972 
L 339.086539 81.878819 
L 340.411659 81.630057 
L 341.73678 62.061581 
L 343.061901 61.288875 
L 344.387021 78.218349 
L 345.712142 68.38589 
L 347.037262 70.802035 
L 348.362383 80.191145 
L 349.687503 63.853657 
L 351.012624 78.399913 
L 352.337745 62.449734 
L 353.662865 71.536598 
L 353.662865 71.536598 
" clip-path="url(#p80f8cac48b)" style="fill: none; stroke: #ff0000; stroke-width: 1.5; stroke-linecap: square"/>
   </g>
   <g id="line2d_15">
    <path d="M 56.835852 252.771384 
L 58.160973 273.769888 
L 59.486093 282.446858 
L 60.811214 287.006714 
L 62.136335 290.310942 
L 63.461455 293.127994 
L 64.786576 295.300968 
L 66.111696 297.249138 
L 67.436817 298.546483 
L 68.761938 298.98619 
L 70.087058 298.656812 
L 71.412179 297.013658 
L 72.737299 294.281994 
L 74.06242 290.527937 
L 78.037782 276.367038 
L 79.362902 273.675899 
L 80.688023 272.950444 
L 82.013144 272.571264 
L 83.338264 272.621355 
L 84.663385 272.078373 
L 85.988505 270.657253 
L 87.313626 268.986573 
L 89.963867 265.097244 
L 91.288988 263.563461 
L 92.614108 261.814292 
L 93.939229 260.887488 
L 95.264349 260.354508 
L 96.58947 259.272138 
L 99.239711 258.306555 
L 100.564832 258.055614 
L 101.889952 256.833745 
L 103.215073 256.794103 
L 104.540194 257.552675 
L 105.865314 257.837896 
L 107.190435 257.809751 
L 108.515555 258.847175 
L 109.840676 258.05692 
L 111.165797 258.213072 
L 112.490917 259.239978 
L 113.816038 259.64796 
L 115.141158 258.612506 
L 116.466279 259.126773 
L 117.7914 258.559957 
L 119.11652 258.830645 
L 120.441641 258.377207 
L 121.766761 258.124079 
L 123.091882 258.097665 
L 124.417003 257.518917 
L 125.742123 256.363056 
L 127.067244 255.620681 
L 128.392364 253.95578 
L 129.717485 252.642738 
L 131.042606 251.922148 
L 133.692847 248.412304 
L 135.017967 246.077157 
L 136.343088 244.040709 
L 137.668208 242.564804 
L 140.31845 237.980767 
L 141.64357 236.052219 
L 142.968691 234.973118 
L 144.293811 231.689452 
L 145.618932 231.273085 
L 146.944053 228.661473 
L 148.269173 226.746353 
L 149.594294 225.069028 
L 150.919414 222.777634 
L 152.244535 221.51232 
L 153.569656 220.940524 
L 154.894776 219.330793 
L 156.219897 219.604938 
L 157.545017 217.477224 
L 158.870138 216.832162 
L 161.520379 214.19622 
L 162.8455 214.121551 
L 164.17062 213.487446 
L 165.495741 212.578985 
L 166.820862 211.445964 
L 168.145982 212.51768 
L 169.471103 212.934188 
L 170.796223 211.664466 
L 172.121344 212.040999 
L 173.446465 211.770121 
L 174.771585 211.21072 
L 176.096706 210.007895 
L 177.421826 210.675822 
L 178.746947 208.487674 
L 180.072067 206.573788 
L 181.397188 204.88242 
L 182.722309 201.789717 
L 184.047429 200.758199 
L 185.37255 199.395239 
L 186.69767 197.552301 
L 188.022791 196.03179 
L 189.347912 197.386613 
L 190.673032 195.314988 
L 191.998153 195.714821 
L 193.323273 195.223682 
L 194.648394 194.251707 
L 195.973515 194.029059 
L 197.298635 192.632819 
L 198.623756 191.919998 
L 199.948876 190.214692 
L 201.273997 190.517723 
L 202.599118 189.630457 
L 203.924238 188.320539 
L 205.249359 189.599718 
L 206.574479 188.31796 
L 209.224721 188.530422 
L 210.549841 188.097895 
L 211.874962 190.329765 
L 213.200082 189.636233 
L 214.525203 188.758349 
L 215.850324 189.544413 
L 217.175444 189.540026 
L 218.500565 188.451171 
L 219.825685 187.687979 
L 221.150806 187.789112 
L 222.475926 186.525258 
L 223.801047 186.521001 
L 225.126168 184.816844 
L 226.451288 183.819249 
L 227.776409 184.511113 
L 230.42665 183.002945 
L 231.751771 182.47318 
L 233.076891 182.567011 
L 235.727132 180.103984 
L 237.052253 180.718866 
L 238.377374 177.645537 
L 239.702494 177.995518 
L 241.027615 176.453425 
L 242.352735 176.360744 
L 243.677856 174.556374 
L 245.002977 174.643881 
L 246.328097 174.054701 
L 247.653218 173.624075 
L 248.978338 171.980944 
L 250.303459 171.55136 
L 251.62858 169.617191 
L 252.9537 169.424865 
L 254.278821 170.433792 
L 255.603941 168.707743 
L 256.929062 167.911872 
L 258.254183 166.617843 
L 259.579303 164.781311 
L 260.904424 164.653046 
L 262.229544 163.34445 
L 263.554665 164.42814 
L 264.879785 162.025515 
L 266.204906 162.698846 
L 267.530027 161.41815 
L 268.855147 160.968571 
L 270.180268 161.25483 
L 271.505388 159.763985 
L 272.830509 157.91407 
L 274.15563 157.263147 
L 275.48075 155.679002 
L 276.805871 157.302572 
L 278.130991 153.749658 
L 279.456112 154.939056 
L 280.781233 154.470707 
L 282.106353 157.135482 
L 283.431474 156.747204 
L 284.756594 155.25027 
L 286.081715 153.283793 
L 287.406836 153.919366 
L 288.731956 154.162101 
L 290.057077 152.77303 
L 291.382197 153.250386 
L 292.707318 151.870361 
L 294.032439 152.135571 
L 295.357559 149.838875 
L 296.68268 149.992634 
L 298.0078 149.370953 
L 299.332921 147.946304 
L 300.658042 148.204183 
L 301.983162 149.226665 
L 303.308283 148.047313 
L 304.633403 147.976706 
L 305.958524 145.31089 
L 307.283644 145.847572 
L 308.608765 142.994257 
L 309.933886 142.059839 
L 311.259006 141.851503 
L 312.584127 139.815223 
L 313.909247 142.272646 
L 315.234368 140.874932 
L 316.559489 140.231599 
L 317.884609 141.156019 
L 319.20973 140.047401 
L 320.53485 138.118093 
L 321.859971 138.982287 
L 323.185092 137.787492 
L 324.510212 138.575925 
L 325.835333 135.286848 
L 327.160453 135.192256 
L 328.485574 135.94199 
L 329.810695 135.241141 
L 331.135815 132.653698 
L 332.460936 132.602325 
L 333.786056 130.876227 
L 335.111177 130.584514 
L 337.761418 129.166307 
L 339.086539 127.615015 
L 340.411659 130.398368 
L 341.73678 125.900995 
L 343.061901 125.332085 
L 344.387021 127.107673 
L 345.712142 125.941764 
L 347.037262 122.272676 
L 348.362383 122.559475 
L 349.687503 123.485275 
L 351.012624 121.281294 
L 352.337745 125.829203 
L 353.662865 119.83342 
L 354.987986 119.265267 
L 356.313106 126.204468 
L 357.638227 124.044051 
L 358.963348 123.662269 
L 360.288468 124.693291 
L 361.613589 122.940445 
L 362.938709 123.32771 
L 364.26383 118.705286 
L 365.588951 115.414562 
L 366.914071 99.656116 
L 368.239192 112.74638 
L 369.564312 110.010378 
L 370.889433 111.493098 
L 372.214554 97.673151 
L 373.539674 106.181868 
L 374.864795 102.452009 
L 376.189915 101.5714 
L 378.840157 97.766469 
L 381.490398 103.422479 
L 381.490398 103.422479 
" clip-path="url(#p80f8cac48b)" style="fill: none; stroke: #ffa500; stroke-width: 1.5; stroke-linecap: square"/>
   </g>
   <g id="patch_3">
    <path d="M 40.603125 315.304875 
L 40.603125 49.192875 
" style="fill: none; stroke: #000000; stroke-width: 0.8; stroke-linejoin: miter; stroke-linecap: square"/>
   </g>
   <g id="patch_4">
    <path d="M 397.723125 315.304875 
L 397.723125 49.192875 
" style="fill: none; stroke: #000000; stroke-width: 0.8; stroke-linejoin: miter; stroke-linecap: square"/>
   </g>
   <g id="patch_5">
    <path d="M 40.603125 315.304875 
L 397.723125 315.304875 
" style="fill: none; stroke: #000000; stroke-width: 0.8; stroke-linejoin: miter; stroke-linecap: square"/>
   </g>
   <g id="patch_6">
    <path d="M 40.603125 49.192875 
L 397.723125 49.192875 
" style="fill: none; stroke: #000000; stroke-width: 0.8; stroke-linejoin: miter; stroke-linecap: square"/>
   </g>
   <g id="text_14">
    <!-- Reweighted GLPG1837 amide -->
    <g transform="translate(129.81 16.318125) scale(0.12 -0.12)">
     <defs>
      <path id="DejaVuSans-52" d="M 2841 2188 
Q 3044 2119 3236 1894 
Q 3428 1669 3622 1275 
L 4263 0 
L 3584 0 
L 2988 1197 
Q 2756 1666 2539 1819 
Q 2322 1972 1947 1972 
L 1259 1972 
L 1259 0 
L 628 0 
L 628 4666 
L 2053 4666 
Q 2853 4666 3247 4331 
Q 3641 3997 3641 3322 
Q 3641 2881 3436 2590 
Q 3231 2300 2841 2188 
z
M 1259 4147 
L 1259 2491 
L 2053 2491 
Q 2509 2491 2742 2702 
Q 2975 2913 2975 3322 
Q 2975 3731 2742 3939 
Q 2509 4147 2053 4147 
L 1259 4147 
z
" transform="scale(0.015625)"/>
      <path id="DejaVuSans-77" d="M 269 3500 
L 844 3500 
L 1563 769 
L 2278 3500 
L 2956 3500 
L 3675 769 
L 4391 3500 
L 4966 3500 
L 4050 0 
L 3372 0 
L 2619 2869 
L 1863 0 
L 1184 0 
L 269 3500 
z
" transform="scale(0.015625)"/>
      <path id="DejaVuSans-68" d="M 3513 2113 
L 3513 0 
L 2938 0 
L 2938 2094 
Q 2938 2591 2744 2837 
Q 2550 3084 2163 3084 
Q 1697 3084 1428 2787 
Q 1159 2491 1159 1978 
L 1159 0 
L 581 0 
L 581 4863 
L 1159 4863 
L 1159 2956 
Q 1366 3272 1645 3428 
Q 1925 3584 2291 3584 
Q 2894 3584 3203 3211 
Q 3513 2838 3513 2113 
z
" transform="scale(0.015625)"/>
      <path id="DejaVuSans-47" d="M 3809 666 
L 3809 1919 
L 2778 1919 
L 2778 2438 
L 4434 2438 
L 4434 434 
Q 4069 175 3628 42 
Q 3188 -91 2688 -91 
Q 1594 -91 976 548 
Q 359 1188 359 2328 
Q 359 3472 976 4111 
Q 1594 4750 2688 4750 
Q 3144 4750 3555 4637 
Q 3966 4525 4313 4306 
L 4313 3634 
Q 3963 3931 3569 4081 
Q 3175 4231 2741 4231 
Q 1884 4231 1454 3753 
Q 1025 3275 1025 2328 
Q 1025 1384 1454 906 
Q 1884 428 2741 428 
Q 3075 428 3337 486 
Q 3600 544 3809 666 
z
" transform="scale(0.015625)"/>
      <path id="DejaVuSans-4c" d="M 628 4666 
L 1259 4666 
L 1259 531 
L 3531 531 
L 3531 0 
L 628 0 
L 628 4666 
z
" transform="scale(0.015625)"/>
      <path id="DejaVuSans-50" d="M 1259 4147 
L 1259 2394 
L 2053 2394 
Q 2494 2394 2734 2622 
Q 2975 2850 2975 3272 
Q 2975 3691 2734 3919 
Q 2494 4147 2053 4147 
L 1259 4147 
z
M 628 4666 
L 2053 4666 
Q 2838 4666 3239 4311 
Q 3641 3956 3641 3272 
Q 3641 2581 3239 2228 
Q 2838 1875 2053 1875 
L 1259 1875 
L 1259 0 
L 628 0 
L 628 4666 
z
" transform="scale(0.015625)"/>
      <path id="DejaVuSans-38" d="M 2034 2216 
Q 1584 2216 1326 1975 
Q 1069 1734 1069 1313 
Q 1069 891 1326 650 
Q 1584 409 2034 409 
Q 2484 409 2743 651 
Q 3003 894 3003 1313 
Q 3003 1734 2745 1975 
Q 2488 2216 2034 2216 
z
M 1403 2484 
Q 997 2584 770 2862 
Q 544 3141 544 3541 
Q 544 4100 942 4425 
Q 1341 4750 2034 4750 
Q 2731 4750 3128 4425 
Q 3525 4100 3525 3541 
Q 3525 3141 3298 2862 
Q 3072 2584 2669 2484 
Q 3125 2378 3379 2068 
Q 3634 1759 3634 1313 
Q 3634 634 3220 271 
Q 2806 -91 2034 -91 
Q 1263 -91 848 271 
Q 434 634 434 1313 
Q 434 1759 690 2068 
Q 947 2378 1403 2484 
z
M 1172 3481 
Q 1172 3119 1398 2916 
Q 1625 2713 2034 2713 
Q 2441 2713 2670 2916 
Q 2900 3119 2900 3481 
Q 2900 3844 2670 4047 
Q 2441 4250 2034 4250 
Q 1625 4250 1398 4047 
Q 1172 3844 1172 3481 
z
" transform="scale(0.015625)"/>
      <path id="DejaVuSans-37" d="M 525 4666 
L 3525 4666 
L 3525 4397 
L 1831 0 
L 1172 0 
L 2766 4134 
L 525 4134 
L 525 4666 
z
" transform="scale(0.015625)"/>
     </defs>
     <use xlink:href="#DejaVuSans-52"/>
     <use xlink:href="#DejaVuSans-65" transform="translate(64.982422 0)"/>
     <use xlink:href="#DejaVuSans-77" transform="translate(126.505859 0)"/>
     <use xlink:href="#DejaVuSans-65" transform="translate(208.292969 0)"/>
     <use xlink:href="#DejaVuSans-69" transform="translate(269.816406 0)"/>
     <use xlink:href="#DejaVuSans-67" transform="translate(297.599609 0)"/>
     <use xlink:href="#DejaVuSans-68" transform="translate(361.076172 0)"/>
     <use xlink:href="#DejaVuSans-74" transform="translate(424.455078 0)"/>
     <use xlink:href="#DejaVuSans-65" transform="translate(463.664062 0)"/>
     <use xlink:href="#DejaVuSans-64" transform="translate(525.1875 0)"/>
     <use xlink:href="#DejaVuSans-20" transform="translate(588.664062 0)"/>
     <use xlink:href="#DejaVuSans-47" transform="translate(620.451172 0)"/>
     <use xlink:href="#DejaVuSans-4c" transform="translate(697.941406 0)"/>
     <use xlink:href="#DejaVuSans-50" transform="translate(753.654297 0)"/>
     <use xlink:href="#DejaVuSans-47" transform="translate(813.957031 0)"/>
     <use xlink:href="#DejaVuSans-31" transform="translate(891.447266 0)"/>
     <use xlink:href="#DejaVuSans-38" transform="translate(955.070312 0)"/>
     <use xlink:href="#DejaVuSans-33" transform="translate(1018.693359 0)"/>
     <use xlink:href="#DejaVuSans-37" transform="translate(1082.316406 0)"/>
     <use xlink:href="#DejaVuSans-20" transform="translate(1145.939453 0)"/>
     <use xlink:href="#DejaVuSans-61" transform="translate(1177.726562 0)"/>
     <use xlink:href="#DejaVuSans-6d" transform="translate(1239.005859 0)"/>
     <use xlink:href="#DejaVuSans-69" transform="translate(1336.417969 0)"/>
     <use xlink:href="#DejaVuSans-64" transform="translate(1364.201172 0)"/>
     <use xlink:href="#DejaVuSans-65" transform="translate(1427.677734 0)"/>
    </g>
    <!-- derivative dissociation energy: -->
    <g transform="translate(127.19625 29.7555) scale(0.12 -0.12)">
     <defs>
      <path id="DejaVuSans-76" d="M 191 3500 
L 800 3500 
L 1894 563 
L 2988 3500 
L 3597 3500 
L 2284 0 
L 1503 0 
L 191 3500 
z
" transform="scale(0.015625)"/>
      <path id="DejaVuSans-3a" d="M 750 794 
L 1409 794 
L 1409 0 
L 750 0 
L 750 794 
z
M 750 3309 
L 1409 3309 
L 1409 2516 
L 750 2516 
L 750 3309 
z
" transform="scale(0.015625)"/>
     </defs>
     <use xlink:href="#DejaVuSans-64"/>
     <use xlink:href="#DejaVuSans-65" transform="translate(63.476562 0)"/>
     <use xlink:href="#DejaVuSans-72" transform="translate(125 0)"/>
     <use xlink:href="#DejaVuSans-69" transform="translate(166.113281 0)"/>
     <use xlink:href="#DejaVuSans-76" transform="translate(193.896484 0)"/>
     <use xlink:href="#DejaVuSans-61" transform="translate(253.076172 0)"/>
     <use xlink:href="#DejaVuSans-74" transform="translate(314.355469 0)"/>
     <use xlink:href="#DejaVuSans-69" transform="translate(353.564453 0)"/>
     <use xlink:href="#DejaVuSans-76" transform="translate(381.347656 0)"/>
     <use xlink:href="#DejaVuSans-65" transform="translate(440.527344 0)"/>
     <use xlink:href="#DejaVuSans-20" transform="translate(502.050781 0)"/>
     <use xlink:href="#DejaVuSans-64" transform="translate(533.837891 0)"/>
     <use xlink:href="#DejaVuSans-69" transform="translate(597.314453 0)"/>
     <use xlink:href="#DejaVuSans-73" transform="translate(625.097656 0)"/>
     <use xlink:href="#DejaVuSans-73" transform="translate(677.197266 0)"/>
     <use xlink:href="#DejaVuSans-6f" transform="translate(729.296875 0)"/>
     <use xlink:href="#DejaVuSans-63" transform="translate(790.478516 0)"/>
     <use xlink:href="#DejaVuSans-69" transform="translate(845.458984 0)"/>
     <use xlink:href="#DejaVuSans-61" transform="translate(873.242188 0)"/>
     <use xlink:href="#DejaVuSans-74" transform="translate(934.521484 0)"/>
     <use xlink:href="#DejaVuSans-69" transform="translate(973.730469 0)"/>
     <use xlink:href="#DejaVuSans-6f" transform="translate(1001.513672 0)"/>
     <use xlink:href="#DejaVuSans-6e" transform="translate(1062.695312 0)"/>
     <use xlink:href="#DejaVuSans-20" transform="translate(1126.074219 0)"/>
     <use xlink:href="#DejaVuSans-65" transform="translate(1157.861328 0)"/>
     <use xlink:href="#DejaVuSans-6e" transform="translate(1219.384766 0)"/>
     <use xlink:href="#DejaVuSans-65" transform="translate(1282.763672 0)"/>
     <use xlink:href="#DejaVuSans-72" transform="translate(1344.287109 0)"/>
     <use xlink:href="#DejaVuSans-67" transform="translate(1383.650391 0)"/>
     <use xlink:href="#DejaVuSans-79" transform="translate(1447.126953 0)"/>
     <use xlink:href="#DejaVuSans-3a" transform="translate(1499.056641 0)"/>
    </g>
    <!-- equal-weight transitions -->
    <g transform="translate(146.505938 43.192875) scale(0.12 -0.12)">
     <defs>
      <path id="DejaVuSans-71" d="M 947 1747 
Q 947 1113 1208 752 
Q 1469 391 1925 391 
Q 2381 391 2643 752 
Q 2906 1113 2906 1747 
Q 2906 2381 2643 2742 
Q 2381 3103 1925 3103 
Q 1469 3103 1208 2742 
Q 947 2381 947 1747 
z
M 2906 525 
Q 2725 213 2448 61 
Q 2172 -91 1784 -91 
Q 1150 -91 751 415 
Q 353 922 353 1747 
Q 353 2572 751 3078 
Q 1150 3584 1784 3584 
Q 2172 3584 2448 3432 
Q 2725 3281 2906 2969 
L 2906 3500 
L 3481 3500 
L 3481 -1331 
L 2906 -1331 
L 2906 525 
z
" transform="scale(0.015625)"/>
      <path id="DejaVuSans-2d" d="M 313 2009 
L 1997 2009 
L 1997 1497 
L 313 1497 
L 313 2009 
z
" transform="scale(0.015625)"/>
     </defs>
     <use xlink:href="#DejaVuSans-65"/>
     <use xlink:href="#DejaVuSans-71" transform="translate(61.523438 0)"/>
     <use xlink:href="#DejaVuSans-75" transform="translate(125 0)"/>
     <use xlink:href="#DejaVuSans-61" transform="translate(188.378906 0)"/>
     <use xlink:href="#DejaVuSans-6c" transform="translate(249.658203 0)"/>
     <use xlink:href="#DejaVuSans-2d" transform="translate(277.441406 0)"/>
     <use xlink:href="#DejaVuSans-77" transform="translate(313.525391 0)"/>
     <use xlink:href="#DejaVuSans-65" transform="translate(395.3125 0)"/>
     <use xlink:href="#DejaVuSans-69" transform="translate(456.835938 0)"/>
     <use xlink:href="#DejaVuSans-67" transform="translate(484.619141 0)"/>
     <use xlink:href="#DejaVuSans-68" transform="translate(548.095703 0)"/>
     <use xlink:href="#DejaVuSans-74" transform="translate(611.474609 0)"/>
     <use xlink:href="#DejaVuSans-20" transform="translate(650.683594 0)"/>
     <use xlink:href="#DejaVuSans-74" transform="translate(682.470703 0)"/>
     <use xlink:href="#DejaVuSans-72" transform="translate(721.679688 0)"/>
     <use xlink:href="#DejaVuSans-61" transform="translate(762.792969 0)"/>
     <use xlink:href="#DejaVuSans-6e" transform="translate(824.072266 0)"/>
     <use xlink:href="#DejaVuSans-73" transform="translate(887.451172 0)"/>
     <use xlink:href="#DejaVuSans-69" transform="translate(939.550781 0)"/>
     <use xlink:href="#DejaVuSans-74" transform="translate(967.333984 0)"/>
     <use xlink:href="#DejaVuSans-69" transform="translate(1006.542969 0)"/>
     <use xlink:href="#DejaVuSans-6f" transform="translate(1034.326172 0)"/>
     <use xlink:href="#DejaVuSans-6e" transform="translate(1095.507812 0)"/>
     <use xlink:href="#DejaVuSans-73" transform="translate(1158.886719 0)"/>
    </g>
   </g>
   <g id="legend_1">
    <g id="patch_7">
     <path d="M 47.603125 115.905375 
L 141.610938 115.905375 
Q 143.610938 115.905375 143.610938 113.905375 
L 143.610938 56.192875 
Q 143.610938 54.192875 141.610938 54.192875 
L 47.603125 54.192875 
Q 45.603125 54.192875 45.603125 56.192875 
L 45.603125 113.905375 
Q 45.603125 115.905375 47.603125 115.905375 
z
" style="fill: #ffffff; opacity: 0.8; stroke: #cccccc; stroke-linejoin: miter"/>
    </g>
    <g id="line2d_16">
     <path d="M 49.603125 62.291313 
L 59.603125 62.291313 
L 69.603125 62.291313 
" style="fill: none; stroke: #0000ff; stroke-width: 1.5; stroke-linecap: square"/>
    </g>
    <g id="text_15">
     <!-- pyrazole-1 -->
     <g transform="translate(77.603125 65.791313) scale(0.1 -0.1)">
      <defs>
       <path id="DejaVuSans-70" d="M 1159 525 
L 1159 -1331 
L 581 -1331 
L 581 3500 
L 1159 3500 
L 1159 2969 
Q 1341 3281 1617 3432 
Q 1894 3584 2278 3584 
Q 2916 3584 3314 3078 
Q 3713 2572 3713 1747 
Q 3713 922 3314 415 
Q 2916 -91 2278 -91 
Q 1894 -91 1617 61 
Q 1341 213 1159 525 
z
M 3116 1747 
Q 3116 2381 2855 2742 
Q 2594 3103 2138 3103 
Q 1681 3103 1420 2742 
Q 1159 2381 1159 1747 
Q 1159 1113 1420 752 
Q 1681 391 2138 391 
Q 2594 391 2855 752 
Q 3116 1113 3116 1747 
z
" transform="scale(0.015625)"/>
       <path id="DejaVuSans-7a" d="M 353 3500 
L 3084 3500 
L 3084 2975 
L 922 459 
L 3084 459 
L 3084 0 
L 275 0 
L 275 525 
L 2438 3041 
L 353 3041 
L 353 3500 
z
" transform="scale(0.015625)"/>
      </defs>
      <use xlink:href="#DejaVuSans-70"/>
      <use xlink:href="#DejaVuSans-79" transform="translate(63.476562 0)"/>
      <use xlink:href="#DejaVuSans-72" transform="translate(122.65625 0)"/>
      <use xlink:href="#DejaVuSans-61" transform="translate(163.769531 0)"/>
      <use xlink:href="#DejaVuSans-7a" transform="translate(225.048828 0)"/>
      <use xlink:href="#DejaVuSans-6f" transform="translate(277.539062 0)"/>
      <use xlink:href="#DejaVuSans-6c" transform="translate(338.720703 0)"/>
      <use xlink:href="#DejaVuSans-65" transform="translate(366.503906 0)"/>
      <use xlink:href="#DejaVuSans-2d" transform="translate(428.027344 0)"/>
      <use xlink:href="#DejaVuSans-31" transform="translate(464.111328 0)"/>
     </g>
    </g>
    <g id="line2d_17">
     <path d="M 49.603125 76.969438 
L 59.603125 76.969438 
L 69.603125 76.969438 
" style="fill: none; stroke: #00ffff; stroke-width: 1.5; stroke-linecap: square"/>
    </g>
    <g id="text_16">
     <!-- pyrazole-2 -->
     <g transform="translate(77.603125 80.469438) scale(0.1 -0.1)">
      <use xlink:href="#DejaVuSans-70"/>
      <use xlink:href="#DejaVuSans-79" transform="translate(63.476562 0)"/>
      <use xlink:href="#DejaVuSans-72" transform="translate(122.65625 0)"/>
      <use xlink:href="#DejaVuSans-61" transform="translate(163.769531 0)"/>
      <use xlink:href="#DejaVuSans-7a" transform="translate(225.048828 0)"/>
      <use xlink:href="#DejaVuSans-6f" transform="translate(277.539062 0)"/>
      <use xlink:href="#DejaVuSans-6c" transform="translate(338.720703 0)"/>
      <use xlink:href="#DejaVuSans-65" transform="translate(366.503906 0)"/>
      <use xlink:href="#DejaVuSans-2d" transform="translate(428.027344 0)"/>
      <use xlink:href="#DejaVuSans-32" transform="translate(464.111328 0)"/>
     </g>
    </g>
    <g id="line2d_18">
     <path d="M 49.603125 91.647562 
L 59.603125 91.647562 
L 69.603125 91.647562 
" style="fill: none; stroke: #ff0000; stroke-width: 1.5; stroke-linecap: square"/>
    </g>
    <g id="text_17">
     <!-- undecanol-1 -->
     <g transform="translate(77.603125 95.147562) scale(0.1 -0.1)">
      <use xlink:href="#DejaVuSans-75"/>
      <use xlink:href="#DejaVuSans-6e" transform="translate(63.378906 0)"/>
      <use xlink:href="#DejaVuSans-64" transform="translate(126.757812 0)"/>
      <use xlink:href="#DejaVuSans-65" transform="translate(190.234375 0)"/>
      <use xlink:href="#DejaVuSans-63" transform="translate(251.757812 0)"/>
      <use xlink:href="#DejaVuSans-61" transform="translate(306.738281 0)"/>
      <use xlink:href="#DejaVuSans-6e" transform="translate(368.017578 0)"/>
      <use xlink:href="#DejaVuSans-6f" transform="translate(431.396484 0)"/>
      <use xlink:href="#DejaVuSans-6c" transform="translate(492.578125 0)"/>
      <use xlink:href="#DejaVuSans-2d" transform="translate(520.361328 0)"/>
      <use xlink:href="#DejaVuSans-31" transform="translate(556.445312 0)"/>
     </g>
    </g>
    <g id="line2d_19">
     <path d="M 49.603125 106.325688 
L 59.603125 106.325688 
L 69.603125 106.325688 
" style="fill: none; stroke: #ffa500; stroke-width: 1.5; stroke-linecap: square"/>
    </g>
    <g id="text_18">
     <!-- undecanol-2 -->
     <g transform="translate(77.603125 109.825688) scale(0.1 -0.1)">
      <use xlink:href="#DejaVuSans-75"/>
      <use xlink:href="#DejaVuSans-6e" transform="translate(63.378906 0)"/>
      <use xlink:href="#DejaVuSans-64" transform="translate(126.757812 0)"/>
      <use xlink:href="#DejaVuSans-65" transform="translate(190.234375 0)"/>
      <use xlink:href="#DejaVuSans-63" transform="translate(251.757812 0)"/>
      <use xlink:href="#DejaVuSans-61" transform="translate(306.738281 0)"/>
      <use xlink:href="#DejaVuSans-6e" transform="translate(368.017578 0)"/>
      <use xlink:href="#DejaVuSans-6f" transform="translate(431.396484 0)"/>
      <use xlink:href="#DejaVuSans-6c" transform="translate(492.578125 0)"/>
      <use xlink:href="#DejaVuSans-2d" transform="translate(520.361328 0)"/>
      <use xlink:href="#DejaVuSans-32" transform="translate(556.445312 0)"/>
     </g>
    </g>
   </g>
  </g>
 </g>
 <defs>
  <clipPath id="p80f8cac48b">
   <rect x="40.603125" y="49.192875" width="357.12" height="266.112"/>
  </clipPath>
 </defs>
</svg>
